<?xml version="1.0" standalone="no"?>
<!DOCTYPE svg PUBLIC "-//W3C//DTD SVG 1.1//EN" "http://www.w3.org/Graphics/SVG/1.1/DTD/svg11.dtd" >
<svg xmlns="http://www.w3.org/2000/svg">
<metadata></metadata>
<defs>
<font id="lhf_chicago_scriptregular" horiz-adv-x="1542" >
<font-face units-per-em="2048" ascent="1536" descent="-512" />
<missing-glyph horiz-adv-x="434" />
<glyph horiz-adv-x="0" />
<glyph horiz-adv-x="682" />
<glyph unicode=" "  horiz-adv-x="434" />
<glyph unicode="&#x09;" horiz-adv-x="434" />
<glyph unicode="&#xa0;" horiz-adv-x="434" />
<glyph unicode="!" horiz-adv-x="571" d="M-14 88q0 69 59 125q57 57 117 57q35 0 61 -26q21 -21 21 -58q0 -69 -66 -135q-53 -53 -110 -53q-34 0 -56 22q-26 26 -26 68zM139 315l496 768q219 0 377 131l18 -8q-57 -66 -148 -173t-290 -355.5t-301 -398.5q-14 24 -39 39.5t-53 15.5q-45 0 -60 -19z" />
<glyph unicode="&#x22;" horiz-adv-x="526" d="M156 965q57 50 57 92q0 14 -8 31.5t-8 29.5q0 63 50.5 121.5t110.5 58.5q30 0 48 -21.5t18 -53.5q0 -45 -24.5 -87.5t-65 -75.5t-79 -56t-79.5 -41zM414 997q57 50 57 93q0 14 -8 31.5t-8 29.5q0 63 50.5 121.5t110.5 58.5q30 0 48 -22t18 -54q0 -45 -24.5 -87.5 t-65 -75.5t-79 -56t-79.5 -41z" />
<glyph unicode="#" horiz-adv-x="1581" d="M31 498q0 88 65.5 138t157.5 50q-21 -15 -21 -43q0 -26 16.5 -42.5t47.5 -16.5q46 0 104 34t128 103t117 121t120 139q182 217 285 311q-80 -57 -183 -57q-24 0 -63 4t-55 4q-49 0 -83 -22t-34 -56q0 -21 16 -33t39 -12q-1 -18 -10.5 -41.5t-27.5 -49t-51 -43t-73 -17.5 q-60 0 -98.5 35.5t-38.5 97.5q0 68 49.5 116t115 67.5t134.5 19.5q37 0 116 -8.5t122 -8.5q121 0 166 41q10 10 18 10q10 0 10 -10l-4 -10q-1 -1 -14 -16.5t-22.5 -31t-19 -50.5t-9.5 -78q0 -38 9 -112t9 -113q0 -111 -43 -265q1 2 21 36t51.5 85.5t70 112t87.5 129 t94 123.5q93 115 144.5 170.5t104.5 87.5q88 57 158 57q57 0 95 -24.5t38 -81.5q0 -59 -42 -101.5t-103 -42.5q-5 0 -29 6q11 0 18 12t7 27q0 21 -17.5 34t-48.5 13q-61 0 -136 -53.5t-144 -134t-142.5 -181.5t-130 -190t-108 -165.5t-76.5 -102.5q-12 -21 -45.5 -62.5 t-48.5 -41.5q-10 0 -10 10q0 6 6.5 17.5t7.5 13.5q24 41 24 98q0 45 -26.5 135.5t-26.5 142.5q0 165 129 367q-74 -73 -143 -175t-151.5 -238.5t-145.5 -225.5q-53 -77 -125 -129.5t-152 -52.5q-89 0 -144.5 50t-55.5 120zM1047 510q43 -4 78 -28.5t49 -47.5l14 -22 q28 28 124 52.5t178 35.5l83 10v10h-526v-10zM1223 684q0 98 69.5 208t176 184.5t204.5 74.5q37 0 57.5 -22t20.5 -62q0 -128 -113 -289q-148 -223 -292 -223q-55 0 -89 36.5t-34 92.5zM1450 815q0 -27 15 -43t44 -16q16 0 43 13.5t41 33.5q-26 23 -26 57q0 49 42 109.5 t87 60.5q14 0 22 -10q6 15 6 35q0 45 -32 45q-73 0 -157.5 -102t-84.5 -183z" />
<glyph unicode="$" horiz-adv-x="980" d="M29 526q0 110 56.5 210t155.5 162.5t214 62.5q58 0 102 -15.5t67.5 -36.5t38.5 -49t19 -48t4 -38q0 -72 -52 -123t-128 -51q-25 0 -45.5 5t-32.5 12t-20.5 14.5t-11.5 12.5l-3 5q4 2 10 7t16.5 21t10.5 34q-3 26 -28 41.5t-56 15.5q-96 -6 -156.5 -89t-60.5 -175 q0 -105 60.5 -174t152.5 -80l399 493q-2 19 -7 60t-8 75t-3 66q0 195 115 326q68 77 154 111t167 34q66 0 111 -20l67 84l25 -21l-64 -80q16 -11 31.5 -26.5t26 -24t22.5 -8.5q16 0 31 8.5t22 16.5l7 8l28 -15l-200 -280l-27 18l6 6q62 100 62 162q-3 62 -45 90l-277 -340 q1 -13 8 -68t10 -91.5t3 -73.5q0 -112 -51.5 -218.5t-135.5 -184t-196.5 -124.5t-229.5 -47q-41 0 -59 4l-123 -151l-25 18l113 140q-120 27 -195 114t-75 215zM379 248q160 2 264.5 118.5t104.5 297.5q0 16 -3 34zM979 1096q0 -40 2 -58l252 312q-21 8 -51 8 q-34 0 -76 -23.5t-66 -50.5q-61 -72 -61 -188z" />
<glyph unicode="%" horiz-adv-x="1431" d="M254 719q0 156 147 344q84 107 197.5 177.5t204.5 70.5h14q7 0 37 -6q43 -11 63.5 -50.5t20.5 -91.5q0 -16 -2 -24q-6 -62 -32.5 -128t-64 -121t-69.5 -94.5t-63 -70.5q-55 -57 -147 -107.5t-159 -50.5q-68 0 -107.5 38t-39.5 114zM264 -80l1098 1520h125l-1100 -1520 h-123zM326 647q0 -43 32 -43q36 0 101.5 49t148.5 146q101 118 164.5 229t81.5 178q4 28 4 35q0 35 -31 35q-48 0 -138 -80.5t-175 -190t-131 -200.5q-57 -107 -57 -158zM776 145q0 154 148 344q84 107 197 177.5t204 70.5h14q7 0 37 -6q43 -11 63.5 -50t20.5 -91 q0 -17 -2 -25q-8 -81 -53.5 -170.5t-88.5 -144t-87 -98.5q-55 -57 -146.5 -107.5t-158.5 -50.5q-68 0 -108 37.5t-40 113.5zM848 74q0 -43 33 -43q36 0 101 48.5t148 145.5q101 118 164.5 229.5t81.5 178.5q4 28 4 35q0 34 -30 34q-48 0 -138 -80.5t-175.5 -190.5 t-131.5 -200q-57 -107 -57 -157z" />
<glyph unicode="&#x26;" horiz-adv-x="1343" d="M-23 145q0 180 170 353q76 77 164.5 139.5t165.5 98t118.5 51t72.5 24.5q0 173 55 281q17 33 39 66t65 79.5t92.5 80.5t124.5 59t158 26q56 0 105 -29t49 -86q0 -55 -29 -111t-67.5 -98t-106 -93.5t-113.5 -81t-122 -75.5q0 -71 18 -174q188 228 356 228q76 0 136.5 -41 t60.5 -117t-62.5 -136.5t-140.5 -60.5q-21 0 -41.5 4t-30.5 8l-10 5q43 17 43 69q0 37 -30.5 56.5t-73.5 19.5q-31 -1 -62.5 -14.5t-54.5 -32t-41 -37.5t-27 -32l-10 -13q10 -85 10 -155q0 -121 -21.5 -239t-66 -233t-120.5 -218t-177 -179q-147 -112 -303 -112 q-95 0 -161 45.5t-76 138.5q0 96 66 160.5t165 64.5q49 0 86 -18q-28 -12 -44.5 -35.5t-16.5 -52.5q0 -42 39 -65t88 -23q85 0 156 46.5t114.5 119.5t67.5 157t24 166q0 97 -21 168l-1 4q-13 -28 -49 -86t-54 -76q-80 -105 -182.5 -176.5t-214.5 -71.5q-116 0 -197.5 68 t-81.5 186zM356 354q0 -65 30.5 -95t80.5 -30q83 0 155 53t109 132q-10 71 -33 155q-9 34 -15.5 77.5t-8.5 69.5l-2 27q-112 -38 -214 -156t-102 -233zM907 918l2 -39q99 63 168 127t100.5 117t44 90t13.5 69q0 49 -53 49q-79 -6 -144.5 -79.5t-98 -164.5t-32.5 -169z" />
<glyph unicode="'" horiz-adv-x="215" d="M186 997q58 51 58 93q0 14 -8.5 31.5t-8.5 29.5q0 63 51 121.5t111 58.5q30 0 48 -22t18 -54q0 -45 -24.5 -87.5t-65 -75.5t-79 -56t-79.5 -41z" />
<glyph unicode="(" horiz-adv-x="600" d="M35 352q0 164 73.5 329t194.5 296t278 230t322 143q100 30 166 30q27 0 27 -8q0 -4 -13 -10q-161 -51 -317.5 -152t-284 -234t-206 -303t-78.5 -343q0 -251 192 -463q8 -10 8 -14q0 -7 -10 -7q-79 0 -147.5 51.5t-112 129t-68 164t-24.5 161.5z" />
<glyph unicode=")" horiz-adv-x="808" d="M-287 -162q0 4 13 10q128 41 254.5 112.5t240.5 172t201 216.5t138.5 254.5t51.5 277.5q0 250 -192 462q-8 10 -8 15q0 6 10 6q81 -9 150 -62t112 -128t66.5 -158t23.5 -158q0 -164 -73.5 -328.5t-194.5 -296t-278 -230t-322 -142.5q-103 -31 -166 -31q-27 0 -27 8z" />
<glyph unicode="*" horiz-adv-x="884" d="M195 862q0 13 6 25q12 26 48.5 45.5t72.5 19.5q22 0 70 -16t85 -32l37 -17q-211 -66 -260 -66q-28 0 -43.5 11t-15.5 30zM219 692q0 12 6 27q18 32 58 59q19 13 75 37t102 41l46 18q-142 -145 -187 -174q-36 -26 -71 -26q-29 0 -29 18zM317 594q0 24 15 51q12 22 58 78 t86 101l40 46q-26 -176 -53 -225q-19 -35 -53 -61.5t-60 -26.5q-33 0 -33 37zM389 1016q0 22 8 35q6 13 29 32q24 15 43 15q28 0 45 -27q8 -16 8 -76l-4 -98q-111 65 -125 94q-4 8 -4 25zM524 774l4 98q111 -65 125 -94q4 -8 4 -24q0 -22 -8 -35q-7 -16 -28 -33 q-21 -12 -41 -12q-33 0 -48 24q-8 16 -8 76zM535 905q28 176 53 223q19 37 52 64t60 27q15 0 24 -11t9 -28q0 -27 -14 -52q-11 -21 -57 -76.5t-86 -101.5zM537 887q209 65 258 65q27 0 43 -13t16 -32q0 -12 -4 -20q-15 -27 -51 -46.5t-72 -19.5q-22 0 -69.5 16.5t-83.5 32.5 zM539 895q141 145 186 176q42 27 74 27q19 0 26 -13q2 -2 2 -8t-8 -26q-20 -35 -55 -58q-19 -13 -75.5 -37.5t-102.5 -42.5z" />
<glyph unicode="+" horiz-adv-x="616" d="M135 571l64 68h198l150 190h94l-147 -190h231l-61 -70h-224l-182 -227h-94l180 227q-32 0 -105.5 1t-103.5 1z" />
<glyph unicode="," horiz-adv-x="276" d="M-102 -88q57 50 57 92q0 14 -8 32t-8 30q0 63 50.5 121.5t110.5 58.5q30 0 48 -22t18 -54q0 -45 -24.5 -87.5t-65 -75.5t-79 -56t-79.5 -41z" />
<glyph unicode="-" horiz-adv-x="778" d="M90 479l92 115h535l-92 -115h-535z" />
<glyph unicode="." horiz-adv-x="370" d="M-35 82q0 68 60 125q57 57 116 57q36 0 62 -26q20 -20 20 -58q0 -70 -65 -135q-53 -53 -111 -53q-33 0 -55 22q-27 27 -27 68z" />
<glyph unicode="/" horiz-adv-x="800" d="M-43 -80l1098 1520h125l-1100 -1520h-123z" />
<glyph unicode="0" horiz-adv-x="1179" d="M55 223q0 310 293 684q167 214 391 354t406 140h26q26 0 76 -15q86 -23 126 -99t40 -179q0 -33 -2 -49q-11 -100 -50 -207t-88 -194t-112 -174t-111.5 -142.5t-95.5 -103.5q-111 -113 -292.5 -213.5t-315.5 -100.5t-212.5 74t-78.5 225zM197 82q0 -34 16 -59t49 -25 q72 0 202.5 96.5t295.5 288.5q200 235 325.5 455.5t159.5 355.5q10 48 10 70q0 29 -15.5 48t-45.5 19q-97 0 -275 -160t-346.5 -377.5t-261.5 -398.5q-114 -216 -114 -313z" />
<glyph unicode="1" horiz-adv-x="706" d="M-311 -35l37 45q70 0 147.5 41.5t149.5 130.5l690 965h-217l26 35q250 12 574 198h88q-28 -39 -145.5 -200t-220 -302.5t-219.5 -303.5t-195 -273.5t-95 -142.5q-41 -60 -41 -99q0 -2 1 -6t1 -6q1 -4 4 -10t22 -16.5t48 -10.5h66l-29 -45h-692z" />
<glyph unicode="2" horiz-adv-x="1228" d="M-90 20q0 9 5.5 21t10.5 19l6 8q29 38 99.5 100t175.5 135q213 149 395 250t289 174q461 317 461 516q0 45 -37 70.5t-88 25.5q-75 0 -178 -41q-82 -37 -134.5 -84t-52.5 -96q0 -51 62 -51q28 0 63 14q-55 -94 -141 -153.5t-191 -59.5q-139 10 -139 109q3 47 33 94.5 t71 84t96 71t100.5 57t92.5 41.5q194 78 377 78q53 0 108.5 -11.5t109 -35.5t88 -67.5t34.5 -100.5q0 -66 -40 -135.5t-99 -127t-142.5 -115.5t-155 -99t-151.5 -80l-325 -137q-245 -102 -348 -156q-41 -22 -98 -58t-93 -62l-37 -25q6 0 19 8q56 29 84.5 42.5t78.5 27.5 t99 14q19 0 59 -4q56 -7 109.5 -30t89 -46.5t83.5 -42.5t97 -19q72 0 131 38t70 91q-1 25 24 25t25 -21l-6 -30q-28 -79 -87.5 -144t-128.5 -101.5t-133 -55.5t-112 -19q-101 0 -184 29.5t-172 103.5q-85 70 -164 70q-38 0 -72 -21t-51 -49q-1 -3 -6.5 -13.5t-9.5 -17.5 t-10.5 -16t-13.5 -13.5t-15 -4.5q-11 0 -21 8t-10 18z" />
<glyph unicode="3" horiz-adv-x="1259" d="M-109 156q0 88 68.5 147t163.5 59q38 0 67 -10.5t42.5 -25.5t21.5 -30t9 -26l1 -10q0 -33 -12.5 -57.5t-30 -35.5t-34.5 -17t-29 -6l-13 -1q0 41 -47 41q-35 0 -61.5 -23.5t-26.5 -60.5q5 -45 40 -73.5t75 -37.5t84 -9q69 0 155.5 26.5t172.5 75.5t158.5 111.5 t117.5 142.5t45 160q0 163 -266 163q-4 0 -9 3.5t-9 6.5l-3 3q-2 2 -2 8q0 7 6.5 12.5t13.5 7.5l7 2l106 29q83 22 168 66.5t155 99t114.5 95.5t83.5 81q100 104 100 191q0 43 -40.5 63.5t-100.5 20.5q-44 0 -105.5 -15t-124 -41.5t-107.5 -71t-48 -94.5q0 -34 23.5 -49.5 t49.5 -15.5q8 0 20 2t15 2q-34 -53 -73.5 -91t-69.5 -56t-66 -28t-54 -11.5t-42 -1.5q-57 0 -102 31.5t-45 82.5q0 46 26.5 91t65.5 80t91.5 68t96 53.5t86.5 37.5q210 86 400 86q136 0 237 -49q125 -59 125 -180q0 -79 -47 -138q-122 -166 -580 -274l-49 -8q41 0 80 -8 t75 -25t63 -42.5t43 -63t16 -82.5q0 -85 -45.5 -168t-120 -149.5t-170 -123.5t-196.5 -95t-198.5 -59.5t-175.5 -21.5q-172 0 -276 53q-109 56 -109 183z" />
<glyph unicode="4" horiz-adv-x="1212" d="M27 502q0 23 20 33q81 46 162.5 106.5t127.5 100.5t130 118q207 194 207 307q-1 33 -11 58.5t-24 38.5t-32 21.5t-31 10.5t-25 2q29 40 101 66.5t151 26.5q38 0 72 -5.5t68.5 -19.5t55.5 -42.5t21 -68.5q0 -36 -19 -77t-42 -71.5t-66 -72t-67 -62t-70 -57.5 q-126 -100 -306.5 -211t-297.5 -174q108 33 245 33q83 0 332 -22l461 655q23 0 60.5 6t105.5 25.5t148.5 69.5t150.5 124h18q-21 -31 -126.5 -173.5t-262 -354t-272.5 -373.5q51 8 99.5 23t99.5 40.5t75.5 39t75.5 43.5l14 -11l-96 -153q-92 -80 -330 -80 q-96 -145 -144.5 -224t-57.5 -100t-9 -35q0 -37 35.5 -48t122.5 -11l-20 -31h-744l27 31q51 0 86.5 5.5t74.5 26.5t68.5 46.5t76 83.5t89 118t115.5 167q-38 5 -66.5 10t-38.5 6q-104 16 -219 16q-47 0 -135.5 -10t-112.5 -10q-71 0 -71 39z" />
<glyph unicode="5" horiz-adv-x="1167" d="M-92 158q0 86 68.5 149.5t158.5 63.5q56 0 95.5 -27.5t39.5 -87.5q0 -27 -10.5 -48t-25 -32t-29 -18t-25.5 -9l-10 -2q0 39 -43 39q-37 0 -62.5 -28t-25.5 -64q0 -38 29 -67q48 -45 143 -45q129 0 270 88q136 85 239 220t103 279q0 59 -34 97t-79 51.5t-98 13.5 q-76 0 -155.5 -22t-126.5 -62q-14 -14 -25 -14q-7 0 -13.5 6t-6.5 16q0 13 10 29l569 721h86l-47 -53h457q43 0 81 6.5t61.5 16t41.5 19.5t26 16l7 7l31 -8q-64 -95 -119 -154t-106 -85.5t-89 -34t-92 -7.5h-438l-279 -337q150 104 328 104q60 0 116.5 -16t104 -46.5 t76.5 -82.5t29 -117q0 -161 -142 -330q-146 -176 -350.5 -281.5t-415.5 -105.5q-178 0 -266 88q-57 59 -57 154z" />
<glyph unicode="6" horiz-adv-x="1181" d="M33 238q0 218 142 430t460 442q111 80 223 139.5t193.5 89t160.5 47.5t118 21.5t71 3.5q68 0 129 -31q82 -49 82 -125q0 -70 -54.5 -131t-127.5 -61q-42 0 -70.5 17t-28.5 46q0 38 49 76q78 63 78 111q0 39 -53 39q-143 0 -469 -254q-114 -89 -214.5 -193t-162.5 -184.5 t-121 -176t-81 -139t-50 -102.5q-16 -33 -31.5 -94.5t-15.5 -112.5q0 -100 64 -100q84 0 178 76.5t221 246.5q114 152 152 232t38 129q0 37 -21.5 63.5t-53.5 26.5q-25 0 -72.5 -21.5t-73.5 -21.5q-20 0 -20 16q0 6 5 12.5t10 9.5l5 3q109 66 230 66q50 0 94.5 -12t82.5 -38 t60.5 -72t22.5 -108q0 -118 -97 -244q-78 -103 -166 -183t-164 -126t-153.5 -75t-131.5 -38.5t-99 -9.5q-23 0 -46.5 2t-58.5 9.5t-65 20t-62 36t-54.5 55t-37 80t-14.5 107.5z" />
<glyph unicode="7" horiz-adv-x="995" d="M-68 -39q85 118 206.5 253.5t234.5 244t213.5 200t161.5 142.5l61 51l379 278h-535q-175 0 -256 -77h-65l248 327h59l-8 -20h848l133 2l-2 -45q-162 -95 -326 -227.5t-296 -268t-250 -271t-203.5 -252.5t-138.5 -196.5t-72 -117.5l-9 -23h-383z" />
<glyph unicode="8" horiz-adv-x="1150" d="M-72 195q0 44 17.5 85.5t43.5 75t70 66.5t83.5 57.5t99 51t101 42.5t105 36.5t95.5 30t86 24.5q-41 43 -65.5 99t-24.5 109q0 141 137 275q78 76 166 128.5t167.5 75.5t135.5 31.5t106 8.5q138 0 213 -41q51 -27 81 -61.5t30 -90.5q0 -66 -44 -128.5t-109.5 -109 t-153 -88t-161 -67t-146.5 -45.5q4 -3 9 -9t17 -19.5t31 -31.5q37 -42 57 -69.5t40 -81t20 -113.5q0 -86 -32.5 -161.5t-88.5 -131t-128.5 -99.5t-155 -71t-165.5 -41t-162 -14q-54 0 -111.5 7t-124.5 26t-118.5 48.5t-86 80.5t-34.5 115zM207 174q4 -84 62.5 -126.5 t150.5 -49.5q53 0 107 13t104.5 40t89.5 65t62.5 92.5t23.5 117.5q0 113 -123 268q-52 -19 -149 -64q-62 -30 -110.5 -60.5t-101.5 -75t-83.5 -101t-32.5 -119.5zM834 991q0 -32 8 -62.5t19 -51.5t22.5 -37.5t19.5 -24.5l8 -8q178 56 302.5 164.5t127.5 236.5q0 53 -37.5 87 t-93.5 34q-84 0 -171 -45.5t-146 -125.5t-59 -167z" />
<glyph unicode="9" horiz-adv-x="1128" d="M-221 -4q0 10 16 10q21 0 58 -5t55 -5q424 0 909 579q-6 -4 -17.5 -11t-46.5 -24.5t-71 -31t-87 -24.5t-99 -11q-51 0 -90 10q-98 23 -143.5 82.5t-45.5 139.5q0 91 36 182t97.5 167t144 142.5t173.5 112.5t188 72t186 26h33q27 0 59 -4.5t77 -21.5t80 -44t60 -78 t25 -118q0 -99 -44.5 -221.5t-127 -252.5t-216 -262t-296.5 -235q-196 -125 -373 -179t-319 -54q-140 0 -209 43q-12 6 -12 16zM479 627q0 -34 19.5 -58t54.5 -24q83 0 228.5 116.5t244.5 256.5q158 221 158 335q0 43 -16.5 66.5t-47.5 23.5q-96 -1 -230 -107t-241 -255 q-76 -107 -120.5 -192.5t-49.5 -161.5z" />
<glyph unicode=":" horiz-adv-x="444" d="M57 301q0 68 60 125q57 57 116 57q36 0 62 -26q20 -20 20 -58q0 -70 -65 -135q-53 -53 -111 -53q-33 0 -55 22q-27 27 -27 68zM307 662q0 67 60 124q58 58 116 58q35 0 62 -27q20 -20 20 -57q0 -70 -65 -135q-54 -54 -111 -54q-32 0 -55 23q-27 27 -27 68z" />
<glyph unicode=";" horiz-adv-x="421" d="M-61 -23l20 -2q32 14 62.5 31t65 42.5t60.5 52.5t43 63t17 72q0 32 -18 53.5t-48 21.5q-60 0 -110.5 -58.5t-50.5 -121.5q0 -12 8 -29.5t8 -31.5q0 -43 -57 -93zM141 500q0 68 60 125q57 57 116 57q35 0 62 -27q20 -20 20 -57q0 -70 -65 -135q-53 -53 -111 -53 q-33 0 -55 22q-27 27 -27 68z" />
<glyph unicode="&#x3c;" horiz-adv-x="2017" d="M29 328q0 184 129.5 318t308.5 134q82 0 144.5 -43.5t62.5 -128.5q0 -29 -12.5 -61t-43 -58.5t-71.5 -27.5q-35 0 -53.5 19.5t-18.5 47.5q0 24 12.5 41.5t32.5 18.5q3 -15 17 -15q23 0 36 13.5t13 36.5q0 33 -22 60.5t-79 27.5q-75 -1 -124.5 -58.5t-49.5 -134.5 q0 -82 52.5 -125t113.5 -47q34 0 68.5 9.5t62 21.5t61.5 38t55.5 44.5t57 56t52 57t54.5 64t52 61.5q17 20 108 131t163 187t159 149q-20 8 -85.5 37t-100 42t-89.5 26.5t-100 13.5q-60 0 -104.5 -15.5t-68.5 -41t-35 -51t-11 -50.5q0 -38 25 -62t73 -24q14 0 35 7 q-11 -96 -79.5 -152.5t-151.5 -56.5q-82 0 -145.5 52.5t-63.5 149.5q0 78 40.5 143.5t105.5 106.5t142.5 63.5t155.5 22.5q43 0 80.5 -3t79.5 -14t65.5 -16.5t73 -27t65 -28t78.5 -37t79 -38.5q3 2 49 37t65 47t58 35.5t70.5 33t60.5 9.5q37 0 37 -22q0 -18 -21 -25 q-94 -27 -219 -162q68 -24 143 -35q87 108 177.5 202.5t208 191t235 165t257.5 111.5t277 43q99 0 155 -39.5t56 -109.5q0 -115 -139 -250q-177 -171 -431 -276t-491 -105q-76 0 -127 10q-78 -102 -163 -244q-106 -176 -162 -276q139 177 256 250q64 39 133 39 q54 0 92.5 -25t38.5 -76q0 -49 -35.5 -115t-78 -120.5t-78 -116t-35.5 -102.5q0 -15 13 -25t32 -10q25 0 53 19.5t46 40.5t44.5 56.5t34.5 45.5h31q-27 -45 -61.5 -95t-87 -115.5t-103 -116t-108.5 -85.5t-105 -35q-65 0 -109.5 41.5t-44.5 108.5q0 122 178 348 q22 27 54.5 67t53 65.5t42 53.5t31.5 48.5t10 33.5q0 23 -19 23q-52 0 -161 -127q-12 -14 -65.5 -74t-79 -89.5t-64.5 -80t-64 -92.5l-184 -305q-39 10 -113 10q-36 0 -77 -2.5t-64 -5.5l-23 -2q109 150 233.5 357t225.5 360q136 209 268 378q-32 4 -143 37 q-110 -130 -184 -258q-27 -47 -73 -128t-76 -133t-75.5 -127.5t-79.5 -125.5t-81 -113t-87 -104.5t-90.5 -84.5t-98 -67.5t-102.5 -40.5t-112 -16q-165 0 -287 116.5t-122 289.5zM1890 1116q54 -4 82 -4q223 0 473.5 111t405.5 266q104 104 104 186q0 40 -27 61t-69 21 q-130 0 -267.5 -55.5t-263.5 -151.5t-232.5 -202.5t-205.5 -231.5z" />
<glyph unicode="=" horiz-adv-x="899" d="M41 383l92 115h719l-92 -115h-719zM180 625l92 114h719l-92 -114h-719z" />
<glyph unicode="&#x3e;" horiz-adv-x="1638" d="M-150 258q0 63 16 116t41 86t56 59t61.5 38.5t55.5 20.5t41 10l16 2q-20 -26 -20 -58q0 -40 29.5 -71t72.5 -31q40 1 72.5 13t85.5 53t126.5 118t188.5 209q170 193 330 330q-28 11 -90 40t-99 44t-93 29t-105 14q-115 0 -176.5 -49.5t-61.5 -104.5q0 -38 25.5 -62 t73.5 -24q13 0 34 7q-11 -96 -79.5 -152.5t-151.5 -56.5q-81 0 -143 48.5t-62 139.5q0 66 28 123.5t74 97.5t106 69t124 42.5t127 13.5q135 0 245 -39t281 -133q139 113 221 164q22 16 39 16q8 0 14.5 -5.5t6.5 -14.5q0 -12 -29 -35q-81 -65 -160 -162q72 -25 127 -33 q87 108 177.5 202.5t208 191t235.5 165t258 111.5t277 43q99 0 154.5 -39.5t55.5 -109.5q0 -115 -139 -250q-177 -171 -430.5 -276t-490.5 -105q-76 0 -127 10q-83 -108 -164 -244q-106 -176 -162 -276q139 177 256 250q64 39 133 39q54 0 92.5 -25t38.5 -76 q0 -49 -35.5 -115t-78 -120.5t-78 -116t-35.5 -102.5q0 -15 13 -25t32 -10q25 0 53 19.5t46 40.5t44.5 56.5t34.5 45.5h31q-27 -45 -61.5 -95t-87 -115.5t-103 -116t-108.5 -85.5t-105 -35q-65 0 -109.5 41.5t-44.5 108.5q0 122 178 348q22 27 54.5 67t53 65.5t42 53.5 t31.5 48.5t10 33.5q0 23 -18 23q-30 0 -76 -40t-86 -87q-12 -14 -65.5 -74t-79 -89.5t-64.5 -80t-64 -92.5l-184 -305q-39 10 -113 10q-36 0 -77 -2.5t-63 -5.5l-23 -2q108 149 232 355.5t226 361.5q131 202 269 378q-63 8 -132 29q-100 -127 -212.5 -300.5t-175.5 -283.5 l-62 -110q-31 -62 -65 -118.5t-83.5 -120t-101.5 -109t-119 -75.5t-135 -30q-84 0 -156.5 31.5t-121 100t-48.5 161.5zM1511 1116q54 -4 82 -4q223 0 473.5 111t405.5 266q104 104 104 186q0 40 -27 61t-69 21q-130 0 -267.5 -55.5t-263.5 -151.5t-232.5 -202.5 t-205.5 -231.5z" />
<glyph unicode="?" horiz-adv-x="786" d="M74 88q0 69 59 125q57 57 117 57q35 0 61 -26q21 -21 21 -58q0 -69 -66 -135q-53 -53 -110 -53q-34 0 -56 22q-26 26 -26 68zM186 725q0 68 56.5 135.5t140.5 117t166.5 84.5t148.5 50q95 27 201 27q151 0 227 -66q70 -61 70 -145q0 -70 -35.5 -131t-94 -103.5 t-129 -76.5t-147 -58t-140.5 -41t-117 -31.5t-70 -23.5q-35 -20 -35 -47q0 -20 29 -23l12 4q0 -38 -37 -64t-78 -26q-43 0 -68.5 24t-25.5 64q0 46 46.5 85.5t123 74t159 69.5t170.5 87t142 110q82 89 82 158q0 80 -98 80q-67 0 -152.5 -35t-148 -88t-62.5 -100 q0 -37 47 -37q13 0 33 10q-34 -83 -115 -146t-168 -63q-54 0 -93.5 34.5t-39.5 90.5z" />
<glyph unicode="@" horiz-adv-x="1032" d="M70 338q0 90 39 182t106.5 168.5t152.5 137t183.5 94.5t193.5 34q115 0 200 -68.5t85 -187.5q0 -102 -58 -198.5t-153 -175.5q-108 -86 -205 -86q-37 0 -54 22t-17 55q0 37 18 82q-4 -5 -25 -31t-35 -41t-36 -35.5t-44 -31t-44 -10.5q-37 0 -57.5 26t-20.5 66 q0 57 37.5 129.5t93 133.5t125.5 103t129 42q15 0 41 -13q14 -17 14 -41q0 -16 -2 -22l31 47q16 -4 51 -4q33 0 82 6q-225 -344 -225 -385q0 -27 20 -27q37 0 105 51q91 68 155 199q31 63 31 139q0 98 -68 159t-171 61q-102 0 -213 -48t-201 -125t-148.5 -184t-58.5 -215 q0 -123 79.5 -201.5t213.5 -78.5q148 0 293.5 69t247.5 178q11 11 20 11q18 0 18 -19q0 -4 -4 -12q-94 -127 -259 -198.5t-324 -71.5q-156 0 -249 88.5t-93 226.5zM487 434q0 -24 21 -24q16 0 35 14q45 32 107.5 120.5t62.5 137.5q0 20 -17 20q-44 -2 -126.5 -101.5 t-82.5 -166.5z" />
<glyph unicode="A" d="M41 225q0 116 89 211.5t206 95.5q27 -1 26 -4q-6 -2 -16 -21.5t-10 -41.5q0 -42 34 -61t74 -19q42 0 100.5 29t117.5 75.5t101.5 84.5t78.5 73q-100 69 -140.5 89t-74.5 22q-29 0 -51.5 -15.5t-26.5 -40.5q0 -16 6.5 -27.5t12.5 -14.5l7 -3q-33 -45 -90 -45 q-44 0 -78 29.5t-34 77.5q0 66 54.5 108.5t125.5 42.5q118 0 244 -110q39 -36 88 -70q23 22 52 47t52.5 45t61.5 50t58.5 45.5t64.5 48.5t57.5 43t61.5 45t53 39q64 47 141.5 93.5t123.5 69.5l46 23q-47 -6 -84 -6q-88 0 -238 43q-72 20 -133 20q-62 0 -103 -25.5t-44 -76.5 q0 -30 18.5 -48t54.5 -18q15 0 23 2q-27 -62 -74.5 -93t-103.5 -31q-74 0 -128 49.5t-54 130.5q0 93 88.5 160t220.5 67q108 0 217 -53q156 -76 303 -76q76 0 140 17.5t113 39t75 25.5q8 0 14 -6q2 -2 2 -6q0 -18 -35 -43q-85 -70 -175.5 -177.5t-166.5 -223.5t-125.5 -199 t-91.5 -160q55 4 96.5 17.5t66 26t36.5 13.5q14 0 14 -16q0 -4 -2 -9t-4 -7l-2 -3q-73 -58 -225 -61l-13 -27q-53 -93 -53 -163q0 -29 17.5 -49.5t48.5 -20.5q42 0 94 38t84 76l31 37h26q-26 -45 -81 -117t-96 -122l-42 -49q-137 -158 -274 -158q-70 0 -120 49t-50 125 q0 78 49 167.5t159 231.5q-43 7 -106 25q-33 -39 -91 -111t-61 -75q-148 -184 -206 -243q-127 -131 -251 -159q-41 -10 -85 -10q-121 0 -205 71.5t-84 196.5zM1059 596q67 -23 100 -31q24 34 62 78q93 116 233.5 267.5t235.5 245.5l94 93q-324 -174 -725 -653z" />
<glyph unicode="B" horiz-adv-x="1544" d="M23 209q0 47 9.5 88.5t25 71t36.5 54t43.5 41t45 28.5t43.5 19t36.5 11t25.5 5l9 1q-18 -30 -18 -65q1 -39 34.5 -62.5t77.5 -23.5q60 0 160 82q69 56 301 280q86 82 175.5 155.5t149.5 116.5t122 81t79.5 47.5t34.5 17.5q12 4 19 4q9 0 14.5 -5t5.5 -11q0 -14 -12 -23 q-228 -132 -686 -813q-42 -63 -68 -99.5t-73 -90.5t-88 -83.5t-99 -52t-119 -22.5q-131 0 -207.5 74.5t-76.5 173.5zM483 979q0 119 89.5 219t218.5 160q233 110 512 110q78 0 154 -10t156 -37t140 -68t98.5 -108.5t38.5 -152.5q0 -91 -38.5 -167.5t-100.5 -127.5 t-142 -87.5t-162 -52.5t-161 -16q80 -21 125 -92t45 -160q0 -95 -54.5 -192.5t-148.5 -163.5t-196 -66q-63 0 -112 21t-76 54t-40.5 68t-13.5 68q0 85 59.5 150t145.5 65q66 0 102 -41q-18 -3 -30.5 -19.5t-12.5 -37.5q0 -31 25.5 -49.5t58.5 -18.5q56 0 118 57.5t62 153.5 q0 45 -18 80.5t-41.5 54.5t-57 32.5t-52 17t-39.5 6.5q-33 5 -33 33q0 24 26 24q86 4 177 38.5t168 91t126.5 141t49.5 178.5q0 64 -28.5 112.5t-70 75t-99 43t-104.5 21t-98 4.5q-116 0 -213.5 -38t-156.5 -83q-121 -96 -121 -185q0 -33 17.5 -57t49.5 -24q27 0 47 6.5 t26 13.5l7 6q-1 -10 -4.5 -25.5t-20.5 -56t-40.5 -71.5t-69 -56.5t-102.5 -25.5q-78 0 -131.5 52t-53.5 132z" />
<glyph unicode="C" horiz-adv-x="1064" d="M31 1233q0 103 70 174.5t180 71.5q130 0 192 -84q-77 -2 -130.5 -51.5t-53.5 -124.5q0 -138 162 -215q56 52 147 120q131 100 268 172.5t248.5 107t192.5 49.5t141 15q154 0 154 -90q0 -87 -140 -201t-335.5 -197t-348.5 -91q-23 -2 -84 -2q-239 -282 -239 -537 q0 -73 48 -129.5t132 -56.5q89 0 176.5 68.5t146.5 160.5q84 131 84 213q0 96 -81 101q-71 0 -133.5 -56.5t-94.5 -122.5q-18 -37 -18 -65q0 -13 7.5 -26t20.5 -13q3 0 21 6q-1 -3 -2.5 -8.5t-7.5 -19t-13.5 -24t-21.5 -19t-31 -9.5q-41 0 -59.5 22.5t-18.5 55.5 q0 68 57 147t141 132t157 53q55 0 94 -38t39 -104q0 -84 -43 -182.5t-116.5 -188t-163 -163.5t-192 -118t-194.5 -44q-148 0 -240 104t-92 261q0 294 310 633q-336 81 -336 313zM741 940q255 0 555 184q46 28 92 61t93 83t47 86q0 39 -62 39q-107 0 -307 -116.5t-362 -279.5 z" />
<glyph unicode="D" horiz-adv-x="1619" d="M-80 205q0 112 78.5 186.5t191.5 87.5q-18 -18 -18 -59q0 -35 28 -55.5t66 -20.5q34 1 69 14.5t74.5 42.5t65.5 51.5t70 63.5q178 166 266 235q259 202 475 214q49 0 49 -23q-2 -12 -22 -12q-71 0 -172 -65.5t-199 -159.5q-79 -76 -179 -199t-193 -242.5t-142 -171.5 q-120 -127 -258 -127q-101 0 -175.5 69t-74.5 171zM311 819q0 87 41.5 173.5t111.5 157.5t163 132.5t193.5 104t204.5 66.5t196 24q276 0 422.5 -139t146.5 -380q0 -101 -37 -216.5t-100.5 -226t-154 -212.5t-191 -179t-217 -123t-228.5 -46q-51 0 -98 11.5t-88 36 t-65.5 68.5t-24.5 103q0 78 50 140.5t132 62.5q47 0 83 -27t36 -76q0 -56 -32.5 -84t-82.5 -28q0 6 -1.5 13t-5.5 18t-15.5 17.5t-28.5 6.5q-29 0 -44 -19.5t-15 -45.5q0 -56 48.5 -88.5t100.5 -32.5q90 0 185.5 49.5t178.5 130.5t158 187t128 216t84.5 220t31.5 198 q0 86 -33.5 154.5t-88.5 109.5t-120.5 62.5t-134.5 21.5q-90 0 -172.5 -21.5t-141.5 -55.5t-106 -76.5t-74 -83.5t-38 -78t-11 -66q0 -37 22 -63.5t58 -26.5q50 0 70 33q-10 -126 -103 -220.5t-200 -94.5q-79 0 -136 55.5t-57 136.5z" />
<glyph unicode="E" horiz-adv-x="1122" d="M25 193q0 93 42 180.5t113 156t160.5 127t190 101t196 70.5t182.5 42q-168 18 -209 107q-58 0 -121.5 9.5t-131.5 31t-112 65.5t-44 105q0 60 42 97.5t99 37.5q53 0 92 -33q-34 -7 -52.5 -33t-18.5 -57q0 -58 67.5 -109t173.5 -71q6 65 46 119.5t103 91.5t138 65 t156.5 43.5t152 23t131.5 7.5q197 0 197 -84q0 -54 -57 -108q-77 -69 -247.5 -124t-324.5 -75q10 -23 39.5 -45t61.5 -33q17 -6 34 -9.5t25 -3.5l8 -1q17 -1 17 -17q0 -7 -4 -11t-12.5 -6t-15.5 -3t-20 -2t-20 -2q-76 -10 -159 -34.5t-169.5 -69t-154.5 -100.5t-111 -135 t-43 -167q0 -70 50.5 -108.5t119.5 -38.5q71 0 158 41t159.5 103t122 140.5t49.5 147.5q0 27 -18.5 44t-52.5 17q-75 0 -165.5 -62.5t-90.5 -131.5q0 -13 7.5 -22t18.5 -9t21 10q-3 -37 -25.5 -64.5t-64.5 -27.5q-30 0 -51 19.5t-21 52.5q0 71 64 138.5t150 105.5t159 38 q54 0 89.5 -29.5t35.5 -97.5q0 -44 -18.5 -97.5t-37.5 -85.5l-18 -32q-62 -98 -134.5 -178t-136.5 -130t-133 -87t-119 -54.5t-99.5 -28t-69.5 -12t-35 -1.5q-72 0 -134 16.5t-112.5 50.5t-79 92t-28.5 134zM983 1020q83 8 178 32t149 44l54 20q75 31 122 63t60 50.5 t13 32.5q0 34 -72 34q-102 0 -254 -61q-40 -17 -91 -45.5t-105 -78t-54 -91.5z" />
<glyph unicode="F" horiz-adv-x="1265" d="M29 238q0 137 87.5 221.5t231.5 93.5q-24 -33 -24 -72q0 -41 34.5 -68.5t79.5 -27.5q57 0 126 37.5t136 103.5q35 35 170 185q-12 0 -36 1t-37 1q-37 0 -72.5 -3t-78.5 -18.5t-48 -42.5q0 -14 11.5 -21t25.5 -7q-22 -64 -92 -64q-82 4 -82 70q0 46 37.5 77.5t89.5 43.5 t114 12q32 0 68.5 -2.5t76.5 -7t56 -5.5q296 328 447 447l-7 6q-105 85 -193.5 130.5t-199.5 45.5q-107 0 -199 -58t-92 -134q0 -36 25 -55t61 -19q49 0 84 27q-8 -98 -80.5 -174t-173.5 -76q-83 0 -142.5 47.5t-59.5 130.5q0 79 39.5 145.5t102 110t142.5 74t159 44 t153 13.5q86 0 172 -17.5t154 -42t130 -49t123.5 -42t112.5 -17.5q44 0 81.5 23t37.5 69q0 18 -15 33q83 0 125.5 -42.5t42.5 -107.5q0 -100 -67.5 -163.5t-163.5 -63.5q-83 0 -151.5 29.5t-153.5 95.5q-60 -73 -122 -157.5t-114.5 -161.5t-60.5 -88q95 7 181.5 27t136 36 t61.5 16t20 -9t8 -21q0 -19 -26 -33q-128 -72 -189 -137t-61 -107q0 -41 67 -41q-13 -38 -48.5 -62t-73.5 -24q-33 0 -57.5 23t-24.5 57q0 35 28.5 76t67.5 74t83.5 63.5t73 46.5t39.5 21q-182 -47 -317 -54q-47 -71 -107.5 -173.5t-100 -169.5t-96 -141.5t-112.5 -125.5 q-146 -129 -313 -129q-123 0 -217 76.5t-94 200.5z" />
<glyph unicode="G" horiz-adv-x="1521" d="M18 641q0 85 59.5 132.5t131.5 47.5q34 0 55 -8q-3 -1 -7.5 -3t-17 -10.5t-22 -20.5t-17 -34t-7.5 -49q3 -36 19 -62.5t43.5 -42t54.5 -24t63 -14.5q66 145 200.5 296t333.5 292q207 147 403.5 246.5t325 137.5t215.5 38q54 0 95 -27.5t41 -85.5q0 -98 -141.5 -252 t-336 -294.5t-405.5 -252t-344 -133.5q0 -58 38 -86.5t99 -28.5q76 0 148.5 36t154.5 100q42 32 110 95.5t116 111.5l47 47q74 -19 126 -19q40 0 76 7t52 15l16 7l-613 -797q93 -13 151 -48.5t58 -88.5q0 -88 -102 -94q-15 0 -27 2.5t-26.5 7.5t-20.5 6q41 11 41 68 q0 40 -33 62.5t-81 29.5l-35 -45q-41 -61 -99.5 -124.5t-130.5 -122t-155.5 -95.5t-157.5 -37q-79 0 -116.5 31t-37.5 80q0 64 52 125.5t131 106t156 74.5t143 46q35 8 55 10l399 557q-103 -108 -165 -171.5t-132 -129t-116.5 -98.5t-100 -62t-100.5 -39t-102 -10 q-71 0 -131.5 33t-92.5 90q-37 64 -37 152q0 43 11 118q-46 0 -95 10t-100 31t-83 62.5t-32 97.5zM418 -360q0 -12 9.5 -18.5t23.5 -6.5q53 0 110 30.5t112.5 86t93.5 101t83 106.5q-165 -39 -298.5 -130.5t-133.5 -168.5zM770 582q104 20 288.5 121t360.5 227t306 262.5 t130 218.5q0 39 -47 39q-48 0 -132.5 -35t-153.5 -74q-143 -79 -264.5 -170t-203 -171.5t-143.5 -162t-94 -143t-47 -112.5z" />
<glyph unicode="H" horiz-adv-x="1677" d="M18 238q0 117 82.5 202.5t202.5 85.5q37 0 70 -8q-4 -1 -10.5 -4t-17.5 -20t-11 -43q0 -37 35 -56.5t71 -19.5q57 1 103 23.5t118.5 91.5t192.5 210q-112 35 -168 35q-36 0 -64 -13.5t-28 -37.5q0 -22 12.5 -29.5t36.5 -7.5q-6 -43 -39 -66.5t-76 -23.5q-46 0 -81 25.5 t-35 70.5q0 68 60.5 106t143.5 40q47 0 98 -12t173 -48q71 86 154 170.5t149.5 143.5t128 108.5t93.5 73t42 29.5q-61 -17 -139 -17q-29 0 -103 9.5t-116 9.5q-26 0 -50.5 -6t-45 -24.5t-21.5 -45.5q0 -19 15 -34t36 -15q24 0 45 18q-6 -96 -70 -149.5t-147 -53.5 q-76 0 -135 44t-59 122q0 74 46.5 127.5t113 77t141.5 23.5q83 0 206 -31t187 -31q80 0 148.5 21.5t107 43t45.5 21.5q5 0 10.5 -4.5t5.5 -11.5q0 -9 -6 -15q-286 -239 -557 -643q35 -2 117 -2q42 0 114 7q87 118 205 245q215 232 411.5 365t301.5 133q24 0 40.5 -15 t16.5 -40q0 -69 -98 -197q-120 -155 -273.5 -276t-332.5 -189q-101 -148 -150 -250q-53 -110 -53 -172q0 -29 16 -50t46 -21q95 0 219 159h34q-139 -194 -214 -275q-152 -165 -269 -165q-72 0 -118 49.5t-46 132.5q0 92 60 227.5t172 292.5q-55 -6 -113 -6q-56 0 -115 6 q-39 -61 -135 -215q-45 -71 -73.5 -113.5t-71.5 -102t-76 -95t-77.5 -76t-86 -62t-92 -36t-104.5 -14.5q-87 0 -156 26.5t-110 69.5t-62 93.5t-21 103.5zM1653 786q127 69 211 133t166 144q47 45 135 152.5t88 138.5q0 10 -15 10q-46 0 -235 -174q-188 -178 -350 -404z" />
<glyph unicode="I" horiz-adv-x="972" d="M18 254q0 116 78.5 209t204.5 102q21 0 31 -2q-21 -35 -21 -65q2 -46 34 -71.5t93 -25.5q67 0 143.5 53t147.5 146q-147 91 -147 268q0 52 20 102t47 84.5t63 66.5t59.5 47.5t45.5 27.5q114 64 455 131q221 42 321 111q20 12 29 12q11 0 19 -7t8 -18q0 -14 -33 -34 q-58 -36 -131.5 -113t-141.5 -172q-176 -245 -257 -369t-147.5 -240.5t-131.5 -220.5q-60 -95 -125.5 -163t-126.5 -102t-112.5 -49t-102.5 -15q-127 0 -224.5 83.5t-97.5 223.5zM692 801q0 -42 17 -87t51 -75q18 20 66 77.5t83 98.5q73 87 112.5 132.5t106 117t130 128.5 t133.5 110l20 18q-23 -14 -78 -33t-118.5 -40t-137.5 -48.5t-141 -65t-122.5 -83.5t-88.5 -110.5t-33 -139.5z" />
<glyph unicode="J" horiz-adv-x="1107" d="M23 240q0 112 58 212.5t157 162t213 61.5q78 0 137 -41.5t59 -122.5q0 -46 -34 -91.5t-89 -45.5q-32 0 -49.5 18t-17.5 43q0 21 13 39t32 19q2 -15 18 -15q45 0 45 47q0 30 -21 54t-77 24q-69 0 -118.5 -53t-49.5 -125q0 -77 53.5 -118.5t110.5 -41.5q38 0 74.5 9.5 t71 30t62.5 41t63 56t57.5 60t60.5 67.5t59 66q223 244 364 382t300 261q-38 -25 -120.5 -42t-167 -29t-166 -31.5t-134.5 -60.5t-55 -105q2 -25 16 -42.5t35 -17.5q31 0 55 19q-2 -9 -5.5 -23.5t-20 -51.5t-38.5 -65.5t-63.5 -51.5t-91.5 -23q-75 0 -131.5 48.5 t-56.5 129.5q0 70 36.5 126.5t93.5 92.5t133 61.5t148.5 37t145.5 14.5q263 12 483 92q27 13 47 29q11 8 21 8q14 0 14 -13q0 -11 -20 -28t-53 -51t-96.5 -104.5t-151 -186.5t-177.5 -254q-37 -57 -92 -145.5t-92.5 -149.5t-91 -140t-97 -133t-100.5 -110.5t-110 -90.5 t-118 -55.5t-132 -21.5q-78 0 -150.5 27.5t-127.5 75.5t-88 117.5t-33 148.5z" />
<glyph unicode="K" horiz-adv-x="1683" d="M37 317q0 111 54.5 213t152.5 166t213 64q83 0 145 -42.5t62 -125.5q0 -61 -38.5 -107.5t-86.5 -46.5q-22 0 -38 6.5t-23.5 16t-11.5 19t-4 16.5l-1 6q0 22 14 43.5t37 21.5q0 -16 27 -16q14 0 24 17t10 34q0 35 -26.5 55.5t-71.5 20.5q-68 0 -113 -48.5t-45 -121.5 t53.5 -116.5t129.5 -43.5q45 0 99 25.5t97 57.5t100.5 89.5t88.5 92t82 94.5q8 9 12 14q117 135 247 258.5t211 189t191 148.5q-84 -41 -159 -58t-156.5 -24t-124.5 -16q-29 -6 -55.5 -14t-60 -23.5t-57.5 -33.5t-40.5 -45t-16.5 -59q1 -27 21.5 -43t46.5 -16q25 0 47 19 q-9 -55 -31.5 -95.5t-46.5 -61.5t-53.5 -33.5t-47 -15.5t-32.5 -3q-84 0 -139 54t-55 136q0 73 37.5 132.5t96 95.5t135 60.5t148 34t140.5 9.5q403 0 538 96q12 12 25 12q8 0 13 -5.5t5 -12.5q0 -9 -16 -25q-145 -110 -319.5 -328.5t-335.5 -469.5q-153 -239 -240 -345 q-213 -261 -423 -285q-23 -3 -46 -3q-159 0 -274 102.5t-115 263.5zM1087 133q0 74 31.5 141t76 117.5t89 96.5t76 97t31.5 101q0 55 -60 55q-10 0 -21 -1t-14 -1q-16 0 -16 13q0 8 6 13t13 6t16 2t10 1q72 9 149 51.5t145.5 102t138.5 130t138 139.5t133 125t134.5 91 t132.5 35q48 0 85.5 -27t37.5 -92q0 -75 -77.5 -134.5t-160.5 -59.5q-33 2 -49 8q14 14 14 35q-1 12 -13 19t-26 7q-49 0 -168 -96q-161 -131 -253.5 -198t-144.5 -93.5t-120 -46.5q27 6 52 6q55 0 100 -33.5t45 -89.5q0 -41 -19 -88t-42.5 -83t-42.5 -83t-19 -88 q0 -59 55 -59q56 0 103 43h10q-15 -42 -54 -97.5t-93 -110t-126 -91.5t-141 -37q-74 0 -118 50t-44 124z" />
<glyph unicode="L" horiz-adv-x="1314" d="M20 121q0 54 36.5 97t93.5 68t119 37.5t120 12.5q116 0 232 -29q78 106 131 215q-57 3 -112 13t-114 31.5t-103 52t-72.5 79t-28.5 109.5q0 114 85.5 189t202.5 75q110 0 170 -53q-80 -11 -134 -62.5t-54 -132.5q0 -77 58.5 -128t146.5 -74q115 231 278 403 q92 97 181 174.5t158 126.5t136.5 85t112.5 53t90.5 27t65.5 11.5t41 1.5q47 0 81.5 -31.5t34.5 -80.5q0 -107 -127 -281q-110 -149 -287 -288t-395 -224q-142 -230 -329 -373q8 -3 31.5 -13.5t32.5 -14t29.5 -12t31 -12t28 -9t29.5 -8t27 -4.5t28 -2q36 0 65.5 15t41.5 29 l12 15q10 -27 10 -47q0 -59 -40.5 -103t-96.5 -64t-115 -20q-157 0 -327 119q-122 -68 -206.5 -93.5t-178.5 -25.5q-38 0 -73 6.5t-70 22t-56 45.5t-21 72zM88 106q0 -37 36.5 -53t82.5 -16q143 0 287 131q-113 53 -209 53q-77 0 -136.5 -31t-60.5 -84zM1210 678 q82 37 188 109.5t210 163.5t184.5 198t99.5 197q4 20 4 28q0 45 -41 47q-73 -5 -198 -130.5t-241 -289.5t-206 -323z" />
<glyph unicode="M" horiz-adv-x="2148" d="M33 258q0 138 95 230t232 92q51 0 76 -15q-55 -12 -55 -73q0 -34 33 -58t82 -24t108 25.5t96.5 51.5t90.5 68q104 82 286.5 237.5t337.5 279t301 220.5q-168 -75 -334 -75q-29 0 -93 4t-101 4q-41 0 -77.5 -7t-68.5 -32.5t-32 -67.5q0 -37 19.5 -54t49.5 -17q33 0 33 12 q0 -104 -79.5 -175t-188.5 -71q-91 0 -156 61t-65 156q0 124 115 210.5t325 86.5q62 0 191.5 -14.5t201.5 -14.5q95 0 178 13.5t120.5 26.5t60.5 26q20 12 38 12q23 0 23 -24q0 -17 -18 -35q-42 -37 -75 -93t-49 -99t-41 -120.5t-38 -113.5q-103 -274 -146 -330 q215 202 285 268q2 2 48 45t93.5 86t112.5 99.5t134.5 112t129.5 96.5q189 135 295 135q119 0 119 -88q0 -35 -26.5 -57.5t-65.5 -22.5q-17 0 -32 5t-22 10l-6 5q27 11 27 31q0 27 -37 27q-36 -1 -88 -39t-102 -94t-88 -103.5t-60 -81.5q-20 -29 -58.5 -95t-90.5 -164 t-89.5 -197t-37.5 -158q0 -33 15.5 -59.5t53.5 -26.5q18 0 37 7t32.5 17.5t24.5 21t17.5 17.5t7.5 7h10q-33 -65 -73.5 -126.5t-99 -129t-131 -109t-146.5 -41.5q-65 0 -108.5 44t-43.5 114q0 75 61.5 198t147 243t186 244.5t166.5 199t101 110.5q-67 -45 -230 -201.5 t-368 -390.5q-80 -93 -151.5 -168.5t-124.5 -125t-94.5 -85.5t-73.5 -56.5t-50 -31.5t-35 -18t-18 -8q-23 -13 -39 -13q-12 0 -12 17q0 12 8 28q33 71 52.5 151t31.5 148t32.5 144t69 168.5t127.5 191.5q44 55 116 136.5t81 93.5q-131 -103 -257 -244.5t-286 -362.5 q-35 -49 -54.5 -76t-58 -76.5t-64.5 -79t-66.5 -73t-72.5 -70t-75 -57t-81.5 -47t-83.5 -28t-89 -11.5q-126 0 -217.5 82t-91.5 209z" />
<glyph unicode="N" horiz-adv-x="1687" d="M29 168q0 87 47.5 152t120.5 96.5t159 32.5q-32 -24 -32 -66q0 -37 25.5 -61.5t72.5 -24.5q58 0 133.5 41.5t144 99t157 150.5t148.5 163t142 169q235 281 393 428q-114 -80 -270 -80q-35 0 -92.5 5t-81.5 5q-72 0 -122 -33.5t-50 -85.5q0 -35 25 -50t48 -15l9 2 q-2 -21 -11 -48t-28.5 -59.5t-46 -58.5t-68 -44t-90.5 -18q-88 0 -146.5 53t-58.5 144q0 63 28.5 115.5t74 87t105 58t120 34t119.5 10.5q56 0 172 -13.5t180 -13.5q178 0 250 62q14 14 24 14q17 0 17 -14q0 -4 -2.5 -8t-4.5 -6l-2 -2q-1 -2 -20.5 -24.5t-34.5 -45.5 t-29 -75.5t-14 -117.5q0 -55 15.5 -164.5t15.5 -168.5q0 -145 -66 -396q3 4 32.5 54t76.5 127.5t104 167t129.5 191.5t139.5 183q134 165 213 249.5t159 137.5q130 84 236 84q39 0 72.5 -8t63.5 -25.5t47.5 -50t17.5 -77.5q0 -85 -65 -148t-155 -63q-7 0 -43 6q17 0 27 20 t10 43q0 29 -26.5 49.5t-73.5 20.5q-69 0 -149.5 -46t-158.5 -121.5t-161.5 -176.5t-157 -206.5t-147.5 -215.5t-131 -200.5t-108 -164.5t-79 -104l-34 -45q-33 -44 -63.5 -76.5t-45.5 -32.5q-16 0 -16 15q0 6 4 14t10 16.5t8 12.5q37 70 37 149q-1 66 -39.5 200.5 t-38.5 213.5q0 141 50.5 272t142.5 273q-87 -86 -175 -205t-152 -224.5t-158.5 -257.5t-172.5 -264q-80 -113 -187 -191.5t-226 -78.5q-132 0 -212.5 74.5t-80.5 179.5z" />
<glyph unicode="O" horiz-adv-x="1081" d="M-68 285q0 132 51 274t137 268t202.5 240t244 196t266 130.5t263.5 48.5q58 0 106.5 -13t63 -21.5t39.5 -25.5q20 -14 20 -28q0 -7 -6 -15t-14 -8q-10 0 -19 6q-53 35 -125 35q-137 0 -283.5 -89t-257.5 -222t-183 -294t-72 -300q0 -99 47 -154t125 -55q114 0 242.5 91.5 t228 223.5t165.5 285.5t66 271.5q0 45 -26 77t-74 32q-100 0 -183.5 -83t-83.5 -175q0 -68 62 -68q11 0 23 2.5t18 4.5l6 2q-14 -50 -47.5 -100.5t-86 -88t-106.5 -37.5q-63 0 -98 43t-35 105q0 74 50.5 160.5t125.5 155.5t166.5 115t169.5 46q195 0 195 -203 q0 -126 -92 -332q-44 -97 -116.5 -209.5t-171 -226.5t-205 -206.5t-227 -151t-227.5 -58.5q-152 0 -248 96.5t-96 254.5z" />
<glyph unicode="P" horiz-adv-x="1396" d="M14 246q0 112 76.5 192t188.5 94q-19 -19 -21 -49q0 -43 32 -69.5t77 -26.5q40 0 79 19t91.5 68t99.5 100t137 148.5t172 180.5q94 95 174 164t126.5 100t79.5 49t46 20l12 1q11 0 17 -6q2 -2 2 -6t-3.5 -8.5t-9.5 -8.5t-8 -6q-141 -118 -316.5 -366t-311.5 -500 q-202 -373 -459 -373q-114 0 -197.5 82.5t-83.5 200.5zM352 926q0 71 29 136t79.5 116t117 95t142 75.5t154.5 53.5t154 33t141 11q77 0 155.5 -15t155.5 -48t137 -80.5t97 -119t37 -157.5q0 -94 -44 -178.5t-116.5 -146.5t-164 -107.5t-189 -68.5t-188.5 -23 q-113 0 -113 37q2 18 49 18q110 8 203.5 49t154 98t103.5 125t61.5 129t18.5 111q0 48 -12 92t-39.5 85t-68.5 71.5t-102.5 48.5t-136.5 18q-129 0 -256.5 -49.5t-208 -128t-81.5 -157.5q0 -84 92 -84q16 0 30.5 4.5t20.5 8.5l6 5q-18 -121 -81 -181.5t-142 -60.5t-137 51 t-58 134z" />
<glyph unicode="Q" horiz-adv-x="1333" d="M35 147q0 113 115 179q50 29 115 45t122 16q134 0 301 -65q276 200 447 387q116 126 199 280.5t83 265.5q0 73 -39 111.5t-139 38.5q-131 0 -275 -66.5t-243.5 -176t-99.5 -220.5q0 -65 43 -104t106 -39q34 0 74 16q-2 -7 -6 -18t-20 -43.5t-35 -62t-52.5 -65.5 t-71.5 -62t-92.5 -44t-115.5 -18q-119 0 -185.5 63.5t-66.5 163.5q0 102 51 203t135 183.5t194.5 154.5t229 120.5t238 76.5t221.5 28q154 0 262 -57q164 -86 164 -277q0 -23 -3 -48.5t-20.5 -82t-47.5 -114t-92 -140t-145.5 -164.5t-216 -184t-295.5 -201q53 -29 83 -43.5 t74.5 -29.5t78.5 -15q29 0 59 12t43 31h11q0 -96 -63.5 -161.5t-166.5 -65.5q-51 0 -104 15t-93.5 36.5t-73 43t-53 37t-22.5 15.5t-23.5 -11t-57.5 -27.5t-78.5 -33.5t-97 -28.5t-103.5 -11.5q-97 0 -174.5 42t-77.5 115zM102 143q0 -38 43.5 -56.5t92.5 -18.5q63 0 133 33 t109 65l38 33q-11 8 -30.5 19t-81 29.5t-125.5 18.5q-67 0 -123 -32.5t-56 -90.5z" />
<glyph unicode="R" horiz-adv-x="1564" d="M29 233q0 53 15 98.5t39.5 76.5t54 55.5t59 38.5t54 23.5t39.5 12.5l15 3q-18 -18 -18 -47q0 -44 29 -73.5t71 -29.5q37 0 74.5 15.5t71.5 40.5t85 74.5t96.5 97t126.5 131t154 155.5q97 96 179 166.5t130 102.5t82 50.5t47 20.5l13 2q12 0 18 -6q2 -2 2 -6q0 -7 -22 -23 q-147 -121 -330 -371t-317 -495q-205 -379 -461 -379q-128 0 -217.5 74t-89.5 192zM440 948q0 71 29 136t79.5 116t117 95t142 75.5t154.5 53.5t154 33t141 11q63 0 126 -7t133.5 -22.5t131 -44.5t110 -69t78 -100.5t28.5 -134.5q0 -78 -32 -144.5t-84 -112.5t-124 -82 t-145 -57.5t-154 -34.5q74 -35 74 -106q0 -47 -33.5 -138t-34.5 -139q0 -26 16.5 -42.5t47.5 -16.5q24 0 49.5 10.5t39.5 20.5l13 10q-27 -56 -62 -106t-82.5 -95.5t-108.5 -72.5t-128 -27q-72 0 -117 45.5t-45 118.5q0 56 25 110.5t61 97.5t72 83.5t61 84.5t25 85 q0 55 -76 69q-35 8 -35 29q0 12 7.5 16t27.5 6q95 7 178 39.5t140.5 79.5t99 103.5t61 111.5t19.5 103q0 113 -103.5 187.5t-285.5 74.5q-129 0 -250.5 -48.5t-196 -125t-75.5 -156.5q0 -84 92 -84q16 0 30.5 4.5t20.5 9.5l6 5q-18 -121 -81 -181.5t-142 -60.5t-137 50.5 t-58 133.5z" />
<glyph unicode="S" horiz-adv-x="1251" d="M31 340q0 136 69.5 261.5t193 204.5t267.5 79q72 0 127.5 -19.5t85 -46.5t48.5 -62t24.5 -60.5t5.5 -47.5q0 -91 -65.5 -155t-161.5 -64q-48 0 -83 16t-46 32l-11 16q5 3 12.5 8t20 24.5t12.5 42.5q0 33 -33 53.5t-73 20.5q-78 0 -143.5 -51.5t-99.5 -128t-34 -154.5 q0 -131 95 -228t231 -97q131 0 236.5 75.5t162 195t56.5 255.5q0 74 -13.5 200t-13.5 183q0 103 30.5 193.5t110.5 185.5q85 96 193 139t211 43q58 0 102.5 -14t68.5 -34t40.5 -40.5t30.5 -34.5t28 -14q20 0 39.5 14.5t28.5 28.5l10 14l37 -18l-252 -350l-33 22l6 8 q78 124 78 203q0 65 -44.5 104t-112.5 39q-43 0 -95.5 -29t-81.5 -63q-77 -92 -77 -237q0 -63 17 -201.5t17 -218.5q0 -142 -64.5 -275.5t-170.5 -230.5t-247 -156t-288 -59q-120 0 -222.5 52.5t-166 151.5t-63.5 224z" />
<glyph unicode="T" horiz-adv-x="1126" d="M49 287q0 105 50 202t142.5 159.5t202.5 62.5q77 0 136 -39.5t59 -118.5q0 -46 -31 -90t-88 -45q-32 0 -49.5 17.5t-17.5 43.5q0 21 12.5 38t30.5 18q2 -15 16 -15q45 0 45 47q0 29 -21.5 53.5t-74.5 24.5q-70 -1 -116 -54.5t-46 -125.5q0 -75 50.5 -115.5t105.5 -40.5 q126 0 243 117q82 84 306.5 327t427.5 433q-78 49 -176 76.5t-187 27.5q-118 0 -189 -56.5t-71 -137.5q0 -33 10.5 -56t28.5 -34.5t35.5 -16t36.5 -4.5l45 6q-29 -85 -96 -137.5t-146 -52.5q-95 0 -165.5 66.5t-70.5 164.5q0 87 45.5 156.5t118.5 109.5t156.5 61t167.5 21 t159.5 -12t141.5 -35.5t110.5 -44t104.5 -53.5q64 49 86 63.5t33 14.5q9 0 17.5 -6.5t8.5 -16.5t-12 -22l-68 -68q157 -84 275 -84q35 0 65.5 20.5t30.5 55.5q0 12 -5 23t-10 17l-5 5q24 4 37 4q51 0 77.5 -32.5t26.5 -75.5q0 -66 -61 -114t-132 -48q-124 0 -356 166 q-129 -155 -274 -381q-25 -39 -67 -110t-76.5 -131t-84.5 -136.5t-95.5 -137.5t-104.5 -122.5t-116.5 -102.5t-127 -66.5t-139.5 -25.5q-150 0 -257.5 105t-107.5 258z" />
<glyph unicode="U" horiz-adv-x="1353" d="M35 184q0 62 15.5 120t39.5 104.5t65 95t78.5 83.5t95 78.5t99 71t106 71t101.5 69.5q323 223 323 397q0 42 -32 64t-78 22q-92 0 -187.5 -55.5t-95.5 -122.5q0 -24 14 -41t35 -17q26 0 41 15q-6 -93 -66 -158.5t-149 -65.5q-66 0 -107.5 38.5t-41.5 101.5 q0 81 57.5 153.5t143 118t178.5 72t170 26.5q82 0 139 -39t57 -126q0 -50 -21 -107t-47.5 -102.5t-74 -104t-78 -92t-80.5 -86.5q-6 -6 -43.5 -44t-49.5 -52t-43.5 -50t-45 -59t-32 -56t-25.5 -64.5t-7 -63.5q0 -36 22.5 -61t55.5 -25t79.5 27.5t90.5 69.5t73.5 73t49.5 55 q119 138 354.5 436.5t309.5 386.5q40 -8 61 -8q77 0 215 49q-192 -188 -364 -436t-228 -377q-57 -124 -57 -192q0 -37 17 -60t51 -24q27 0 51 14q51 27 104 107h33q-1 -1 -33 -52t-89 -130.5t-111 -139.5q-132 -147 -246 -147q-72 0 -121 47.5t-49 116.5q0 51 18 113 t44 114.5t52 97.5t44 70l18 26q-27 -31 -85.5 -116t-116.5 -162t-129.5 -157t-150.5 -128.5t-153 -48.5q-117 0 -190.5 73t-73.5 193z" />
<glyph unicode="V" horiz-adv-x="1249" d="M-152 989q0 56 30.5 102.5t78.5 74.5t102 43.5t105 15.5q33 0 59 -7.5t35 -15.5l10 -8q-65 -8 -113.5 -65.5t-48.5 -129.5q0 -57 24.5 -98t67.5 -63.5t92 -32.5t107 -10q52 0 189 24q64 143 155 256q91 112 175.5 189.5t146.5 111t101 46t69 12.5q70 0 70 -70 q0 -96 -162 -268q-102 -108 -221 -185q-33 -115 -43 -260q-9 -138 -30 -239t-37 -132l-17 -32q13 10 36 29t93 80t140 125t166 160.5t181 191.5q74 83 123 179t49 187q0 38 -9 71t-33.5 58t-61.5 25l-33 -4q59 72 132.5 116.5t149.5 44.5t124 -45.5t48 -103.5 q0 -42 -17 -90.5t-52 -101t-67.5 -96t-85 -99t-83 -86.5t-82.5 -80.5t-63 -60.5q-252 -247 -574 -515t-458 -346q-17 -12 -31 -12q-7 0 -12.5 5t-5.5 11q0 4 3 9t7.5 9.5t5.5 6.5q62 82 82 184.5t20 235.5q0 214 72 412q-139 -33 -258 -33q-53 0 -111 8.5t-119.5 29t-110 51 t-79.5 78.5t-31 107zM944 987q94 76 199 199q96 115 96 172q0 22 -18 22q-32 0 -70 -43q-134 -148 -207 -350z" />
<glyph unicode="W" horiz-adv-x="1640" d="M-162 961q0 106 81 170.5t192 64.5q46 0 79.5 -13t45.5 -34q-71 -9 -109.5 -52t-38.5 -116q0 -70 69 -122t197 -52q85 0 142 14q78 179 209 330q70 81 193 168.5t208 87.5q33 0 48 -19t15 -45q0 -69 -105 -204t-267 -244q-15 -46 -25.5 -95.5t-15.5 -84t-14 -106 t-15 -115.5q-20 -139 -63 -211q2 1 22 17.5t51.5 41.5t71.5 57.5t91.5 75.5t100.5 86q74 374 324 621q203 200 320 200q29 0 47 -16t18 -47q0 -90 -95.5 -216.5t-258.5 -285.5q-16 -79 -19 -147q-4 -93 -22 -183.5t-30 -128.5l-17 -47q0 -2 74 62q78 67 200 188t215 234 q32 37 70.5 97.5t76.5 153.5t38 166q0 55 -23 94.5t-76 39.5l-28 -5q25 79 108 131t168 52q67 0 114.5 -43t47.5 -113q0 -85 -55 -194t-144.5 -218.5t-206.5 -228.5t-237.5 -223.5t-241 -203t-213.5 -169.5t-158 -120.5t-73 -57.5q-19 -19 -35 -19q-7 0 -14 6t-7 13 q0 12 15 27q18 26 32 51.5t23.5 55t15 50t9.5 55.5t5.5 50.5t3.5 55.5t3 52q2 41 10 119q-209 -200 -680 -543q-39 -28 -63 -28q-27 0 -27 18q0 7 6 17t12 17t17.5 19t13.5 15q51 59 72.5 130t31 182.5t15.5 145.5q27 157 80 301q-117 -30 -248 -30q-49 0 -98 7t-100.5 24.5 t-90 44.5t-63.5 71.5t-25 100.5zM823 971q72 59 145.5 140.5t108.5 145.5q25 37 25 62q0 16 -17 16q-27 0 -76.5 -56.5t-84.5 -109.5q-62 -90 -101 -198zM1382 920q108 113 174 202.5t82.5 126t16.5 56.5q0 16 -13 16q-20 0 -54.5 -34t-63.5 -75q-96 -139 -142 -292z" />
<glyph unicode="X" horiz-adv-x="1712" d="M33 168q0 67 51.5 113.5t122.5 46.5q78 0 121 -62q-22 -3 -32.5 -20.5t-10.5 -36.5q0 -31 37 -55.5t84 -24.5q150 0 373.5 156.5t414.5 388.5h-184l22 31h187q156 196 233 380q27 63 27 129q0 56 -36 88.5t-100 32.5q-63 0 -132.5 -30.5t-120 -86.5t-50.5 -118 q0 -32 20.5 -47t51.5 -15q26 0 64 15q-7 -34 -32.5 -76.5t-63.5 -83.5t-93 -68.5t-113 -27.5q-83 0 -142.5 47t-59.5 131q0 77 40.5 147.5t106 121.5t146 89t163 57t154.5 19q129 0 197 -37q133 -73 133 -258q0 -22 -3.5 -46.5t-7 -43t-12.5 -47t-13.5 -42t-16 -46.5 t-15.5 -43q47 60 73 92t84 99t99.5 107.5t104 94t114.5 84t114.5 52.5t119.5 22q72 0 129 -44.5t57 -117.5q0 -60 -39 -105t-102 -45q-64 0 -82 39q14 0 23.5 16.5t9.5 33.5q0 8 -3.5 17t-13 20.5t-32 18.5t-54.5 7q-46 0 -97 -20t-93 -46.5t-100 -78.5t-95 -89.5 t-102 -105.5q-99 -107 -150 -192h191l-23 -31h-184q-68 -126 -68 -240q0 -22 4 -43.5t15 -47.5t36 -42t62 -16q57 0 103 34t96 95h31q-47 -67 -89.5 -121t-108.5 -124.5t-128 -117.5t-139.5 -80.5t-151.5 -33.5q-87 0 -150 54t-63 142q0 125 96 303q-44 -46 -62 -65 t-66 -66.5t-75 -71t-76 -65t-84 -64.5t-84.5 -52t-91 -44t-90 -26t-94.5 -11q-47 0 -94.5 11t-90.5 33.5t-70 62t-27 90.5z" />
<glyph unicode="Y" horiz-adv-x="1159" d="M-256 -586q0 69 38 135.5t98.5 118t137 97t154 78t148 56t120.5 35t70 11.5q123 171 259 378l136 207q-34 -39 -96.5 -124t-115 -150t-121 -133.5t-147.5 -107t-161 -38.5q-103 0 -170 72.5t-67 179.5q0 84 28.5 157.5t79 131t113 107.5t138 96.5t144.5 88t143 91.5 t124 98q140 132 143 238q0 40 -33 61t-78 21q-58 0 -121.5 -22.5t-108 -61.5t-44.5 -80q0 -22 14 -37.5t35 -15.5q29 0 41 12q-6 -87 -66 -147t-149 -60q-66 0 -107.5 35.5t-41.5 93.5q0 77 57 145t141 111t174.5 67.5t163.5 24.5q209 0 209 -159q0 -48 -23.5 -104 t-51.5 -98.5t-83.5 -103.5t-84 -89.5t-89.5 -86.5q-43 -42 -60 -59t-54.5 -59.5t-54 -71t-31.5 -68.5t-15 -77q0 -34 23 -57t55 -23q33 0 77 23.5t86 59.5t68.5 62t47.5 49q282 322 645 783q31 -7 61 -7q48 0 109.5 11t98.5 21l38 11q-126 -143 -237 -282t-186.5 -240 t-164.5 -233.5t-135.5 -206t-137 -219.5t-134.5 -215q139 -17 212.5 -66t73.5 -112q0 -83 -75.5 -139t-169.5 -56q-52 0 -68 20q1 0 11 5t24.5 16.5t28.5 26.5t24 38.5t10 49.5q0 46 -27.5 86t-78.5 61q-146 -231 -352 -418q-94 -86 -215 -143t-240 -57q-81 0 -144 39.5 t-63 117.5zM-162 -565q0 -66 82 -66q44 0 92.5 19.5t90 49t88 76t81 87.5t75.5 97.5t65 92.5t55 84q-224 -59 -356 -135q-35 -21 -76 -51t-88 -72.5t-78 -91t-31 -90.5z" />
<glyph unicode="Z" horiz-adv-x="1259" d="M-385 -365q0 106 74.5 207.5t193.5 182.5q428 292 916 292q8 40 8 60q0 46 -32.5 65t-76.5 19q-34 0 -34 18q2 22 43 33q77 18 176 64.5t198 113.5t182.5 142.5t136 160t52.5 156.5q0 36 -27.5 55t-68.5 19q-69 0 -163 -41.5t-164.5 -106.5t-70.5 -123q0 -45 52 -45 q24 0 67 15q-27 -124 -124.5 -209.5t-221.5 -85.5q-69 0 -120.5 41t-51.5 116q0 170 213 318q129 89 294 141.5t288 52.5q139 0 209 -47q46 -31 72 -76.5t26 -95.5q0 -110 -65 -208.5t-177.5 -171.5t-259 -125t-315.5 -78q5 0 14 -2t32.5 -14.5t42.5 -31.5t37 -59.5 t23 -93.5q194 -45 240 -121q4 -8 4 -18q0 -15 -12 -15q-9 0 -36 16.5t-80 40.5t-118 37q-20 -177 -112 -337t-226 -273t-303 -179.5t-340 -66.5q-70 0 -136.5 14t-126 43t-96 81t-36.5 120zM-283 -346q0 -82 129 -82q159 0 351 96q110 56 206.5 130.5t167.5 153t122 154 t83 148.5q-91 -8 -150.5 -16.5t-158 -30.5t-202 -65t-212.5 -107q-88 -52 -153 -104.5t-99 -92t-54 -79t-25 -62t-5 -43.5z" />
<glyph unicode="[" horiz-adv-x="1046" d="M23 -156l1228 1696h469l-82 -88h-264l-1104 -1520h322l-82 -88h-487z" />
<glyph unicode="\" horiz-adv-x="1218" d="M455 1440h123l622 -1520h-125z" />
<glyph unicode="]" horiz-adv-x="1165" d="M-172 -156l82 88h264l1104 1520h-322l82 88h488l-1229 -1696h-469z" />
<glyph unicode="^" horiz-adv-x="1075" d="M205 733l719 420l106 -424h-106l-70 301l-514 -297h-135z" />
<glyph unicode="_" horiz-adv-x="3342" d="M55 -90h3212v-14q-42 -2 -115 -5.5t-288.5 -17t-417 -28.5t-457.5 -40t-455 -52t-366 -64.5t-232 -77.5q-16 10 -46 28t-124.5 63.5t-192.5 82.5t-240.5 70t-277.5 41v14z" />
<glyph unicode="`" horiz-adv-x="372" d="M20 1163q24 -6 89 -6q64 0 79 6l152 -237h-90q-220 233 -230 237z" />
<glyph unicode="a" horiz-adv-x="901" d="M-63 145q0 82 42.5 182t115 193.5t159.5 172.5t185 127t182 48q40 0 69 -24.5t29 -65.5q0 -22 -6 -43l55 82q33 -4 90 -4q72 0 148 8q-218 -341 -266 -423t-48 -115q0 -13 8.5 -24t22.5 -11q26 0 52.5 13.5t54.5 42.5t45.5 50.5t46.5 59.5h34q-70 -104 -112.5 -164 t-93.5 -122.5t-88.5 -93t-80 -50t-87.5 -19.5q-65 4 -96 43t-31 96q0 62 36 144q-9 -10 -46 -55.5t-62.5 -73t-64.5 -63.5t-78.5 -54t-77.5 -18q-64 0 -100.5 46t-36.5 115zM268 313q0 -45 41 -45q17 0 58 27q82 58 194.5 216t112.5 243q0 34 -33 34q-36 -1 -99 -52 t-123 -122t-105 -156t-46 -145z" />
<glyph unicode="b" horiz-adv-x="657" d="M-55 158q0 124 93.5 293.5t240.5 345.5q-24 3 -50.5 9.5t-56.5 19t-49 33.5t-19 48q0 37 37 63.5t90 28.5q-9 -3 -20.5 -23.5t-11.5 -37.5q0 -75 116 -98q121 141 267 272q56 51 87.5 78.5t97.5 82t115.5 88t111.5 70t118 54.5t105 18q65 0 65 -59q0 -33 -22 -86 q-51 -119 -182.5 -246.5t-286.5 -215t-275 -101.5q-53 -70 -94 -136t-56 -97l-14 -30q-8 -14 -19.5 -37t-30.5 -80.5t-19 -97.5q0 -32 15 -58t46 -26q54 0 124.5 79t102.5 141q-32 0 -52.5 22.5t-20.5 54.5q0 73 55.5 152.5t126.5 79.5q29 0 43 -21.5t14 -52.5 q0 -110 -164 -356q-31 -46 -64 -89.5t-82 -97t-96.5 -92.5t-105 -65.5t-110.5 -26.5q-78 0 -123 57t-47 140zM555 846q155 46 332.5 181.5t269.5 270.5q60 80 60 113q0 12 -13 12q-36 0 -144 -82.5t-194 -162.5q-169 -154 -311 -332z" />
<glyph unicode="c" horiz-adv-x="622" d="M-45 170q0 112 62 237.5t155.5 225t210.5 166.5t221 69q29 0 48.5 -4t37 -22t17.5 -51q0 -42 -27.5 -103t-75 -110.5t-94.5 -49.5q-22 0 -38.5 12.5t-16.5 37.5q0 70 65 135q37 37 86 65q23 13 23 25q0 8 -11 8q-6 0 -14 -4q-65 -29 -142.5 -111t-132.5 -184t-55 -178 q0 -102 91 -115q83 0 151 54t131 141h33q-294 -445 -516 -445q-89 0 -149 55.5t-60 145.5z" />
<glyph unicode="d" horiz-adv-x="921" d="M-66 145q0 82 42.5 182t115 193.5t159.5 172.5t185 127t182 48q40 0 69.5 -24.5t29.5 -65.5q0 -28 -6 -49l381 608q161 0 338 150l20 -10q-377 -507 -709 -1074q-43 -72 -43 -114q0 -41 47 -41q32 0 68 26t59.5 53.5t69.5 86.5h35q-77 -119 -135 -197t-116.5 -136.5 t-112.5 -85t-111 -26.5q-63 0 -97 39.5t-34 95.5q0 60 37 144q-8 -9 -38.5 -45.5t-49.5 -58.5t-54 -56t-63 -54t-63.5 -35t-67.5 -15q-64 0 -101 46t-37 115zM266 313q0 -45 41 -45q17 0 58 27q82 58 194.5 216t112.5 243q0 34 -33 34q-36 -1 -99 -52t-123 -122t-105 -156 t-46 -145z" />
<glyph unicode="e" horiz-adv-x="634" d="M-47 178q0 84 41 182t110 186t153 161.5t178.5 117.5t176.5 45q43 0 74 -18t31 -57q0 -51 -47 -113q-30 -38 -81 -86t-135.5 -100.5t-162.5 -67.5q-11 -24 -17.5 -50.5t-7.5 -41.5v-14q0 -45 28.5 -76t70.5 -31q146 0 286 191h33q-43 -66 -81 -118.5t-93 -116.5 t-106 -106.5t-114 -72t-122 -29.5q-100 0 -157.5 58.5t-57.5 156.5zM315 481q60 23 191 140q14 14 35 36.5t56.5 69.5t35.5 68q0 14 -12 14q-24 0 -68.5 -34.5t-89.5 -84.5q-49 -56 -90.5 -115.5t-57.5 -93.5z" />
<glyph unicode="f" horiz-adv-x="675" d="M-184 -322q0 76 36.5 173.5t106 210t128 197.5t145.5 202.5t116 159.5q-46 6 -77.5 17t-39.5 18l-8 8q-26 -43 -78.5 -119t-91.5 -131l-39 -54h-37q116 154 218 338q-7 18 -7 37q0 49 24 97.5t58 48.5q17 0 31 -12t14 -35q0 -30 -28.5 -72.5t-28.5 -50.5q0 -7 11.5 -15.5 t39.5 -17t68 -14.5q78 114 187 279t179 271.5t74 110.5q99 5 181 48.5t171 117.5l15 -8l-617 -826q94 3 254 25l-43 -70h-239q-10 -12 -29 -43q16 -91 16 -163q0 -111 -27.5 -226t-73 -211.5t-105 -182.5t-122 -146t-124.5 -94.5t-113 -34.5q-70 0 -107.5 47.5t-37.5 119.5z M180 -96q0 -56 35 -56q32 0 76 52.5t83 131t66 179t27 186.5q0 44 -10 92q-273 -419 -277 -585z" />
<glyph unicode="g" horiz-adv-x="794" d="M-399 -569q0 74 55 149.5t143 159.5q83 77 207.5 148t239.5 102l157 262q-196 -262 -337 -262q-65 0 -101.5 46.5t-36.5 117.5q0 101 66.5 227.5t164.5 233.5t221.5 180t227.5 73q41 0 72 -22q26 -20 29 -70q0 -18 -2 -28l47 69q31 -4 90 -4q62 0 145 6q0 -5 -180 -299 q-248 -409 -313 -512q84 -7 140 -33t56 -77q0 -44 -43 -77.5t-92 -33.5q33 17 33 57q0 86 -135 103q-168 -256 -265 -350q-52 -51 -80 -77.5t-82.5 -71t-95 -67t-96 -41t-108.5 -18.5q-57 0 -92 27t-35 82zM-311 -537q0 -20 22 -20q49 0 148 85t191.5 192.5t150.5 195.5 q-58 -18 -114.5 -46.5t-96.5 -56t-71 -52t-47 -39.5l-15 -15q-13 -11 -33 -30.5t-62.5 -72t-60.5 -96.5q-12 -32 -12 -45zM260 313q0 -43 39 -43q15 0 53 27q82 58 194.5 214.5t112.5 240.5q0 32 -30 32q-36 -1 -98.5 -51t-121.5 -120.5t-103.5 -155t-45.5 -144.5z" />
<glyph unicode="h" horiz-adv-x="960" d="M-150 -12q85 118 137 203t119.5 200t163.5 260q-17 -7 -33 -16.5t-34 -27.5t-31 -32t-35 -44.5t-34 -47.5t-41 -59.5t-44 -63.5h-34q18 25 50.5 73t51.5 76t49.5 66t54 60.5t53.5 42.5t60 27q192 304 389 557q82 104 158 181.5t127 116t97 61.5t67 27.5t37 4.5 q33 0 52 -19.5t19 -54.5q0 -66 -41 -137q-110 -187 -265.5 -358.5t-336.5 -297.5l-139 -233q139 177 256 250q64 39 133 39q54 0 92.5 -25t38.5 -76q0 -49 -35.5 -115t-78 -120.5t-78 -116t-35.5 -102.5q0 -15 13 -25t32 -10q25 0 53 19.5t46 40.5t44.5 56.5t34.5 45.5h31 q-27 -45 -61.5 -95t-87 -115.5t-103 -116t-108.5 -85.5t-105 -35q-65 0 -109.5 41.5t-44.5 108.5q0 122 178 348q22 27 54.5 67t53 65.5t42 53.5t31.5 48.5t10 33.5q0 23 -19 23q-52 0 -161 -127q-12 -14 -65.5 -74t-79 -89.5t-64.5 -80t-64 -92.5l-184 -305q-39 10 -113 10 q-36 0 -77 -2.5t-64 -5.5zM651 860q249 212 424 459q119 169 119 227q0 21 -14 21q-28 0 -89 -66.5t-139.5 -178.5t-151.5 -225t-149 -237z" />
<glyph unicode="i" horiz-adv-x="587" d="M-20 360q207 284 296 371.5t187 87.5q54 0 92.5 -24.5t38.5 -75.5q0 -49 -32 -111.5t-70.5 -113t-70.5 -108.5t-32 -99q0 -15 13 -25t32 -10q25 0 53 19.5t46 40.5t44.5 56.5t34.5 45.5h31q-37 -62 -83.5 -127t-113 -142.5t-140.5 -127t-138 -50.5q-60 0 -101.5 43.5 t-41.5 106.5q0 122 178 348q18 23 52 65t50 63t36 48.5t28 45.5t8 32q0 22 -19 22q-21 0 -46 -19t-99 -106t-199 -256h-34zM520 967q0 69 51 157q37 64 83.5 104t84.5 40q56 0 56 -64q0 -72 -54 -170q-26 -46 -73 -94.5t-90 -48.5q-28 0 -43 22t-15 54z" />
<glyph unicode="j" horiz-adv-x="393" d="M-850 -573q0 74 55 149t144 158q82 79 205 149t243 103q104 144 275.5 400t246.5 378l-301 -404h-36l348 461q51 -8 108 -8q72 0 148 8q0 4 -213.5 -325.5t-317.5 -491.5q199 -17 199 -108q0 -44 -44.5 -79.5t-88.5 -35.5q35 16 35 61q0 87 -140 105q-168 -258 -266 -353 q-58 -57 -104 -97t-110 -85.5t-130 -69.5t-131 -24q-55 0 -90 27t-35 82zM-766 -541q0 -22 25 -22q52 0 153 86.5t195.5 197t148.5 197.5q-59 -18 -117 -47t-99 -57t-73.5 -53t-48.5 -41l-16 -15q-13 -12 -33 -31.5t-62.5 -72.5t-60.5 -97q-12 -30 -12 -45zM430 983 q0 75 53 164q40 67 89 108t90 41q57 0 57 -65q0 -76 -55 -176q-28 -48 -78.5 -99t-96.5 -51q-29 0 -44 22.5t-15 55.5z" />
<glyph unicode="k" horiz-adv-x="917" d="M-147 -12q103 152 210.5 329t208.5 334q-24 -9 -45 -24.5t-47.5 -47t-43.5 -54.5t-55.5 -78.5t-60.5 -86.5h-34q18 25 50.5 73t51.5 76t49.5 66t54 60.5t53.5 42.5t60 27q192 304 389 557q82 104 158 181.5t127 116t97 61.5t67 27.5t37 4.5q33 0 52 -19.5t19 -54.5 q0 -66 -41 -137q-110 -187 -265.5 -358.5t-336.5 -297.5l-114 -190q215 238 385 238q10 0 22.5 -2t31 -8.5t30.5 -23.5t12 -42q0 -31 -26.5 -80t-77.5 -106t-144 -108t-207 -73q3 -58 55 -104.5t127 -46.5q68 0 123.5 43.5t122.5 130.5h33q-31 -47 -50.5 -76t-58 -81.5 t-68 -87t-72 -76.5t-79.5 -67.5t-80.5 -43t-83.5 -17.5q-74 0 -123 60t-49 141q0 61 39 209l-227 -387q-39 10 -113 10q-36 0 -77 -2.5t-63 -5.5zM379 414q16 4 42 11t84.5 33t90.5 56q33 31 54 62t26.5 46t5.5 23q0 19 -20 19q-45 0 -168 -117q-16 -15 -44.5 -48t-49.5 -59 zM653 860q249 212 424 459q119 169 119 227q0 21 -14 21q-28 0 -89 -66.5t-139.5 -178.5t-151.5 -225t-149 -237z" />
<glyph unicode="l" horiz-adv-x="561" d="M-47 129q0 186 156 453q69 117 174.5 256t229 276t262.5 252.5t257 171.5q50 23 90 23q58 0 58 -58q0 -114 -254 -416q-290 -343 -557 -522q-26 -45 -51 -122t-25 -121q0 -36 18 -63.5t49 -27.5q34 0 66.5 15t62.5 44t49 52.5t46 60.5h34q-29 -45 -43.5 -67t-45 -65.5 t-49.5 -67t-50.5 -60t-56 -57t-58 -46t-64 -38.5t-67 -22t-73.5 -9q-69 0 -113.5 38.5t-44.5 119.5zM408 647q115 92 235 216.5t207 230.5q76 88 167 212.5t91 157.5q0 5 -8 9q-39 -5 -147.5 -112.5t-215.5 -234.5q-71 -83 -163.5 -215.5t-165.5 -263.5z" />
<glyph unicode="m" horiz-adv-x="1437" d="M-74 -16q84 130 209 324q167 256 206.5 322.5t39.5 90.5q0 27 -21 27q-14 0 -33 -12t-35.5 -28t-39.5 -42t-36 -42.5t-32.5 -42.5t-23.5 -30l-144 -191h-1h-1h-1h-1h-1h-2h-1h-1h-1h-2h-1h-1h-2h-1h-2h-2h-1h-2h-10l22 32q22 31 57 80.5t74.5 103t81 104t70.5 76.5 q71 65 147 65q72 0 106.5 -35.5t34.5 -93.5q0 -50 -22 -104q39 51 56.5 73t52.5 60t59.5 55t59 31t69.5 14q72 0 106.5 -35.5t34.5 -93.5t-22 -108q48 55 73 82.5t67.5 68.5t73.5 60t71.5 34t80.5 15q52 0 89.5 -27.5t37.5 -79.5q0 -49 -35 -114.5t-76.5 -119t-76.5 -114.5 t-35 -102q0 -15 13 -25t32 -10q25 0 53 19.5t46 40.5t44.5 56.5t34.5 45.5h31q-27 -45 -61.5 -95t-87 -115.5t-103 -116t-108.5 -85.5t-105 -35q-65 0 -109.5 41.5t-44.5 108.5q0 120 179 348q17 22 53 67t53.5 67t39.5 52.5t31 50t9 33.5q0 23 -16 23q-17 0 -39.5 -13 t-53.5 -44.5t-52 -53t-60 -70t-50 -63t-48 -61.5q-22 -28 -44.5 -59.5t-39.5 -55t-41.5 -62t-36 -55.5t-39 -62t-34 -56t-37.5 -62.5t-34 -56.5q-47 12 -127 12q-59 0 -145 -12q84 130 209 324q167 256 206.5 322.5t39.5 90.5q0 27 -21 27q-45 0 -164 -144 q-84 -105 -145 -194q-79 -115 -165.5 -253t-102.5 -173q-47 12 -127 12q-61 0 -146 -12z" />
<glyph unicode="n" horiz-adv-x="1021" d="M-72 -16q84 130 209 324q167 256 206.5 322.5t39.5 90.5q0 27 -21 27q-36 0 -90 -60q-72 -80 -254 -328h-34q160 231 235 324q110 137 217 137q73 0 109.5 -36t36.5 -93q0 -47 -27 -108q59 68 92 102.5t83 77.5t96 61.5t96 18.5q52 0 89.5 -27.5t37.5 -79.5 q0 -49 -35 -114.5t-77 -119t-77 -114.5t-35 -102q0 -15 13 -25t32 -10q25 0 53.5 19.5t46 40.5t44.5 56.5t35 45.5h30q-27 -45 -61.5 -95t-87 -115.5t-103 -116t-108.5 -85.5t-105 -35q-65 0 -109 41.5t-44 108.5q0 122 178 348q17 22 53 67t53.5 67t39.5 52.5t31 50t9 33.5 q0 23 -16 23q-17 0 -39.5 -13t-53.5 -44.5t-52 -53t-60 -70t-50 -63t-48 -61.5q-25 -32 -48.5 -64.5t-48.5 -70t-42.5 -64t-44.5 -71t-39 -63.5t-43 -70.5t-39 -65.5q-47 12 -127 12q-60 0 -146 -12z" />
<glyph unicode="o" horiz-adv-x="694" d="M-49 160q0 111 63.5 237.5t160.5 228.5t220 170t234 68q57 0 88 -33.5t31 -95.5q0 -177 -144 -395q2 0 8 -1t9 -1q21 0 41.5 14t30.5 26.5t28 37.5h35q-69 -119 -150 -119q-8 0 -28 4q-35 -50 -65 -88.5t-76.5 -88t-90 -81.5t-100 -55t-111.5 -23q-82 0 -133 54.5 t-51 140.5zM295 358q0 -41 22.5 -65.5t65.5 -24.5q24 0 64 20.5t61 51.5q-39 33 -39 84q0 47 28.5 107.5t75.5 105.5t91 45q21 0 34 -16q9 31 9 53q0 67 -50 67q-55 0 -120.5 -45t-118 -109.5t-88 -140t-35.5 -133.5z" />
<glyph unicode="p" horiz-adv-x="819" d="M-625 -618q75 96 348.5 492.5t489.5 727.5l88 146l-287 -390l-37 -2l336 469l33 -4q62 -6 94 -6q44 2 84 8t58 11l18 6q-24 -26 -44.5 -52t-29.5 -38l-8 -13q15 13 22.5 18.5t18.5 13t25 17.5q38 29 91.5 49.5t100.5 20.5q49 0 79 -27.5t30 -87.5q0 -73 -33 -173.5 t-94 -204t-137.5 -192.5t-174.5 -145.5t-194 -56.5q-60 0 -96.5 33.5t-36.5 106.5q0 59 12 92q-18 -39 -112 -203.5t-179 -309.5l-84 -145q-48 -3 -102.5 -21.5t-99 -43.5t-81.5 -49.5t-58 -40.5l-21 -17zM315 311q0 -43 37 -43q28 0 56.5 13.5t59 44t45 47t44.5 53.5 q162 205 162 313q0 35 -35 35q-14 0 -30.5 -6t-34 -19t-32 -24.5t-34 -31.5t-29.5 -31t-29.5 -33t-23.5 -27q-6 -7 -16.5 -20t-37.5 -49.5t-47.5 -70.5t-37.5 -76.5t-17 -74.5z" />
<glyph unicode="q" horiz-adv-x="784" d="M-156 -639q338 485 592 920q-51 -60 -76 -88.5t-71 -76.5t-77 -71t-69 -42t-71 -19q-64 0 -101 46t-37 115q0 82 42.5 182t115 193.5t159.5 172.5t185 127t182 48q39 0 70 -22q29 -23 29 -68q0 -16 -4 -30l53 94q35 -11 92 -11q22 0 65.5 6.5t77.5 8.5l-800 -1335 q-150 0 -342 -160zM266 313q0 -45 41 -45q17 0 58 27q82 58 194.5 216t112.5 243q0 34 -33 34q-36 -1 -99 -52t-123 -122t-105 -156t-46 -145z" />
<glyph unicode="r" horiz-adv-x="641" d="M-16 360l215 312q-29 13 -29 51q0 44 39 113.5t97 124.5t104 55q20 0 34.5 -11.5t14.5 -33.5q0 -58 -80 -154q-17 -21 -36 -41.5t-29 -30.5l-11 -10q161 47 234 47q120 0 120 -108q-2 -35 -36 -89.5t-73.5 -102.5t-72.5 -103.5t-33 -93.5q0 -15 10 -25t27 -10 q35 0 82.5 41t78.5 82l30 41h32q-50 -74 -80 -117.5t-74.5 -103t-78 -93.5t-74.5 -67.5t-81 -48.5t-81 -15q-65 0 -109 43t-44 111q0 38 11 78.5t36 85t46 78t61.5 82.5t60 71t64.5 71t53 58q24 21 24 35q0 12 -26 12q-23 -2 -79 -15.5t-91 -14.5h-9l-213 -304h-34z" />
<glyph unicode="s" horiz-adv-x="591" d="M-80 180q0 72 31.5 139.5t94.5 113.5t142 46l275 269q-4 20 -4 30q0 61 61.5 140t122.5 79q22 0 35.5 -18t13.5 -43q0 -50 -39 -101.5t-88 -70.5q-22 -8 -22 -29q0 -22 14 -76q14 -68 14 -137q0 -67 -18.5 -142.5t-56 -149.5t-87.5 -134.5t-121 -97.5t-149 -37 q-98 0 -158.5 64.5t-60.5 154.5zM98 336q0 -34 28 -57t64 -23q80 0 166 92q45 48 83 134.5t38 158.5q0 41 -10 64l-234 -236q33 -26 33 -55q0 -23 -15.5 -41.5t-37.5 -18.5q-19 0 -35 11q4 4 4 12q0 22 -28 22q-23 0 -39.5 -19.5t-16.5 -43.5z" />
<glyph unicode="t" horiz-adv-x="591" d="M-47 127q0 52 26 119.5t74 144.5t89.5 137.5t101 140t80.5 109.5h-140l35 43h135l205 293q18 0 48 3.5t107.5 27t137.5 63.5h16q-141 -178 -280 -387h182l-35 -43h-170q-16 -16 -74 -103t-119 -205t-61 -177q0 -26 15.5 -43t40.5 -17q65 0 120.5 41t118.5 117h33 l-52.5 -73.5t-59.5 -78t-71.5 -84.5t-75.5 -73t-85 -65.5t-87.5 -40.5t-94.5 -17q-79 0 -119.5 48.5t-40.5 119.5z" />
<glyph unicode="u" horiz-adv-x="1028" d="M-20 360q207 284 296 371.5t187 87.5q54 0 92.5 -24.5t38.5 -75.5q0 -49 -32 -111.5t-70.5 -113t-70.5 -108.5t-32 -99q0 -15 13 -25t32 -10q86 0 266 268l189 283q33 -4 90 -4q71 0 147 8q-211 -330 -257 -410t-46 -114q0 -13 8.5 -24t22.5 -11q26 0 52.5 13.5 t54.5 42.5t45.5 50.5t46.5 59.5h34q-70 -104 -112.5 -164t-93.5 -122.5t-88.5 -93t-80 -50t-87.5 -19.5q-64 0 -95.5 40t-31.5 99q0 51 41 144q-86 -110 -188 -195.5t-173 -85.5q-65 0 -109 41.5t-44 108.5q0 122 178 348q18 23 52 65t50 63t36 48.5t28 45.5t8 32 q0 22 -19 22q-21 0 -46 -19t-99 -106t-199 -256h-34z" />
<glyph unicode="v" horiz-adv-x="796" d="M-20 360q207 284 296 371.5t187 87.5q54 0 92.5 -24.5t38.5 -75.5q0 -49 -32 -111.5t-70.5 -113t-70.5 -108.5t-32 -99q0 -21 20 -35t44 -14q50 0 113.5 54.5t107 114t69.5 109.5q-31 0 -50 18t-19 52q0 47 33 111.5t83 113.5t93 49q22 0 35.5 -14.5t13.5 -38.5 q0 -43 -30 -115.5t-60 -123.5l-31 -52q-150 -255 -298.5 -407t-279.5 -152q-79 1 -129.5 57.5t-50.5 130.5q0 128 150 320q18 23 52 65t50 63t36 48.5t28 45.5t8 32q0 22 -19 22q-21 0 -46 -19t-99 -106t-199 -256h-34z" />
<glyph unicode="w" horiz-adv-x="1196" d="M-23 360q207 284 296.5 371.5t187.5 87.5q54 0 92.5 -24.5t38.5 -75.5q0 -49 -32 -111.5t-70.5 -113t-70.5 -108.5t-32 -99q0 -29 31 -29q44 0 104 58.5t127 164.5l193 305q17 -1 38.5 -2.5t36 -2.5t19.5 -1q27 0 58.5 3t49.5 5l17 3q-28 -42 -69.5 -107.5t-111 -192 t-69.5 -163.5q0 -28 12 -42t45 -14q44 0 118.5 79t146.5 186q-62 6 -62 69q0 75 69.5 175t133.5 100q24 0 36.5 -16.5t12.5 -37.5q0 -43 -30.5 -115.5t-60.5 -123.5l-30 -51q-147 -249 -295 -405.5t-256 -156.5q-66 0 -99.5 43.5t-33.5 106.5q0 25 12 68t24 73l13 31 q-9 -13 -25.5 -35t-65.5 -78t-96 -98.5t-109 -77.5t-113 -35q-59 0 -97 36.5t-38 107.5q0 122 178 348q18 23 52 65t50 63t36 48.5t28 45.5t8 32q0 22 -19 22q-21 0 -46 -19t-99 -106t-199 -256h-35z" />
<glyph unicode="x" horiz-adv-x="851" d="M-143 59q0 33 25 69t60.5 63.5t71.5 50.5t61 35l25 12q86 38 157.5 91.5t102.5 94.5q19 24 54 101.5t35 125.5t-43 48q-31 0 -69 -22.5t-71.5 -53.5t-75 -80.5t-67.5 -84t-62 -85t-47 -64.5h-37q24 30 65 88.5t72.5 103.5t79 99t91.5 89.5t101 60t116 24.5q13 0 27 -1 t39 -8.5t43 -20.5t32 -40t14 -63q0 -26 -5.5 -54t-16 -66.5t-14.5 -57.5q6 6 22 14q31 21 53 41t35 42.5t19.5 36.5t15 41t12.5 38q17 45 57.5 83t84.5 38q45 0 45 -39q0 -50 -33 -100t-83 -90t-100.5 -73t-94.5 -61t-56 -43q-29 -67 -29 -110q0 -33 21 -55.5t57 -22.5 q114 0 225 160h33q-33 -54 -87.5 -124t-125.5 -145t-151 -125.5t-144 -50.5q-86 0 -128 54.5t-42 134.5q0 112 68 200q-14 -10 -36.5 -26.5t-69 -58t-66.5 -72.5q-11 -16 -27.5 -49.5t-31.5 -59t-35 -52t-47 -41.5t-58 -15q-30 0 -48.5 18.5t-18.5 56.5z" />
<glyph unicode="y" horiz-adv-x="948" d="M-256 -573q0 74 55 149t144 158q82 79 205 149t243 103l178 278q-44 -56 -75.5 -92.5t-75 -79t-80.5 -67.5t-82.5 -41.5t-91.5 -16.5q-59 0 -99 43t-40 107q0 122 178 348q14 18 52 65.5t52 66t36 49.5t30 49t8 32q0 23 -19 23q-20 0 -47 -21.5t-101 -110t-200 -258.5 h-34q88 121 140 189t105 130t89.5 89.5t74 43t78.5 15.5q54 0 92.5 -24.5t38.5 -75.5q0 -40 -21.5 -89t-52 -94t-61.5 -89.5t-52.5 -89t-21.5 -78.5q0 -15 13 -25t32 -10q86 0 266 268l189 283q33 -4 90 -4q71 0 147 8q0 2 -39 -62.5t-100.5 -166.5t-127 -210.5t-128 -211 t-94.5 -152.5q199 -17 199 -108q0 -44 -45 -79.5t-89 -35.5q35 16 35 61q0 87 -139 105q-34 -53 -67.5 -101t-84.5 -114t-99.5 -120.5t-109.5 -110.5t-119 -95t-123 -63.5t-126 -24.5q-55 0 -90 27t-35 82zM-172 -541q0 -22 25 -22q52 0 153 86.5t195.5 197t148.5 197.5 q-59 -18 -117 -47t-99 -57t-73.5 -53t-48.5 -41l-16 -15q-13 -12 -33 -31.5t-62.5 -72.5t-60.5 -97q-12 -30 -12 -45z" />
<glyph unicode="z" horiz-adv-x="663" d="M-590 -451q0 62 39.5 130t102 125.5t127.5 103t128 78.5q178 91 351 123q-4 38 -26 59.5t-48 21.5q-41 0 -41 33q0 22 12 27q69 31 152 88t159 126t128 147t53 141q0 45 -47 45q-65 0 -138 -56t-73 -116q0 -33 37 -33q20 0 43 10q-15 -84 -82 -142.5t-152 -58.5 q-47 0 -82 28t-35 79q0 73 56 142t136.5 115.5t165 74.5t146.5 28q40 0 75 -4.5t69 -17t58 -31.5t39 -50.5t15 -72.5q0 -72 -43.5 -139t-105.5 -115t-147.5 -91.5t-151 -68t-133.5 -45.5q59 -33 86 -112q49 -3 129 -21q22 -6 22 -28q0 -25 -26 -25q-8 0 -25 4t-18 4 q-32 8 -68 8q4 -28 4 -53q0 -135 -102 -311q-89 -154 -239 -246t-322 -92q-91 0 -159.5 49.5t-68.5 138.5zM-498 -410q0 -32 45 -32q43 0 126.5 34.5t113.5 53.5q121 75 219.5 187t138.5 212q-158 -39 -303 -119q-43 -24 -95.5 -61t-110 -84.5t-96 -99t-38.5 -91.5z" />
<glyph unicode="{" horiz-adv-x="794" d="M23 -123q0 60 64 170t312 492q45 67 45 108q0 7 -9 17t-9 16q0 22 31 22q51 0 118 103l314 473q5 8 14.5 20.5t39 45.5t60 58t74 45.5t84.5 20.5q88 0 88 -36q0 -6 -2 -12.5t-8 -15.5t-21 -14.5t-36 -5.5q-44 0 -87.5 -23.5t-70.5 -64.5l-348 -524q-70 -104 -160 -108 q23 -23 23 -56q0 -26 -59.5 -123.5t-323.5 -498.5q-25 -49 -25 -82q0 -26 12.5 -45t25.5 -25l13 -6q-6 -55 -57 -55q-37 0 -69.5 29.5t-32.5 74.5z" />
<glyph unicode="|" horiz-adv-x="1742" d="M29 238q0 137 87.5 221.5t231.5 93.5q-24 -33 -24 -72q0 -41 34.5 -68.5t79.5 -27.5q57 0 126 37.5t136 103.5q35 35 170 185q-12 0 -36 1t-37 1q-37 0 -72.5 -3t-78.5 -18.5t-48 -42.5q0 -14 11.5 -21t25.5 -7q-22 -64 -92 -64q-82 4 -82 70q0 46 37.5 77.5t89.5 43.5 t114 12q32 0 68.5 -2.5t76.5 -7t56 -5.5q296 328 447 447l-7 6q-105 85 -193.5 130.5t-199.5 45.5q-107 0 -199 -58t-92 -134q0 -36 25 -55t61 -19q49 0 84 27q-8 -98 -80.5 -174t-173.5 -76q-83 0 -142.5 47.5t-59.5 130.5q0 79 39.5 145.5t102 110t142.5 74t159 44 t153 13.5q86 0 172 -17.5t154 -42t130 -49t123.5 -42t112.5 -17.5q44 0 81.5 23t37.5 69q0 18 -15 33q83 0 125.5 -42.5t42.5 -107.5q0 -100 -67.5 -163.5t-163.5 -63.5q-83 0 -151.5 29.5t-153.5 95.5q-60 -73 -122 -157.5t-114.5 -161.5t-60.5 -88q95 7 181.5 27t136 36 t61.5 16t20 -9t8 -21q0 -19 -26 -33q-128 -72 -189 -137t-61 -107q0 -41 67 -41q-13 -38 -48.5 -62t-73.5 -24q-33 0 -57.5 23t-24.5 57q0 35 28.5 76t67.5 74t83.5 63.5t73 46.5t39.5 21q-182 -47 -317 -54q-47 -71 -107.5 -173.5t-100 -169.5t-96 -141.5t-112.5 -125.5 q-146 -129 -313 -129q-123 0 -217 76.5t-94 200.5zM1184 104q0 37 6 71t26.5 78.5t37 76.5t60.5 96t72.5 104t97 134.5t111.5 154.5q36 -6 93 -6q85 0 161 8q-187 -271 -254 -385.5t-67 -150.5q0 -13 8.5 -24t22.5 -11q85 0 208 164h35q-164 -243 -268 -346t-211 -103 q-65 0 -102 41t-37 98z" />
<glyph unicode="}" horiz-adv-x="1077" d="M-172 -190q0 9 3.5 18t20 19t44.5 10q44 0 87 23.5t70 64.5l348 524q71 105 160 109q-22 22 -22 55q0 26 59.5 123.5t323.5 498.5q24 47 24 82q0 26 -13 45t-25 25l-13 6q6 55 57 55q37 0 70 -30t33 -74q0 -60 -63 -168t-314 -494q-45 -68 -45 -108q0 -7 9 -17t9 -16 q0 -22 -30 -22q-52 0 -119 -103l-314 -473q-5 -8 -14.5 -20.5t-39 -45.5t-60 -58t-74 -45.5t-84.5 -20.5q-88 0 -88 37z" />
<glyph unicode="~" horiz-adv-x="489" d="M113 1044q0 36 32 65.5t82 29.5q37 0 78 -16t72 -35.5t72.5 -35.5t78.5 -16q11 0 19 7t8 16t-10 14q4 2 14 2q20 0 30.5 -12.5t10.5 -32.5q0 -39 -30.5 -63.5t-73.5 -24.5q-53 0 -143.5 38.5t-135.5 39.5q-17 0 -28 -8t-11 -17q0 -15 12 -20q-77 11 -77 69z" />
<glyph unicode="&#xa1;" horiz-adv-x="921" d="M-145 6q21 24 56.5 66t136 162t189 229.5t191 242.5t166.5 228q14 -24 39 -39.5t53 -15.5q45 0 59 18l-495 -768q-219 0 -377 -131zM641 1026q0 69 66 135q53 53 110 53q33 0 55 -22q27 -27 27 -68q0 -69 -59 -125q-57 -57 -117 -57q-34 0 -61 27q-21 21 -21 57z" />
<glyph unicode="&#xa2;" horiz-adv-x="866" d="M133 217l152 211q-82 42 -82 141q0 117 80.5 246t200.5 215t229 88q42 0 61 -14l90 125h58l-127 -176q-2 -52 -49.5 -124.5t-100.5 -78.5l-164 -225q18 -14 43 -17q115 0 224 152h26q-237 -350 -407 -350q-15 0 -39 4l-142 -197h-53zM455 698q0 -22 2 -32l145 200 q-6 9 -6 23q0 55 51 106q35 35 68 52q18 10 18 20q0 6 -8 6q-4 0 -12 -4q-80 -35 -169 -158t-89 -213z" />
<glyph unicode="&#xa3;" horiz-adv-x="1193" d="M27 348q1 61 50.5 102.5t115 57.5t139.5 16q97 0 190 -22l45 63h-161l61 78h145l19 35q-61 3 -118 16t-113.5 38.5t-91 72t-34.5 108.5q0 94 71.5 157t168.5 63q90 0 141 -46q-67 -10 -112 -51.5t-45 -107.5q0 -63 49 -106t121 -62q94 190 229 334q104 110 204.5 190 t167 118t131.5 59.5t91.5 24.5t52.5 3q9 0 19 -1.5t24.5 -7.5t25.5 -15t19 -27t8 -41q0 -26 -16 -76q-21 -62 -75 -139t-135 -158t-197 -157.5t-244 -125.5q-16 -30 -66 -98h154l-62 -78h-155q-68 -73 -142 -131q6 -6 13 -6q125 -55 182 -55q29 0 53.5 11.5t34.5 23.5l10 12 q9 -21 9 -39q0 -72 -65 -113t-142 -41q-129 0 -271 99q-101 -56 -171 -77.5t-148 -21.5q-74 0 -127 30t-53 91zM82 336q0 -32 30.5 -46t67.5 -14q113 0 238 109q-88 45 -172 45q-64 0 -113.5 -26t-50.5 -68zM1010 807q67 30 154 90.5t173 135t152.5 163t83.5 162.5q2 6 2 22 q0 38 -33 41q-60 -4 -163 -108t-199.5 -240t-169.5 -266z" />
<glyph unicode="&#xa4;" horiz-adv-x="1105" d="M29 375l202 151v9q0 150 138 325q79 102 182 164l-55 139h122l-18 -108q84 41 150 41h12q7 0 19.5 -4t15.5 -5q34 -10 51 -30l74 106h153l-205 -157q7 -28 7 -52q0 -11 -3 -20q-18 -184 -217 -393q-7 -9 -39 -33l54 -133h-123l14 92q-114 -74 -194 -74q-96 0 -125 70 l-64 -88h-151zM299 467q0 -39 31 -39q34 0 95.5 45.5t139.5 136.5q96 113 156 218t76 167q1 6 3.5 18.5t2.5 16.5q0 13 -8.5 23t-22.5 10q-68 0 -208.5 -155t-211.5 -292q-53 -98 -53 -149z" />
<glyph unicode="&#xa5;" horiz-adv-x="972" d="M-1440 -813q0 96 53.5 176t137 132t189.5 88t207 51.5t194 15.5q370 0 725 -127q33 38 67 81t58 75t58.5 83t50 74t52 79.5t45.5 70.5l236 372q-57 -82 -109 -145t-112.5 -122.5t-121.5 -91.5t-118 -32q-59 0 -99 43t-40 107q0 122 178 348q14 18 52 65.5t52 66t36 49.5 t30 49t8 32q0 23 -18 23q-20 0 -47 -21.5t-101 -110t-200 -258.5h-35q88 121 140 189t105 130t89.5 89.5t74 43t78.5 15.5q54 0 92.5 -24.5t38.5 -75.5q0 -40 -21.5 -89t-52 -94t-61.5 -89.5t-52.5 -89t-21.5 -78.5q0 -15 13 -25t32 -10q93 0 267 268l198 305 q50 -12 107 -12q71 0 147 8q-52 -78 -179 -290.5t-239 -396.5t-254 -383t-247 -298q382 -149 643 -149q69 0 142 13.5t146.5 41.5t130 80t76.5 121q1 7 6.5 13.5t8.5 6.5q28 0 28 -90q0 -32 -13 -71.5t-44.5 -83.5t-75.5 -79.5t-113 -59t-151 -23.5q-126 0 -241 18 t-226 56.5t-182 69t-184 85.5q-529 -543 -1135 -543q-68 0 -134 10t-133 34t-117.5 60t-82 94t-31.5 130zM-1358 -801q0 -72 36.5 -126t97.5 -84t129.5 -44t142.5 -14q131 0 265 43t258 120.5t233.5 171.5t215.5 210q-331 110 -682 110q-119 0 -240.5 -26.5t-224 -74 t-167 -123t-64.5 -163.5z" />
<glyph unicode="&#xa6;" horiz-adv-x="466" d="M246 92v488h119v-488h-119zM246 993v488h119v-488h-119z" />
<glyph unicode="&#xa7;" horiz-adv-x="1308" d="M6 365q0 135 59.5 270.5t158 247t227.5 209.5t266 165t275 105.5t253 38.5q146 0 240 -73.5t94 -221.5q0 -107 -45.5 -228t-114.5 -227t-164 -217t-179 -193t-175 -161q69 0 122.5 -36t53.5 -101q0 -37 -28.5 -70t-87.5 -33q-36 0 -74 15q19 5 35 21.5t16 35.5 q0 38 -24 69.5t-74 45.5q-335 -326 -609 -326q-58 0 -106.5 24t-48.5 74q0 63 65 121t159.5 96t194 61t175.5 25q5 5 34.5 32t49.5 46t53.5 54.5t64.5 70.5q72 83 144 178t155 221t135 252t52 220q0 120 -113 120q-118 0 -258 -75.5t-249.5 -181.5t-183 -224.5t-73.5 -200.5 q0 -71 34.5 -107t88.5 -36q78 0 148 61q-20 -126 -101.5 -228t-185.5 -154t-205 -52q-64 0 -114.5 23t-80 61.5t-44.5 85t-15 97.5zM152 -176q0 -23 38 -23q169 0 414 238q-26 0 -112 -21t-144 -45q-22 -9 -49.5 -23t-63.5 -35.5t-59.5 -45.5t-23.5 -45z" />
<glyph unicode="&#xa9;" horiz-adv-x="786" d="M-1599 -813q0 80 37 150t100.5 119t142.5 87.5t168 61t172.5 34t159.5 11.5q370 0 725 -127q140 159 338 463q182 286 174 278q-41 -53 -69 -86t-78.5 -84t-101 -77.5t-97.5 -26.5q-64 0 -101 46.5t-37 115.5q0 102 66.5 229t165 234t222 180t228.5 73q40 0 68 -23.5 t31 -66.5q0 -29 -6 -43l55 82q33 -4 90 -4q71 0 147 8q-52 -78 -179 -290.5t-239 -396.5t-254 -383t-247 -298q382 -149 643 -149q69 0 142 13.5t147 41.5t130.5 80t76.5 121q1 7 6 13.5t8 6.5q29 0 29 -90q0 -32 -13.5 -71.5t-44.5 -83.5t-75.5 -79.5t-113.5 -59 t-151 -23.5q-126 0 -241 18t-226 56.5t-182 69t-184 85.5q-529 -543 -1135 -543q-56 0 -111 7t-112 22t-105.5 41.5t-86.5 61.5t-60 85.5t-22 110.5zM-1518 -801q0 -72 36.5 -126t97.5 -84t129.5 -44t142.5 -14q131 0 265.5 43t258 120.5t233.5 171.5t216 210 q-331 110 -682 110q-119 0 -240.5 -26.5t-224 -74t-167.5 -123t-65 -163.5zM264 313q0 -45 41 -45q17 0 57 27q82 58 195 216t113 243q0 34 -33 34q-36 -1 -99 -52t-123 -122t-105 -156t-46 -145z" />
<glyph unicode="&#xaa;" horiz-adv-x="911" d="M-74 145q0 82 42.5 182t115 193.5t159.5 172.5t185 127t182 48q40 0 69.5 -24.5t29.5 -65.5q0 -24 -7 -49q21 29 130 182.5t180 239.5q-78 28 -204.5 85t-211 83.5t-168.5 26.5q-47 0 -91 -13t-75.5 -42.5t-32.5 -69.5q0 -34 32 -68.5t93 -44.5q-52 -41 -125 -41 q-47 0 -97 17.5t-88 56.5t-38 90q0 53 36 93t92 60.5t111 30.5t107 10q94 -1 193.5 -27t169 -57.5t169 -78.5t160.5 -70q558 651 1106 651q99 0 155 -39.5t56 -109.5q0 -115 -139 -250q-173 -168 -416 -261t-485 -93q-76 0 -127 10q-77 -100 -244 -347t-217 -350 q-1 -2 -8 -15t-11.5 -23t-11 -24t-9.5 -27.5t-3 -24.5q0 -41 47 -41q32 0 68 26t59.5 53.5t69.5 86.5h35q-77 -119 -135 -197t-116.5 -136.5t-112.5 -85t-111 -26.5q-64 0 -98 39.5t-34 95.5q0 60 37 144q-8 -9 -38.5 -45.5t-49.5 -58.5t-54 -56t-63 -54t-63.5 -35 t-67.5 -15q-64 0 -100.5 46t-36.5 115zM258 313q0 -45 41 -45q17 0 57 27q82 58 195 216t113 243q0 34 -33 34q-36 -1 -99 -52t-123 -122t-105 -156t-46 -145zM1229 1143q54 -4 82 -4q227 0 467 99.5t391 250.5q104 104 104 186q0 42 -28 62t-68 20q-130 0 -264.5 -51.5 t-256 -142t-225.5 -193.5t-202 -227z" />
<glyph unicode="&#xab;" horiz-adv-x="909" d="M-201 -12q87 120 138 201.5t121 201t161 260.5q270 415 422 611q82 104 158 181.5t127 116t96.5 61.5t66.5 27.5t37 4.5q33 0 52.5 -19.5t19.5 -54.5q0 -66 -41 -137q-112 -191 -263 -361.5t-329 -294.5l-149 -233q139 177 256 250q64 39 133 39q54 0 92.5 -25t38.5 -76 q0 -49 -35.5 -115t-78 -120.5t-78 -116t-35.5 -102.5q0 -15 13 -25t32 -10q25 0 53 19.5t46 40.5t44.5 56.5t34.5 45.5h31q-27 -45 -61.5 -95t-87 -115.5t-103 -116t-108.5 -85.5t-105 -35q-65 0 -109.5 41.5t-44.5 108.5q0 122 178 348q22 27 54.5 67t53 65.5t42 53.5 t31.5 48.5t10 33.5q0 23 -19 23q-30 0 -76 -40t-86 -87q-8 -9 -65 -73t-80 -91.5t-62.5 -78.5t-64.5 -93l-184 -305q-39 10 -113 10q-36 0 -77 -2.5t-64 -5.5zM600 860q249 212 424 459q119 169 119 227q0 21 -15 21q-28 0 -89 -66.5t-139.5 -178.5t-151 -224.5 t-148.5 -237.5z" />
<glyph unicode="&#xac;" horiz-adv-x="2238" d="M37 317q0 111 54.5 213t152.5 166t213 64q83 0 145 -42.5t62 -125.5q0 -61 -38.5 -107.5t-86.5 -46.5q-22 0 -38 6.5t-23.5 16t-11.5 19t-4 16.5l-1 6q0 22 14 43.5t37 21.5q0 -16 27 -16q14 0 24 17t10 34q0 35 -26.5 55.5t-71.5 20.5q-68 0 -113 -48.5t-45 -121.5 t53.5 -116.5t129.5 -43.5q45 0 99 25.5t97 57.5t100.5 89.5t88.5 92t82 94.5q8 9 12 14q117 135 247 258.5t211 189t191 148.5q-84 -41 -159 -58t-156.5 -24t-124.5 -16q-29 -6 -55.5 -14t-60 -23.5t-57.5 -33.5t-40.5 -45t-16.5 -59q1 -27 21.5 -43t46.5 -16q25 0 47 19 q-9 -55 -31.5 -95.5t-46.5 -61.5t-53.5 -33.5t-47 -15.5t-32.5 -3q-84 0 -139 54t-55 136q0 73 37.5 132.5t96 95.5t135 60.5t148 34t140.5 9.5q403 0 538 96q12 12 25 12q8 0 13 -5.5t5 -12.5q0 -9 -16 -25q-145 -110 -319.5 -328.5t-335.5 -469.5q-153 -239 -240 -345 q-213 -261 -423 -285q-23 -3 -46 -3q-159 0 -274 102.5t-115 263.5zM1087 133q0 74 31.5 141t76 117.5t89 96.5t76 97t31.5 101q0 55 -60 55q-10 0 -21 -1t-14 -1q-16 0 -16 13q0 8 6 13t13 6t16 2t10 1q72 9 149 51.5t145.5 102t138.5 130t138 139.5t133 125t134.5 91 t132.5 35q48 0 85.5 -27t37.5 -92q0 -75 -77.5 -134.5t-160.5 -59.5q-33 2 -49 8q14 14 14 35q-1 12 -13 19t-26 7q-49 0 -168 -96q-161 -131 -253.5 -198t-144.5 -93.5t-120 -46.5q27 6 52 6q55 0 100 -33.5t45 -89.5q0 -41 -19 -88t-42.5 -83t-42.5 -83t-19 -88 q0 -59 55 -59q56 0 103 43h10q-15 -42 -54 -97.5t-93 -110t-126 -91.5t-141 -37q-74 0 -118 50t-44 124zM1630 360q207 284 296.5 371.5t187.5 87.5q54 0 92.5 -24.5t38.5 -75.5q0 -49 -32 -111.5t-70.5 -113t-70.5 -108.5t-32 -99q0 -15 13 -25t32 -10q25 0 53 19.5 t46 40.5t44.5 56.5t34.5 45.5h31q-37 -62 -83.5 -127t-113 -142.5t-140.5 -127t-138 -50.5q-60 0 -102 43.5t-42 106.5q0 122 178 348q19 25 52.5 65.5t50 62t36 49t28 45.5t8.5 32q0 22 -19 22q-21 0 -46 -19t-99 -106t-199 -256h-35z" />
<glyph unicode="&#xad;" horiz-adv-x="778" d="M90 479l92 115h535l-92 -115h-535z" />
<glyph unicode="&#xae;" horiz-adv-x="817" d="M-66 -16q84 130 209 324q167 256 206.5 322.5t39.5 90.5q0 27 -20 27q-36 0 -90 -60q-72 -80 -254 -328h-35q160 231 235 324q110 137 217 137q73 0 109.5 -36t36.5 -93q0 -44 -18 -95.5t-36 -84t-59.5 -97.5t-56.5 -91l252 251q0 54 43.5 144.5t111 164.5t123.5 74 q21 0 35 -12.5t14 -34.5q0 -71 -96 -184.5t-178 -165.5q-25 -45 -27 -121q0 -104 58 -104q12 0 22.5 4.5t21 15t16 16.5t17 22.5t13.5 19.5h35q-66 -113 -127 -113q-97 0 -97 141q0 15 2.5 36.5t5.5 35.5l3 14q-15 -14 -63 -59.5t-75.5 -72t-67.5 -67t-70 -75.5t-52 -66 q-36 -50 -69 -101t-47 -77l-15 -26q-47 12 -127 12q-60 0 -146 -12z" />
<glyph unicode="&#xb0;" horiz-adv-x="518" d="M41 940q0 87 80 164q85 82 192 82q69 0 111 -33q53 -42 53 -115q0 -84 -80 -161q-41 -39 -92.5 -61.5t-99.5 -22.5q-72 0 -111 34q-53 39 -53 113zM61 940q0 -57 45 -96q45 -33 99 -33q45 0 93.5 21t86.5 57q74 68 74 149q0 63 -47 99q-38 32 -99 32q-62 0 -127 -39 q-66 -38 -95.5 -92t-29.5 -98z" />
<glyph unicode="&#xb1;" horiz-adv-x="995" d="M90 479l92 115h719l-92 -115h-719zM381 899l63 68h199l150 190h94l-148 -190h232l-62 -70h-223l-182 -227h-94l180 227q-32 0 -105.5 1t-103.5 1z" />
<glyph unicode="&#xb2;" horiz-adv-x="1089" d="M27 422q0 5 3.5 12.5t7.5 11.5l3 5q48 60 164 141q129 90 239 151t172 103q277 191 277 309q0 28 -22 42.5t-54 14.5q-52 0 -106 -24q-113 -52 -113 -107q0 -30 37 -30q23 0 39 8q-33 -57 -85 -93t-114 -36q-46 0 -65 19t-19 46q0 35 24.5 69t65 61.5t74.5 45t72 33.5 q113 47 227 47q43 0 87 -11.5t80 -42t36 -75.5q0 -49 -34 -100t-91.5 -95t-111.5 -76.5t-115 -62.5l-195 -81q-137 -58 -209 -95q-24 -13 -58.5 -35t-56.5 -37l-22 -16q3 1 24.5 11.5t41.5 19.5t49.5 17t52.5 8q25 0 37 -2q49 -6 115.5 -44t111.5 -38q43 0 78 22.5t41 54.5 q0 15 16 15q14 0 14 -13l-4 -18q-17 -48 -52.5 -86.5t-76.5 -60.5t-79.5 -33.5t-67.5 -11.5q-61 0 -110 17.5t-103 61.5q-52 43 -98 43q-48 0 -74 -43q0 -1 -4 -7.5t-6.5 -10.5t-7 -9.5t-8.5 -8t-9 -2.5q-6 0 -12 5t-6 11z" />
<glyph unicode="&#xb3;" horiz-adv-x="1075" d="M31 483q0 52 40.5 87.5t98.5 35.5q36 0 57 -15t24 -31l3 -15q0 -32 -18 -49.5t-36 -19.5l-18 -1q0 25 -28 25q-21 0 -36.5 -14.5t-15.5 -36.5q4 -38 40 -55t79 -17q52 0 119 25.5t127 66.5t101.5 99.5t41.5 117.5q0 31 -13.5 51.5t-39 30t-50 13t-56.5 3.5q-4 0 -9.5 5.5 t-5.5 7.5q0 4 4 7.5t8 5.5l5 1l63 16q93 34 179.5 95t133.5 110q60 64 60 115q0 26 -24 38.5t-60 12.5q-37 0 -89 -14.5t-97.5 -46.5t-45.5 -72q0 -21 14 -30t31 -9q4 0 11 1t10 1q-26 -40 -53.5 -65t-54.5 -34.5t-41.5 -11.5t-34.5 -2q-33 0 -60.5 19t-27.5 49q0 34 23 67 t60 59t70 43.5t68 31.5q123 49 239 49q80 0 142 -29q75 -33 75 -108q0 -46 -28 -82q-73 -101 -348 -166l-29 -4q67 0 116.5 -33.5t49.5 -99.5q0 -76 -58.5 -147t-143.5 -118t-177.5 -75.5t-163.5 -28.5q-107 0 -166 31q-65 32 -65 110z" />
<glyph unicode="&#xb4;" horiz-adv-x="372" d="M20 930l152 233l54 -5q13 -1 26 -1q64 0 88 6q-4 -2 -61.5 -61t-112.5 -118l-55 -58z" />
<glyph unicode="&#xb6;" horiz-adv-x="1568" d="M23 211q0 47 9.5 88.5t25 71t36.5 54t43.5 41t45 28.5t43.5 19t36.5 11t25.5 5l9 1q-18 -30 -18 -65q1 -39 34.5 -62.5t77.5 -23.5q60 0 160 82q69 56 301 280q86 82 175.5 155.5t149.5 116.5t122 81t79.5 47.5t34.5 17.5q12 4 19 4q9 0 14.5 -5t5.5 -11q0 -14 -12 -23 q-45 -25 -99.5 -73t-101.5 -97.5t-110 -127.5t-103 -130.5t-103.5 -142t-88.5 -126t-80 -116.5q-42 -63 -68 -99.5t-73 -90.5t-88 -83.5t-99 -52t-119 -22.5q-131 0 -207.5 74.5t-76.5 173.5zM483 952q0 123 87 222t218 161q236 111 512 111q78 0 154 -10.5t156 -37.5 t140.5 -68t99 -108.5t38.5 -152.5t-34 -158t-91 -124.5t-131.5 -88.5t-155.5 -55.5t-163 -19.5q94 -8 147 -67t53 -157q0 -109 -65.5 -211.5t-172 -165.5t-218.5 -63q-106 0 -187.5 69t-81.5 177q0 114 82 204.5t199 90.5q58 0 106 -37.5t48 -95.5q0 -50 -28 -93t-79 -51 q-10 -2 -29 -2q-24 0 -42 8.5t-23 16.5l-6 8q31 11 31 53q0 27 -18.5 41t-41.5 14q-58 0 -94.5 -49.5t-36.5 -115.5q0 -72 52 -120t130 -48q135 0 227.5 116.5t92.5 266.5q0 82 -59 131.5t-148 54.5q-33 3 -33 33q0 24 27 24q86 4 174.5 39.5t161.5 94t119.5 144t46.5 179.5 q0 64 -28.5 112.5t-70 75t-99 43t-104.5 21t-98 4.5q-46 0 -107.5 -12.5t-129 -39t-124 -61.5t-93.5 -85.5t-37 -106.5q0 -33 17.5 -57.5t49.5 -24.5q27 0 47 6.5t26 13.5l7 7q-1 -5 -2.5 -13.5t-9 -33t-17.5 -47t-29.5 -49.5t-43 -46.5t-59 -33t-76.5 -13.5 q-78 0 -130.5 50t-52.5 130z" />
<glyph unicode="&#xb7;" horiz-adv-x="299" d="M-35 512q0 68 60 125q57 57 116 57q36 0 62 -26q20 -20 20 -58q0 -70 -65 -135q-53 -53 -111 -53q-33 0 -55 22q-27 27 -27 68z" />
<glyph unicode="&#xb8;" horiz-adv-x="460" d="M33 -283q0 27 21.5 46.5t49.5 19.5q43 0 43 -35q0 -14 -7.5 -23t-15.5 -11l-7 -3q0 15 -15 15q-13 0 -20.5 -9t-7.5 -20q0 -19 16.5 -28t38.5 -9q65 0 130 58.5t65 127.5q0 24 -18.5 38t-49.5 14q-56 0 -88 -25q-2 -1 -4.5 -3.5t-3.5 -2.5q-6 0 -6 8q0 4 2 10l75 97h37 l-51 -64q44 33 105 33q40 0 71 -21.5t31 -62.5q0 -52 -45 -105q-44 -54 -111 -88t-137 -34q-54 0 -82 28q-16 18 -16 49z" />
<glyph unicode="&#xb9;" horiz-adv-x="1013" d="M16 346l25 29q102 0 192 112l449 627h-139l16 23q160 7 373 129h57q-533 -733 -569 -795q-27 -43 -27 -63q0 -1 1 -4.5t1 -4.5q1 -3 3 -7t14 -10.5t30 -6.5h43l-18 -29h-451z" />
<glyph unicode="&#xba;" horiz-adv-x="1728" d="M61 287q0 105 50.5 202t143 159.5t202.5 62.5q76 0 135 -39.5t59 -118.5q0 -46 -31 -90t-88 -45q-32 0 -49.5 17.5t-17.5 43.5q0 21 12.5 38t30.5 18q2 -15 16 -15q45 0 45 47q0 29 -21.5 53.5t-74.5 24.5q-70 -1 -116 -54.5t-46 -125.5q0 -75 50.5 -115.5t105.5 -40.5 q127 0 244 117q85 87 308 329t425 431q-78 49 -176 76.5t-187 27.5q-118 0 -189 -56.5t-71 -137.5q0 -33 10.5 -56t28.5 -34.5t35.5 -16t36.5 -4.5l45 6q-29 -85 -96 -137.5t-146 -52.5q-94 0 -164.5 66.5t-70.5 164.5q0 70 30 129.5t79.5 99t113.5 67t130.5 40t133.5 12.5 q84 0 159.5 -12t141.5 -35.5t110.5 -44t104.5 -53.5q64 49 86 63.5t33 14.5q9 0 18 -6.5t9 -16.5q0 -9 -13 -22q-50 -51 -67 -68q77 -41 140.5 -62.5t133.5 -21.5q35 0 65.5 20.5t30.5 55.5q0 12 -5 23t-10 17l-5 5q24 4 37 4q51 0 77.5 -32.5t26.5 -75.5q0 -66 -60.5 -114 t-131.5 -48q-125 0 -357 166q-129 -155 -274 -381q-25 -39 -67 -110t-76.5 -131t-84.5 -136.5t-95.5 -137.5t-104.5 -122.5t-116.5 -102.5t-127 -66.5t-139.5 -25.5q-150 0 -257.5 105t-107.5 258zM1120 360q207 284 296.5 371.5t187.5 87.5q54 0 92.5 -24.5t38.5 -75.5 q0 -49 -32 -111.5t-70.5 -113t-70.5 -108.5t-32 -99q0 -15 13 -25t32 -10q25 0 53 19.5t46 40.5t44.5 56.5t34.5 45.5h31q-37 -62 -83.5 -127t-113 -142.5t-140.5 -127t-138 -50.5q-60 0 -102 43.5t-42 106.5q0 122 178 348q19 25 52.5 65.5t50 62t36 49t28 45.5t8.5 32 q0 22 -19 22q-21 0 -46 -19t-99 -106t-199 -256h-35z" />
<glyph unicode="&#xbc;" horiz-adv-x="1380" d="M92 -80l1098 1520h125l-1100 -1520h-123zM164 666l16 20q76 0 133 78l312 434h-99l13 16q108 5 258 89h39q-370 -509 -394 -549q-18 -26 -18 -45q0 -1 1 -3.5t1 -3.5q2 -16 33 -16h28l-12 -20h-311zM623 225q0 15 8 15q78 45 188 147q94 87 94 137q-1 24 -12.5 38.5 t-22 18t-20.5 3.5q12 19 44.5 31t68.5 12q39 0 68.5 -14t29.5 -48q0 -19 -9.5 -39t-32.5 -43.5t-35 -34.5t-42 -36q-106 -83 -272 -172q57 14 102 14q23 0 46.5 -1.5t55.5 -4.5t56 -4l207 295q11 0 27.5 2.5t47.5 11t67 31t67 55.5h8q-9 -14 -56 -77.5t-118 -159.5 t-123 -169q16 2 32.5 7t28 9t28.5 12.5t23.5 12t25 14t20.5 11.5l6 -4l-43 -70q-40 -35 -148 -35q-96 -145 -96 -161q0 -17 16 -22t56 -5l-10 -14h-334l12 14q63 0 101 34t128 167l-47 8q-52 6 -98 6q-21 0 -61 -4t-52 -4q-30 0 -30 16z" />
<glyph unicode="&#xbd;" horiz-adv-x="1415" d="M154 -80l1097 1520h125l-1100 -1520h-122zM236 666l16 20q76 0 133 78l311 434h-98l12 16q108 5 258 89h39q-363 -500 -393 -549q-18 -26 -18 -45q0 -1 1 -3.5t1 -3.5q1 -16 32 -16h29l-12 -20h-311zM606 8q0 4 2.5 10t5.5 10l2 3q31 40 123 106q95 66 177 111.5 t131 79.5q208 139 208 231q0 21 -16.5 32t-40.5 11q-35 0 -80 -18q-84 -37 -84 -80q0 -25 29 -25q11 0 27 8q-23 -42 -62 -69t-86 -27q-63 5 -63 49q7 84 176 156q93 35 170 35q24 0 49 -5t49 -15.5t39.5 -30t15.5 -45.5q0 -37 -25.5 -75t-68.5 -71t-83.5 -57.5t-86.5 -46.5 q-258 -108 -303 -133q-19 -10 -44.5 -26.5t-41.5 -27.5l-16 -12l8 4q26 14 38 20t34.5 12.5t44.5 6.5q4 0 13 -1t13 -1q37 -5 87.5 -34.5t84.5 -29.5q32 0 58.5 18t31.5 42q1 10 11 10q12 0 12 -8l-4 -14q-23 -68 -89.5 -106t-117.5 -38q-87 0 -160 60q-40 30 -74 30 q-18 0 -33 -9t-22 -21q-2 -2 -6.5 -10.5t-9 -13.5t-8.5 -5q-15 0 -15 10z" />
<glyph unicode="&#xbe;" horiz-adv-x="1595" d="M276 743q0 39 31.5 67t73.5 28q27 0 43 -12t18 -24l2 -11q0 -24 -13 -37.5t-27 -15.5l-13 -1q0 19 -20 19q-16 0 -28.5 -10.5t-12.5 -26.5q4 -29 31 -42t59 -13q53 0 120.5 31t120 87t52.5 115q0 74 -121 74l-10 8q0 4 3 6.5t6 2.5l3 1l49 15q69 26 135 72t99 81 q45 45 45 86q0 37 -64 37q-50 0 -112 -28t-62 -72q0 -15 10.5 -22t22.5 -7q5 0 10 1t6 1q-53 -84 -137 -84q-25 0 -45.5 14t-20.5 37q0 79 164 148q86 39 180 39q60 0 107 -23q57 -24 57 -80q0 -36 -22 -61q-51 -72 -260 -125l-23 -4q50 0 87.5 -25t37.5 -74 q0 -75 -73.5 -141.5t-166.5 -101.5t-167 -35t-125 25q-50 26 -50 81zM309 -80l1098 1520h125l-1100 -1520h-123zM821 225q0 15 8 15q81 47 189 147q94 87 94 137q-1 24 -12.5 38.5t-22 18t-20.5 3.5q12 19 44 31t68 12q39 0 69 -14t30 -48q0 -19 -9.5 -39t-32.5 -43.5 t-35 -34.5t-42 -36q-106 -83 -272 -172q57 14 102 14q23 0 46.5 -1.5t55.5 -4.5t56 -4l206 295q11 0 27.5 2.5t47.5 11t67 31t67 55.5h9q-9 -14 -56 -77.5t-118 -159.5t-123 -169q16 2 32.5 7t28 9t28 12t24 12.5t24 14t20.5 11.5l6 -4l-43 -70q-40 -35 -147 -35 q-96 -145 -96 -161q0 -17 15.5 -22t55.5 -5l-10 -14h-334l13 14q63 0 101 34t128 167l-47 8q-53 6 -98 6q-21 0 -61 -4t-52 -4q-31 0 -31 16z" />
<glyph unicode="&#xbf;" horiz-adv-x="1034" d="M-125 207q0 70 35.5 131t94 103.5t129 76.5t147 58t140.5 41t117 31.5t70 23.5q35 20 35 47q0 19 -29 22l-12 -4q0 38 37 64t78 26q43 0 68.5 -24t25.5 -64q0 -46 -46.5 -85.5t-123 -74t-159 -69.5t-170.5 -87t-142 -110q-82 -89 -82 -157q0 -80 98 -80q67 0 152.5 35 t148 88t62.5 100q0 37 -47 37q-13 0 -33 -10q34 83 115 146t168 63q54 0 93.5 -34.5t39.5 -90.5q0 -68 -56.5 -135.5t-140.5 -117t-166.5 -84.5t-148.5 -50q-95 -27 -201 -27q-152 0 -227 65q-70 61 -70 146zM739 948q0 69 66 135q54 54 110 54q33 0 56 -23q26 -26 26 -67 q0 -69 -59 -125q-58 -58 -117 -58q-34 0 -61 27q-21 21 -21 57z" />
<glyph unicode="&#xc0;" d="M37 225q0 116 91 211.5t208 95.5q27 -1 26 -4q-6 -2 -16 -21.5t-10 -41.5q0 -42 34 -61t74 -19q42 0 100.5 29t117.5 75.5t101.5 84.5t78.5 73q-100 69 -140.5 89t-74.5 22q-29 0 -51.5 -15.5t-26.5 -40.5q0 -16 6.5 -27.5t12.5 -14.5l7 -3q-33 -45 -90 -45 q-44 0 -78 29.5t-34 77.5q0 66 54.5 108.5t125.5 42.5q118 0 244 -110q39 -36 88 -70q23 22 52 47t52.5 45t61.5 50t58.5 45.5t64.5 48.5t57.5 43t61.5 45t53 39q64 47 141.5 93.5t123.5 69.5l46 23q-47 -6 -84 -6q-88 0 -238 43q-72 20 -133 20q-62 0 -103 -25.5t-44 -76.5 q0 -30 18.5 -48t54.5 -18q15 0 23 2q-27 -62 -74.5 -93t-103.5 -31q-74 0 -128 49.5t-54 130.5q0 93 88.5 160t220.5 67q108 0 217 -53q156 -76 303 -76q76 0 140 17.5t113 39t75 25.5q8 0 14 -6q2 -2 2 -6q0 -18 -35 -43q-85 -70 -175.5 -177.5t-166.5 -223.5t-125.5 -199 t-91.5 -160q55 4 96.5 17.5t66 26t36.5 13.5q14 0 14 -16q0 -4 -2 -9t-4 -7l-2 -3q-73 -58 -225 -61l-13 -27q-53 -93 -53 -163q0 -29 17.5 -49.5t48.5 -20.5q42 0 94 38t84 76l31 37h26q-26 -45 -81 -117t-96 -122l-42 -49q-137 -158 -274 -158q-70 0 -120 49t-50 125 q0 78 49 167.5t159 231.5q-43 7 -106 25q-33 -39 -91 -111t-61 -75q-148 -184 -206 -243q-127 -131 -251 -159q-41 -10 -85 -10q-121 0 -207 71.5t-86 196.5zM1059 596q67 -23 100 -31q24 34 62 78q93 116 233.5 267.5t235.5 245.5l94 93q-324 -174 -725 -653zM1419 1595 q24 -6 88 -6t80 6l152 -233l-90 -4q-220 233 -230 237z" />
<glyph unicode="&#xc1;" d="M33 225q0 115 93 211t210 96q27 -1 26 -4q-6 -2 -16 -21.5t-10 -41.5q0 -42 34 -61t74 -19q42 0 100.5 29t117.5 75.5t101.5 84.5t78.5 73q-100 69 -140.5 89t-74.5 22q-29 0 -51.5 -15.5t-26.5 -40.5q0 -16 6.5 -27.5t12.5 -14.5l7 -3q-33 -45 -90 -45q-43 0 -76 29 t-36 78q0 66 54.5 108.5t125.5 42.5q118 0 244 -110q39 -36 88 -70q23 22 52 47t52.5 45t61.5 50t58.5 45.5t64.5 48.5t57.5 43t61.5 45t53 39q64 47 141.5 93.5t123.5 69.5l46 23q-47 -6 -84 -6q-88 0 -238 43q-72 20 -133 20q-62 0 -103 -25.5t-44 -76.5q0 -30 18.5 -48 t54.5 -18q15 0 23 2q-27 -62 -74.5 -93t-103.5 -31q-74 0 -128 49.5t-54 130.5q0 93 88.5 160t220.5 67q108 0 217 -53q156 -76 303 -76q76 0 140 17.5t113 39t75 25.5q8 0 14 -6q2 -2 2 -6q0 -18 -35 -43q-85 -70 -175.5 -177.5t-166.5 -223.5t-125.5 -199t-91.5 -160 q55 4 96.5 17.5t66 26t36.5 13.5q14 0 14 -16q0 -4 -2 -9t-4 -7l-2 -3q-73 -58 -225 -61l-13 -27q-53 -93 -53 -163q0 -29 17.5 -49.5t48.5 -20.5q42 0 94 38t84 76l31 37h26q-26 -45 -81 -117t-96 -122l-42 -49q-137 -158 -274 -158q-70 0 -120 49t-50 125q0 78 49 167.5 t159 231.5q-43 7 -106 25q-33 -39 -91 -111t-61 -75q-148 -184 -206 -243q-127 -131 -251 -159q-41 -10 -85 -10q-122 0 -209.5 72t-87.5 196zM1059 596q67 -23 100 -31q24 34 62 78q93 116 233.5 267.5t235.5 245.5l94 93q-324 -174 -725 -653zM1620 1370l192 234l48 -6 q16 -1 32 -1q60 0 88 7q-4 -2 -71.5 -61.5t-132.5 -118.5l-66 -58z" />
<glyph unicode="&#xc2;" d="M33 225q0 115 93 211t210 96q27 -1 26 -4q-6 -2 -16 -21.5t-10 -41.5q0 -42 34 -61t74 -19q42 0 100.5 29t117.5 75.5t101.5 84.5t78.5 73q-100 69 -140.5 89t-74.5 22q-29 0 -51.5 -15.5t-26.5 -40.5q0 -16 6.5 -27.5t12.5 -14.5l7 -3q-33 -45 -90 -45q-43 0 -76 29 t-36 78q0 66 54.5 108.5t125.5 42.5q118 0 244 -110q39 -36 88 -70q23 22 52 47t52.5 45t61.5 50t58.5 45.5t64.5 48.5t57.5 43t61.5 45t53 39q64 47 141.5 93.5t123.5 69.5l46 23q-47 -6 -84 -6q-88 0 -238 43q-72 20 -133 20q-62 0 -103 -25.5t-44 -76.5q0 -30 18.5 -48 t54.5 -18q15 0 23 2q-27 -62 -74.5 -93t-103.5 -31q-74 0 -128 49.5t-54 130.5q0 93 88.5 160t220.5 67q108 0 217 -53q156 -76 303 -76q76 0 140 17.5t113 39t75 25.5q8 0 14 -6q2 -2 2 -6q0 -18 -35 -43q-85 -70 -175.5 -177.5t-166.5 -223.5t-125.5 -199t-91.5 -160 q55 4 96.5 17.5t66 26t36.5 13.5q14 0 14 -16q0 -4 -2 -9t-4 -7l-2 -3q-73 -58 -225 -61l-13 -27q-53 -93 -53 -163q0 -29 17.5 -49.5t48.5 -20.5q42 0 94 38t84 76l31 37h26q-26 -45 -81 -117t-96 -122l-42 -49q-137 -158 -274 -158q-70 0 -120 49t-50 125q0 78 49 167.5 t159 231.5q-43 7 -106 25q-33 -39 -91 -111t-61 -75q-148 -184 -206 -243q-127 -131 -251 -159q-41 -10 -85 -10q-122 0 -209.5 72t-87.5 196zM1059 596q67 -23 100 -31q24 34 62 78q93 116 233.5 267.5t235.5 245.5l94 93q-324 -174 -725 -653zM1415 1448l414 242l61 -244 h-61l-41 172l-295 -170h-78z" />
<glyph unicode="&#xc3;" d="M33 225q0 115 93 211t210 96q27 -1 26 -4q-6 -2 -16 -21.5t-10 -41.5q0 -42 34 -61t74 -19q42 0 100.5 29t117.5 75.5t101.5 84.5t78.5 73q-100 69 -140.5 89t-74.5 22q-29 0 -51.5 -15.5t-26.5 -40.5q0 -16 6.5 -27.5t12.5 -14.5l7 -3q-33 -45 -90 -45q-43 0 -76 29 t-36 78q0 66 54.5 108.5t125.5 42.5q118 0 244 -110q39 -36 88 -70q23 22 52 47t52.5 45t61.5 50t58.5 45.5t64.5 48.5t57.5 43t61.5 45t53 39q64 47 141.5 93.5t123.5 69.5l46 23q-47 -6 -84 -6q-88 0 -238 43q-72 20 -133 20q-62 0 -103 -25.5t-44 -76.5q0 -30 18.5 -48 t54.5 -18q15 0 23 2q-27 -62 -74.5 -93t-103.5 -31q-74 0 -128 49.5t-54 130.5q0 93 88.5 160t220.5 67q108 0 217 -53q156 -76 303 -76q76 0 140 17.5t113 39t75 25.5q8 0 14 -6q2 -2 2 -6q0 -18 -35 -43q-85 -70 -175.5 -177.5t-166.5 -223.5t-125.5 -199t-91.5 -160 q55 4 96.5 17.5t66 26t36.5 13.5q14 0 14 -16q0 -4 -2 -9t-4 -7l-2 -3q-73 -58 -225 -61l-13 -27q-53 -93 -53 -163q0 -29 17.5 -49.5t48.5 -20.5q42 0 94 38t84 76l31 37h26q-26 -45 -81 -117t-96 -122l-42 -49q-137 -158 -274 -158q-70 0 -120 49t-50 125q0 78 49 167.5 t159 231.5q-43 7 -106 25q-33 -39 -91 -111t-61 -75q-148 -184 -206 -243q-127 -131 -251 -159q-41 -10 -85 -10q-122 0 -209.5 72t-87.5 196zM1059 596q67 -23 100 -31q24 34 62 78q93 116 233.5 267.5t235.5 245.5l94 93q-324 -174 -725 -653zM1346 1528q0 36 32 65t82 29 q46 0 98 -25.5t104.5 -51t98.5 -25.5q11 0 19 6.5t8 15.5t-10 14q6 3 14 3q19 0 30 -13t11 -33q0 -39 -30.5 -63.5t-73.5 -24.5q-53 0 -143.5 38.5t-135.5 39.5q-17 0 -28 -8t-11 -16q0 -16 12 -21q-39 6 -58 25t-19 45z" />
<glyph unicode="&#xc4;" d="M33 225q0 115 93 211t210 96q27 -1 26 -4q-6 -2 -16 -21.5t-10 -41.5q0 -42 34 -61t74 -19q42 0 100.5 29t117.5 75.5t101.5 84.5t78.5 73q-100 69 -140.5 89t-74.5 22q-29 0 -51.5 -15.5t-26.5 -40.5q0 -16 6.5 -27.5t12.5 -14.5l7 -3q-33 -45 -90 -45q-43 0 -76 29 t-36 78q0 66 54.5 108.5t125.5 42.5q118 0 244 -110q39 -36 88 -70q23 22 52 47t52.5 45t61.5 50t58.5 45.5t64.5 48.5t57.5 43t61.5 45t53 39q64 47 141.5 93.5t123.5 69.5l46 23q-47 -6 -84 -6q-88 0 -238 43q-72 20 -133 20q-62 0 -103 -25.5t-44 -76.5q0 -30 18.5 -48 t54.5 -18q15 0 23 2q-27 -62 -74.5 -93t-103.5 -31q-74 0 -128 49.5t-54 130.5q0 93 88.5 160t220.5 67q108 0 217 -53q156 -76 303 -76q76 0 140 17.5t113 39t75 25.5q8 0 14 -6q2 -2 2 -6q0 -18 -35 -43q-85 -70 -175.5 -177.5t-166.5 -223.5t-125.5 -199t-91.5 -160 q55 4 96.5 17.5t66 26t36.5 13.5q14 0 14 -16q0 -4 -2 -9t-4 -7l-2 -3q-73 -58 -225 -61l-13 -27q-53 -93 -53 -163q0 -29 17.5 -49.5t48.5 -20.5q42 0 94 38t84 76l31 37h26q-26 -45 -81 -117t-96 -122l-42 -49q-137 -158 -274 -158q-70 0 -120 49t-50 125q0 78 49 167.5 t159 231.5q-43 7 -106 25q-33 -39 -91 -111t-61 -75q-148 -184 -206 -243q-127 -131 -251 -159q-41 -10 -85 -10q-122 0 -209.5 72t-87.5 196zM1059 596q67 -23 100 -31q24 34 62 78q93 116 233.5 267.5t235.5 245.5l94 93q-324 -174 -725 -653zM1522 1507q0 46 41 84 q35 39 77 39q23 0 41 -18q15 -15 15 -39q0 -48 -45 -90q-34 -37 -74 -37q-23 0 -37 14q-18 18 -18 47zM1747 1507q0 46 41 84q35 39 78 39q23 0 41 -18q14 -14 14 -39q0 -48 -45 -90q-34 -37 -74 -37q-23 0 -37 14q-18 18 -18 47z" />
<glyph unicode="&#xc5;" d="M33 225q0 115 93 211t210 96q27 -1 26 -4q-6 -2 -16 -21.5t-10 -41.5q0 -42 34 -61t74 -19q42 0 100.5 29t117.5 75.5t101.5 84.5t78.5 73q-100 69 -140.5 89t-74.5 22q-29 0 -51.5 -15.5t-26.5 -40.5q0 -16 6.5 -27.5t12.5 -14.5l7 -3q-33 -45 -90 -45q-43 0 -76 29 t-36 78q0 66 54.5 108.5t125.5 42.5q118 0 244 -110q39 -36 88 -70q23 22 52 47t52.5 45t61.5 50t58.5 45.5t64.5 48.5t57.5 43t61.5 45t53 39q64 47 141.5 93.5t123.5 69.5l46 23q-47 -6 -84 -6q-88 0 -238 43q-72 20 -133 20q-62 0 -103 -25.5t-44 -76.5q0 -30 18.5 -48 t54.5 -18q15 0 23 2q-27 -62 -74.5 -93t-103.5 -31q-74 0 -128 49.5t-54 130.5q0 93 88.5 160t220.5 67q108 0 217 -53q156 -76 303 -76q76 0 140 17.5t113 39t75 25.5q8 0 14 -6q2 -2 2 -6q0 -18 -35 -43q-85 -70 -175.5 -177.5t-166.5 -223.5t-125.5 -199t-91.5 -160 q55 4 96.5 17.5t66 26t36.5 13.5q14 0 14 -16q0 -4 -2 -9t-4 -7l-2 -3q-73 -58 -225 -61l-13 -27q-53 -93 -53 -163q0 -29 17.5 -49.5t48.5 -20.5q42 0 94 38t84 76l31 37h26q-26 -45 -81 -117t-96 -122l-42 -49q-137 -158 -274 -158q-70 0 -120 49t-50 125q0 78 49 167.5 t159 231.5q-43 7 -106 25q-33 -39 -91 -111t-61 -75q-148 -184 -206 -243q-127 -131 -251 -159q-41 -10 -85 -10q-122 0 -209.5 72t-87.5 196zM1059 596q67 -23 100 -31q24 34 62 78q93 116 233.5 267.5t235.5 245.5l94 93q-324 -174 -725 -653zM1561 1499q0 57 51 105 q53 53 123 53q39 0 69 -23q35 -25 35 -71q0 -54 -51 -105q-56 -53 -123 -53q-39 0 -70 22q-34 27 -34 72zM1583 1501q0 -31 27 -55q30 -19 57 -19q56 0 105 46q43 40 43 88q0 37 -27 55q-24 18 -57 18q-39 0 -76 -22t-54.5 -53.5t-17.5 -57.5z" />
<glyph unicode="&#xc6;" horiz-adv-x="2064" d="M33 225q0 115 93 211t210 96q27 -1 26 -4q-6 -2 -16 -21.5t-10 -41.5q0 -42 34 -61t74 -19q42 0 100.5 29t117.5 75.5t101.5 84.5t78.5 73q-100 69 -140.5 89t-74.5 22q-29 0 -51.5 -15.5t-26.5 -40.5q0 -16 6.5 -27.5t12.5 -14.5l7 -3q-33 -45 -90 -45q-44 0 -78 29.5 t-34 77.5q0 66 54.5 108.5t125.5 42.5q118 0 244 -110q39 -36 88 -70q23 22 52 47t52.5 45t61.5 50t58.5 45.5t64.5 48.5t57.5 43t61.5 45t53 39q64 47 141.5 93.5t123.5 69.5l46 23q-47 -6 -84 -6q-88 0 -238 43q-72 20 -133 20q-62 0 -103 -25.5t-44 -76.5q0 -30 18.5 -48 t54.5 -18q15 0 23 2q-27 -62 -74.5 -93t-103.5 -31q-74 0 -128 49.5t-54 130.5q0 93 88.5 160t220.5 67q108 0 217 -53q156 -76 303 -76q76 0 140 17.5t113 39t75 25.5q8 0 14 -6q2 -2 2 -8t-3.5 -11.5t-28 -23.5t-72.5 -45q116 49 259 73.5t244 24.5q197 0 197 -84 q0 -54 -57 -108q-79 -68 -250 -124t-322 -75q10 -23 39.5 -45t61.5 -33q17 -6 34 -9.5t25 -3.5l8 -1q17 -1 17 -17q0 -7 -4 -11t-12.5 -6t-15.5 -3t-20 -2t-20 -2q-96 -12 -183.5 -40t-144 -59t-98.5 -60.5t-61 -48.5l-19 -20q-131 -131 -131 -278q0 -70 50.5 -108.5 t119.5 -38.5q71 0 158 41t159.5 103t122 140.5t49.5 147.5q0 27 -18.5 44t-52.5 17q-74 0 -161.5 -62t-94.5 -132q0 -13 7.5 -22t18.5 -9t21 10q-3 -37 -25.5 -64.5t-64.5 -27.5q-30 0 -51 19.5t-21 52.5q0 71 64 138.5t150 105.5t159 38q54 0 89.5 -29.5t35.5 -97.5 q0 -44 -18.5 -97.5t-37.5 -85.5l-18 -32q-62 -98 -134.5 -178t-136.5 -130t-133 -87t-119 -54.5t-99.5 -28t-69.5 -12t-35 -1.5q-72 0 -134 16.5t-112.5 50.5t-79 92t-28.5 134q0 154 131 309q-7 5 -33.5 26.5t-40.5 26.5q-33 -39 -91 -111t-61 -75q-148 -184 -206 -243 q-127 -131 -251 -159q-41 -10 -85 -10q-122 0 -209.5 72t-87.5 196zM1059 596q11 -4 22.5 -12.5t27 -24t21.5 -20.5q23 24 47 45.5t37 31.5l13 9q243 185 624 245q-34 4 -59 8.5t-56.5 15.5t-51.5 27t-34 43.5t-14 63.5q0 100 105 178q-178 -106 -353.5 -266.5 t-328.5 -343.5zM1925 1020q83 8 178 32t149 44l54 20q75 31 122 63t60 50.5t13 32.5q0 34 -72 34q-102 0 -254 -61q-40 -17 -91 -45.5t-105 -78t-54 -91.5z" />
<glyph unicode="&#xc7;" horiz-adv-x="1064" d="M31 1233q0 103 70 174.5t180 71.5q130 0 192 -84q-77 -2 -130.5 -51.5t-53.5 -124.5q0 -138 162 -215q56 52 147 120q131 100 268 172.5t248.5 107t192.5 49.5t141 15q145 0 154 -90q0 -87 -140 -201t-335.5 -197t-348.5 -91q-23 -2 -84 -2q-239 -282 -239 -537 q0 -73 48 -129.5t132 -56.5q89 0 176.5 68.5t146.5 160.5q84 131 84 213q0 96 -81 101q-71 0 -133.5 -56.5t-94.5 -122.5q-18 -37 -18 -65q0 -13 7.5 -26t20.5 -13q3 0 21 6q-1 -3 -2.5 -8.5t-7.5 -19t-13.5 -24t-21.5 -19t-31 -9.5q-41 0 -59.5 22.5t-18.5 55.5 q0 68 57 147t141 132t157 53q55 0 94 -38t39 -104q0 -84 -43 -182.5t-116.5 -188t-163 -163.5t-192 -118t-194.5 -44q-19 0 -27 2l-43 -55q44 33 105 33q40 0 71 -21.5t31 -62.5q0 -52 -45 -105q-44 -54 -111 -88.5t-137 -34.5q-52 0 -81 29q-17 19 -17 49q0 27 22 46.5 t50 19.5q43 0 43 -35q0 -14 -8 -23t-16 -12l-7 -2q0 14 -14 14q-13 0 -21 -8.5t-8 -19.5q0 -19 16.5 -28t38.5 -9q65 0 130 58.5t65 127.5q0 16 -7 27t-13 14l-7 4q-12 6 -41 6q-35 0 -55 -10q-23 -6 -33 -14q-2 -1 -4.5 -3.5t-3.5 -2.5q-6 0 -6 8q0 4 2 10l72 92 q-125 22 -199 121t-74 238q0 168 105 360q72 134 205 273q-336 81 -336 313zM741 940q255 0 555 184q46 28 92 61t93 83t47 86q0 39 -62 39q-107 0 -307 -116.5t-362 -279.5z" />
<glyph unicode="&#xc8;" horiz-adv-x="1122" d="M25 193q0 69 27 139t65 120t76 91t65 61l27 21q243 185 624 245q-168 18 -209 107q-58 0 -121.5 9.5t-131.5 31t-112 65.5t-44 105q0 60 42 97.5t99 37.5q53 0 92 -33q-34 -7 -52.5 -33t-18.5 -57q0 -59 64 -109t177 -71q6 65 46 119.5t103 91.5t138 65t156.5 43.5 t152 23t131.5 7.5q197 0 197 -84q0 -54 -57 -108q-79 -68 -250 -124t-322 -75q10 -23 39.5 -45t61.5 -33q17 -6 34 -9.5t25 -3.5l8 -1q17 -1 17 -17q0 -7 -4 -11t-12.5 -6t-15.5 -3t-20 -2t-20 -2q-70 -9 -136 -26t-115 -38t-92 -44t-72.5 -44t-50.5 -38t-30 -28l-10 -10 q-131 -131 -131 -278q0 -70 50.5 -108.5t119.5 -38.5q71 0 158 41t159.5 103t122 140.5t49.5 147.5q0 27 -18.5 44t-52.5 17q-74 0 -161.5 -62t-94.5 -132q0 -13 7.5 -22t18.5 -9t21 10q-3 -37 -25.5 -64.5t-64.5 -27.5q-30 0 -51 19.5t-21 52.5q0 71 64 138.5t150 105.5 t159 38q54 0 89.5 -29.5t35.5 -97.5q0 -44 -18.5 -97.5t-37.5 -85.5l-18 -32q-62 -98 -134.5 -178t-136.5 -130t-133 -87t-119 -54.5t-99.5 -28t-69.5 -12t-35 -1.5q-72 0 -134 16.5t-112.5 50.5t-79 92t-28.5 134zM983 1020q83 8 178 32t149 44l54 20q75 31 122 63t60 50.5 t13 32.5q0 34 -72 34q-102 0 -254 -61q-40 -17 -91 -45.5t-105 -78t-54 -91.5zM1157 1663q24 -6 88 -6t80 6l152 -233l-91 -5q-219 234 -229 238z" />
<glyph unicode="&#xc9;" horiz-adv-x="1122" d="M25 193q0 69 27 139t65 120t76 91t65 61l27 21q243 185 624 245q-168 18 -209 107q-58 0 -121.5 9.5t-131.5 31t-112 65.5t-44 105q0 60 42 97.5t99 37.5q53 0 92 -33q-34 -7 -52.5 -33t-18.5 -57q0 -59 64 -109t177 -71q6 65 46 119.5t103 91.5t138 65t156.5 43.5 t152 23t131.5 7.5q197 0 197 -84q0 -54 -57 -108q-79 -68 -250 -124t-322 -75q10 -23 39.5 -45t61.5 -33q17 -6 34 -9.5t25 -3.5l8 -1q17 -1 17 -17q0 -7 -4 -11t-12.5 -6t-15.5 -3t-20 -2t-20 -2q-70 -9 -136 -26t-115 -38t-92 -44t-72.5 -44t-50.5 -38t-30 -28l-10 -10 q-131 -131 -131 -278q0 -70 50.5 -108.5t119.5 -38.5q71 0 158 41t159.5 103t122 140.5t49.5 147.5q0 27 -18.5 44t-52.5 17q-74 0 -161.5 -62t-94.5 -132q0 -13 7.5 -22t18.5 -9t21 10q-3 -37 -25.5 -64.5t-64.5 -27.5q-30 0 -51 19.5t-21 52.5q0 71 64 138.5t150 105.5 t159 38q54 0 89.5 -29.5t35.5 -97.5q0 -44 -18.5 -97.5t-37.5 -85.5l-18 -32q-62 -98 -134.5 -178t-136.5 -130t-133 -87t-119 -54.5t-99.5 -28t-69.5 -12t-35 -1.5q-72 0 -134 16.5t-112.5 50.5t-79 92t-28.5 134zM983 1020q83 8 178 32t149 44l54 20q75 31 122 63t60 50.5 t13 32.5q0 34 -72 34q-102 0 -254 -61q-40 -17 -91 -45.5t-105 -78t-54 -91.5zM1227 1419l192 234l54 -5q13 -1 26 -1q64 0 88 6q-4 -2 -71.5 -61.5t-133.5 -117.5l-65 -59z" />
<glyph unicode="&#xca;" horiz-adv-x="1122" d="M25 193q0 69 27 139t65 120t76 91t65 61l27 21q243 185 624 245q-168 18 -209 107q-58 0 -121.5 9.5t-131.5 31t-112 65.5t-44 105q0 60 42 97.5t99 37.5q53 0 92 -33q-34 -7 -52.5 -33t-18.5 -57q0 -59 64 -109t177 -71q6 65 46 119.5t103 91.5t138 65t156.5 43.5 t152 23t131.5 7.5q197 0 197 -84q0 -54 -57 -108q-79 -68 -250 -124t-322 -75q10 -23 39.5 -45t61.5 -33q17 -6 34 -9.5t25 -3.5l8 -1q17 -1 17 -17q0 -7 -4 -11t-12.5 -6t-15.5 -3t-20 -2t-20 -2q-70 -9 -136 -26t-115 -38t-92 -44t-72.5 -44t-50.5 -38t-30 -28l-10 -10 q-131 -131 -131 -278q0 -70 50.5 -108.5t119.5 -38.5q71 0 158 41t159.5 103t122 140.5t49.5 147.5q0 27 -18.5 44t-52.5 17q-74 0 -161.5 -62t-94.5 -132q0 -13 7.5 -22t18.5 -9t21 10q-3 -37 -25.5 -64.5t-64.5 -27.5q-30 0 -51 19.5t-21 52.5q0 71 64 138.5t150 105.5 t159 38q54 0 89.5 -29.5t35.5 -97.5q0 -44 -18.5 -97.5t-37.5 -85.5l-18 -32q-62 -98 -134.5 -178t-136.5 -130t-133 -87t-119 -54.5t-99.5 -28t-69.5 -12t-35 -1.5q-72 0 -134 16.5t-112.5 50.5t-79 92t-28.5 134zM983 1020q83 8 178 32t149 44l54 20q75 31 122 63t60 50.5 t13 32.5q0 34 -72 34q-102 0 -254 -61q-40 -17 -91 -45.5t-105 -78t-54 -91.5zM1149 1448l414 242l61 -244h-61l-41 172l-295 -170h-78z" />
<glyph unicode="&#xcb;" horiz-adv-x="1122" d="M25 193q0 69 27 139t65 120t76 91t65 61l27 21q243 185 624 245q-168 18 -209 107q-58 0 -121.5 9.5t-131.5 31t-112 65.5t-44 105q0 60 42 97.5t99 37.5q53 0 92 -33q-34 -7 -52.5 -33t-18.5 -57q0 -59 64 -109t177 -71q6 65 46 119.5t103 91.5t138 65t156.5 43.5 t152 23t131.5 7.5q197 0 197 -84q0 -54 -57 -108q-79 -68 -250 -124t-322 -75q10 -23 39.5 -45t61.5 -33q17 -6 34 -9.5t25 -3.5l8 -1q17 -1 17 -17q0 -7 -4 -11t-12.5 -6t-15.5 -3t-20 -2t-20 -2q-70 -9 -136 -26t-115 -38t-92 -44t-72.5 -44t-50.5 -38t-30 -28l-10 -10 q-131 -131 -131 -278q0 -70 50.5 -108.5t119.5 -38.5q71 0 158 41t159.5 103t122 140.5t49.5 147.5q0 27 -18.5 44t-52.5 17q-74 0 -161.5 -62t-94.5 -132q0 -13 7.5 -22t18.5 -9t21 10q-3 -37 -25.5 -64.5t-64.5 -27.5q-30 0 -51 19.5t-21 52.5q0 71 64 138.5t150 105.5 t159 38q54 0 89.5 -29.5t35.5 -97.5q0 -44 -18.5 -97.5t-37.5 -85.5l-18 -32q-62 -98 -134.5 -178t-136.5 -130t-133 -87t-119 -54.5t-99.5 -28t-69.5 -12t-35 -1.5q-72 0 -134 16.5t-112.5 50.5t-79 92t-28.5 134zM983 1020q83 8 178 32t149 44l54 20q75 31 122 63t60 50.5 t13 32.5q0 34 -72 34q-102 0 -254 -61q-40 -17 -91 -45.5t-105 -78t-54 -91.5zM1278 1507q0 46 41 84q35 39 78 39q23 0 41 -18q14 -14 14 -39q0 -48 -45 -90q-34 -37 -74 -37q-23 0 -37 14q-18 18 -18 47zM1503 1507q0 46 41 84q35 39 78 39q23 0 41 -18q14 -14 14 -39 q0 -48 -45 -90q-34 -37 -73 -37q-23 0 -37 14q-19 19 -19 47z" />
<glyph unicode="&#xcc;" horiz-adv-x="972" d="M18 250q2 120 79 213t204 102q21 0 31 -2q-21 -35 -21 -65q2 -46 34 -71.5t93 -25.5q67 0 143.5 53t147.5 146q-147 91 -147 268q0 52 20 102t47 84.5t63 66.5t59.5 47.5t45.5 27.5q114 64 455 131q221 42 321 111q20 12 29 12q11 0 19 -7t8 -18q0 -14 -33 -34 q-58 -36 -131.5 -113t-141.5 -172q-176 -245 -257 -369t-147.5 -240.5t-131.5 -220.5q-60 -95 -125.5 -163t-126.5 -102t-112.5 -49t-102.5 -15q-126 0 -221 82.5t-101 220.5zM692 801q0 -42 17 -87t51 -75q16 17 34.5 39t52.5 64.5t60 74.5l19 21q16 18 60 71.5t82.5 97 t74.5 78.5q133 130 248 218l20 18q-23 -14 -78 -33t-118.5 -40t-137.5 -48.5t-141 -65t-122.5 -83.5t-88.5 -110.5t-33 -139.5zM1157 1663q24 -6 88 -6t80 6l152 -233l-91 -5q-219 234 -229 238z" />
<glyph unicode="&#xcd;" horiz-adv-x="972" d="M18 250q2 120 79 213t204 102q21 0 31 -2q-21 -35 -21 -65q2 -46 34 -71.5t93 -25.5q67 0 143.5 53t147.5 146q-147 91 -147 268q0 52 20 102t47 84.5t63 66.5t59.5 47.5t45.5 27.5q114 64 455 131q221 42 321 111q20 12 29 12q11 0 19 -7t8 -18q0 -14 -33 -34 q-58 -36 -131.5 -113t-141.5 -172q-176 -245 -257 -369t-147.5 -240.5t-131.5 -220.5q-60 -95 -125.5 -163t-126.5 -102t-112.5 -49t-102.5 -15q-126 0 -221 82.5t-101 220.5zM692 801q0 -42 17 -87t51 -75q16 17 34.5 39t52.5 64.5t60 74.5l19 21q16 18 60 71.5t82.5 97 t74.5 78.5q133 130 248 218l20 18q-23 -14 -78 -33t-118.5 -40t-137.5 -48.5t-141 -65t-122.5 -83.5t-88.5 -110.5t-33 -139.5zM1227 1419l192 234l54 -5q13 -1 26 -1q64 0 88 6q-4 -2 -71.5 -61.5t-133.5 -117.5l-65 -59z" />
<glyph unicode="&#xce;" horiz-adv-x="972" d="M18 250q2 120 79 213t204 102q21 0 31 -2q-21 -35 -21 -65q2 -46 34 -71.5t93 -25.5q67 0 143.5 53t147.5 146q-147 91 -147 268q0 52 20 102t47 84.5t63 66.5t59.5 47.5t45.5 27.5q114 64 455 131q221 42 321 111q20 12 29 12q11 0 19 -7t8 -18q0 -14 -33 -34 q-58 -36 -131.5 -113t-141.5 -172q-176 -245 -257 -369t-147.5 -240.5t-131.5 -220.5q-60 -95 -125.5 -163t-126.5 -102t-112.5 -49t-102.5 -15q-126 0 -221 82.5t-101 220.5zM692 801q0 -42 17 -87t51 -75q16 17 34.5 39t52.5 64.5t60 74.5l19 21q16 18 60 71.5t82.5 97 t74.5 78.5q133 130 248 218l20 18q-23 -14 -78 -33t-118.5 -40t-137.5 -48.5t-141 -65t-122.5 -83.5t-88.5 -110.5t-33 -139.5zM1354 1489l413 242l62 -244h-62l-41 172l-294 -170h-78z" />
<glyph unicode="&#xcf;" horiz-adv-x="972" d="M18 254q0 116 78.5 209t204.5 102q21 0 31 -2q-21 -35 -21 -65q2 -46 34 -71.5t93 -25.5q67 0 143.5 53t147.5 146q-147 91 -147 268q0 52 20 102t47 84.5t63 66.5t59.5 47.5t45.5 27.5q114 64 455 131q221 42 321 111q20 12 29 12q11 0 19 -7t8 -18q0 -14 -33 -34 q-58 -36 -131.5 -113t-141.5 -172q-176 -245 -257 -369t-147.5 -240.5t-131.5 -220.5q-60 -95 -125.5 -163t-126.5 -102t-112.5 -49t-102.5 -15q-127 0 -224.5 83.5t-97.5 223.5zM692 801q0 -42 17 -87t51 -75q18 20 66 77.5t83 98.5q72 85 113 132t108 119t135.5 134 t145.5 121q-23 -14 -78 -33t-118.5 -40t-137.5 -48.5t-141 -65t-122.5 -83.5t-88.5 -110.5t-33 -139.5zM1401 1569q0 46 41 84q35 39 78 39q22 0 41 -19q14 -14 14 -39q0 -48 -45 -90q-34 -37 -74 -37q-22 0 -37 15q-18 18 -18 47zM1626 1569q0 46 41 84q35 39 78 39 q22 0 41 -19q14 -14 14 -39q0 -48 -45 -90q-34 -37 -74 -37q-21 0 -36 15q-19 19 -19 47z" />
<glyph unicode="&#xd0;" horiz-adv-x="1619" d="M-84 188q0 55 15 101t39.5 75t53.5 51.5t58 34t53.5 19t39.5 9.5l15 1q-18 -18 -18 -59q0 -35 28 -55.5t66 -20.5q100 2 250 145h-242l72 68h242q69 65 119.5 109.5t128.5 103.5t144 96t148 65.5t158 33.5q49 -3 49 -23q-2 -12 -22 -12q-72 0 -175 -66t-196 -159 q-51 -49 -139 -148h262l-72 -68h-248q-45 -55 -112.5 -143.5t-118 -151.5t-86.5 -102q-120 -127 -268 -127q-93 0 -168.5 61.5t-75.5 161.5zM328 819q0 78 32 166q36 95 106 176t157.5 138.5t189.5 98t205.5 60t202.5 19.5q276 0 422.5 -139t146.5 -380q0 -101 -37 -216.5 t-100.5 -226t-154 -212.5t-191 -179t-217 -123t-228.5 -46q-51 0 -98 11.5t-88 36t-65.5 68.5t-24.5 103q0 78 50 140.5t132 62.5q47 0 83 -27t36 -76q0 -56 -32.5 -84t-82.5 -28q0 53 -51 55q-29 0 -44 -19.5t-15 -45.5q0 -56 48.5 -88.5t100.5 -32.5q90 0 185.5 49.5 t178.5 130.5t158 187t128 216t84.5 220t31.5 198q0 86 -33.5 154.5t-88.5 109.5t-120.5 62.5t-134.5 21.5q-90 0 -172.5 -21.5t-141.5 -55.5t-106 -76.5t-74 -83.5t-38 -78t-11 -66q0 -73 66 -88q49 0 100 31q-29 -136 -106 -228.5t-178 -92.5q-110 0 -160.5 54t-50.5 144z " />
<glyph unicode="&#xd1;" horiz-adv-x="1687" d="M25 168q0 87 48.5 152t122 96.5t160.5 32.5q-32 -24 -32 -66q0 -37 25.5 -61.5t72.5 -24.5q58 0 133.5 41.5t144 99t157 150.5t148.5 163t142 169q235 281 393 428q-114 -80 -270 -80q-35 0 -92.5 5t-81.5 5q-72 0 -122 -33.5t-50 -85.5q0 -35 25 -50t48 -15l9 2 q-2 -21 -11 -48t-28.5 -59.5t-46 -58.5t-68 -44t-90.5 -18q-88 0 -146.5 53t-58.5 144q0 63 28.5 115.5t74 87t105 58t120 34t119.5 10.5q56 0 172 -13.5t180 -13.5q178 0 250 62q14 14 24 14q17 0 17 -14q0 -4 -2.5 -8t-4.5 -6l-2 -2q-1 -2 -20.5 -24.5t-34.5 -45.5 t-29 -75.5t-14 -117.5q0 -55 15.5 -164.5t15.5 -168.5q0 -145 -66 -396q3 4 32.5 54t76.5 127.5t104 167t129.5 191.5t139.5 183q134 165 213 249.5t159 137.5q130 84 236 84q39 0 72.5 -8t63.5 -25.5t47.5 -50t17.5 -77.5q0 -85 -65 -148t-155 -63q-7 0 -43 6q17 0 27 20 t10 43q0 29 -26.5 49.5t-73.5 20.5q-69 0 -149.5 -46t-158.5 -121.5t-161.5 -176.5t-157 -206.5t-147.5 -215.5t-131 -200.5t-108 -164.5t-79 -104l-34 -45q-33 -44 -63.5 -76.5t-45.5 -32.5q-16 0 -16 15q0 6 4 14t10 16.5t8 12.5q37 70 37 149q-1 66 -39.5 200.5 t-38.5 213.5q0 141 50.5 272t142.5 273q-87 -86 -175 -205t-152 -224.5t-158.5 -257.5t-172.5 -264q-80 -113 -187 -191.5t-226 -78.5q-132 0 -214.5 74.5t-82.5 179.5zM1540 1548q0 36 32.5 65t82.5 29q46 0 98.5 -25.5t104.5 -51t98 -25.5q10 0 18 7t8 16t-10 14q4 2 15 2 q20 0 30.5 -12.5t10.5 -32.5q0 -39 -31 -63.5t-74 -24.5q-53 0 -143 38.5t-135 39.5q-17 0 -28 -8t-11 -17q0 -15 12 -20q-39 6 -58.5 24.5t-19.5 44.5z" />
<glyph unicode="&#xd2;" horiz-adv-x="1081" d="M-68 289q0 126 49.5 264.5t133.5 264.5t199.5 241t242.5 199t268 134t271 50q58 0 106.5 -13t63 -21.5t39.5 -25.5q20 -14 20 -28q0 -7 -6 -15t-14 -8q-10 0 -19 6q-53 35 -125 35q-137 0 -283.5 -89t-257.5 -222t-183 -294t-72 -300q0 -99 47 -154t125 -55 q114 0 242.5 91.5t228 223.5t165.5 285.5t66 271.5q0 45 -26 77t-74 32q-100 0 -183.5 -83t-83.5 -175q0 -68 62 -68q11 0 23 2.5t18 4.5l6 2q-14 -50 -47.5 -100.5t-86 -88t-106.5 -37.5q-63 0 -98 43t-35 105q0 74 50.5 160.5t125.5 155.5t166.5 115t169.5 46 q195 0 195 -203q0 -126 -92 -332q-44 -97 -116.5 -209.5t-171 -226.5t-205 -206.5t-227 -151t-227.5 -58.5q-161 0 -252.5 94t-91.5 261zM1096 1683q24 -6 88 -6t80 6l151 -233l-90 -4q-219 233 -229 237z" />
<glyph unicode="&#xd3;" horiz-adv-x="1081" d="M-68 289q0 126 49.5 264.5t133.5 264.5t199.5 241t242.5 199t268 134t271 50q58 0 106.5 -13t63 -21.5t39.5 -25.5q20 -14 20 -28q0 -7 -6 -15t-14 -8q-10 0 -19 6q-53 35 -125 35q-137 0 -283.5 -89t-257.5 -222t-183 -294t-72 -300q0 -99 47 -154t125 -55 q114 0 242.5 91.5t228 223.5t165.5 285.5t66 271.5q0 45 -26 77t-74 32q-100 0 -183.5 -83t-83.5 -175q0 -68 62 -68q11 0 23 2.5t18 4.5l6 2q-14 -50 -47.5 -100.5t-86 -88t-106.5 -37.5q-63 0 -98 43t-35 105q0 74 50.5 160.5t125.5 155.5t166.5 115t169.5 46 q195 0 195 -203q0 -126 -92 -332q-44 -97 -116.5 -209.5t-171 -226.5t-205 -206.5t-227 -151t-227.5 -58.5q-161 0 -252.5 94t-91.5 261zM1108 1493l192 233l54 -5q13 -1 26 -1q64 0 88 6q-4 -2 -71.5 -61t-132.5 -117l-66 -59z" />
<glyph unicode="&#xd4;" horiz-adv-x="1081" d="M-68 289q0 126 49.5 264.5t133.5 264.5t199.5 241t242.5 199t268 134t271 50q58 0 106.5 -13t63 -21.5t39.5 -25.5q20 -14 20 -28q0 -7 -6 -15t-14 -8q-10 0 -19 6q-53 35 -125 35q-137 0 -283.5 -89t-257.5 -222t-183 -294t-72 -300q0 -99 47 -154t125 -55 q114 0 242.5 91.5t228 223.5t165.5 285.5t66 271.5q0 45 -26 77t-74 32q-100 0 -183.5 -83t-83.5 -175q0 -68 62 -68q11 0 23 2.5t18 4.5l6 2q-14 -50 -47.5 -100.5t-86 -88t-106.5 -37.5q-63 0 -98 43t-35 105q0 74 50.5 160.5t125.5 155.5t166.5 115t169.5 46 q195 0 195 -203q0 -126 -92 -332q-44 -97 -116.5 -209.5t-171 -226.5t-205 -206.5t-227 -151t-227.5 -58.5q-161 0 -252.5 94t-91.5 261zM903 1489l414 242l61 -244h-61l-41 172l-295 -170h-78z" />
<glyph unicode="&#xd5;" horiz-adv-x="1081" d="M-68 289q0 126 49.5 264.5t133.5 264.5t199.5 241t242.5 199t268 134t271 50q58 0 106.5 -13t63 -21.5t39.5 -25.5q20 -14 20 -28q0 -7 -6 -15t-14 -8q-10 0 -19 6q-53 35 -125 35q-137 0 -283.5 -89t-257.5 -222t-183 -294t-72 -300q0 -99 47 -154t125 -55 q114 0 242.5 91.5t228 223.5t165.5 285.5t66 271.5q0 45 -26 77t-74 32q-100 0 -183.5 -83t-83.5 -175q0 -68 62 -68q11 0 23 2.5t18 4.5l6 2q-14 -50 -47.5 -100.5t-86 -88t-106.5 -37.5q-63 0 -98 43t-35 105q0 74 50.5 160.5t125.5 155.5t166.5 115t169.5 46 q195 0 195 -203q0 -126 -92 -332q-44 -97 -116.5 -209.5t-171 -226.5t-205 -206.5t-227 -151t-227.5 -58.5q-161 0 -252.5 94t-91.5 261zM1014 1554q0 36 32 65.5t82 29.5q56 0 151 -51.5t151 -51.5q10 0 18 7t8 16t-10 14q4 2 14 2q20 0 30.5 -12.5t10.5 -32.5 q0 -39 -30.5 -63.5t-73.5 -24.5q-53 0 -143.5 38.5t-135.5 39.5q-17 0 -28 -8t-11 -17q0 -15 13 -20q-39 6 -58.5 24.5t-19.5 44.5z" />
<glyph unicode="&#xd6;" horiz-adv-x="1081" d="M-68 289q0 126 49.5 264.5t133.5 264.5t199.5 241t242.5 199t268 134t271 50q58 0 106.5 -13t63 -21.5t39.5 -25.5q20 -14 20 -28q0 -7 -6 -15t-14 -8q-10 0 -19 6q-53 35 -125 35q-137 0 -283.5 -89t-257.5 -222t-183 -294t-72 -300q0 -99 47 -154t125 -55 q114 0 242.5 91.5t228 223.5t165.5 285.5t66 271.5q0 45 -26 77t-74 32q-100 0 -183.5 -83t-83.5 -175q0 -68 62 -68q11 0 23 2.5t18 4.5l6 2q-14 -50 -47.5 -100.5t-86 -88t-106.5 -37.5q-63 0 -98 43t-35 105q0 74 50.5 160.5t125.5 155.5t166.5 115t169.5 46 q195 0 195 -203q0 -126 -92 -332q-44 -97 -116.5 -209.5t-171 -226.5t-205 -206.5t-227 -151t-227.5 -58.5q-161 0 -252.5 94t-91.5 261zM1051 1548q0 46 41 84q35 39 77 39q23 0 41 -18q15 -15 15 -39q0 -48 -45 -90q-34 -37 -74 -37q-23 0 -37 14q-18 18 -18 47z M1276 1548q0 46 41 84q35 39 78 39q23 0 41 -18q14 -14 14 -39q0 -48 -45 -90q-34 -37 -74 -37q-23 0 -37 14q-18 18 -18 47z" />
<glyph unicode="&#xd7;" horiz-adv-x="876" d="M31 272l491 355l27 329h149l-16 -217l297 217h215l-522 -378l-23 -306h-151l14 191l-264 -191h-217z" />
<glyph unicode="&#xd8;" horiz-adv-x="1081" d="M-70 -238l164 213q-78 40 -120 120t-42 194q0 126 49.5 264.5t133.5 264.5t199.5 241t242.5 199t268 134t271 50q58 0 116 -15l115 150h103l-142 -184l17 -11q20 -14 20 -28q0 -7 -6 -15t-14 -8q-10 0 -19 6q-23 14 -31 17l-38 -51q98 -45 98 -185q0 -126 -92 -332 q-44 -97 -116.5 -209.5t-171 -226.5t-205 -206.5t-227 -151t-227.5 -58.5q-52 0 -106 13l-141 -185h-99zM365 467q0 -61 20 -113l281 363q-58 40 -58 127q0 74 50.5 160.5t125.5 155.5t166.5 115t169.5 46h8l41 51h-8q-137 0 -283.5 -89t-257.5 -222t-183 -294t-72 -300z M436 289q42 -31 101 -31q114 0 242.5 91.5t228 223.5t165.5 285.5t66 271.5q0 37 -19.5 66.5t-54.5 38.5l-247 -322h16q11 0 23 2.5t18 4.5l6 2q-23 -79 -88.5 -150.5t-142.5 -75.5zM872 987l181 234q-71 -30 -122 -97t-59 -137z" />
<glyph unicode="&#xd9;" horiz-adv-x="1353" d="M37 186q0 104 40 195.5t101.5 155.5t147 129.5t165.5 114t169.5 113t146.5 122.5q140 140 143 256q0 35 -22 57q-29 29 -88 29q-92 0 -183.5 -54.5t-91.5 -121.5q0 -24 14 -41t35 -17q26 0 41 15q-6 -93 -66 -158.5t-149 -65.5q-66 0 -107.5 38.5t-41.5 101.5 q0 66 37.5 126.5t97 104.5t130.5 77.5t140 50t123 16.5q86 0 151.5 -37.5t65.5 -112.5q0 -54 -21.5 -115t-50.5 -111t-75.5 -109.5t-78 -94.5t-75.5 -82q-6 -6 -43.5 -44t-49.5 -52t-43.5 -50t-45 -59t-32 -56t-25.5 -64.5t-7 -63.5q0 -36 22.5 -61t55.5 -25t79.5 27.5 t90.5 69.5t73.5 73t49.5 55q119 138 354.5 436.5t309.5 386.5q40 -8 61 -8q77 0 215 49q-192 -188 -364 -436t-228 -377q-57 -135 -57 -196q0 -35 20.5 -57.5t51.5 -22.5q40 0 81 39t70 82h33l-50 -76q-50 -75 -113 -161t-148 -159t-150 -73q-86 0 -137 43t-51 121 q0 51 18 113t44 114.5t52 97.5t44 70l18 26q-27 -31 -85.5 -116t-116.5 -162t-129.5 -157t-150.5 -128.5t-153 -48.5q-134 0 -198 75.5t-64 192.5zM1047 1602q28 -7 88 -7q61 0 79 7l152 -234l-90 -4q-219 234 -229 238z" />
<glyph unicode="&#xda;" horiz-adv-x="1353" d="M37 186q0 104 40 195.5t101.5 155.5t147 129.5t165.5 114t169.5 113t146.5 122.5q140 140 143 256q0 35 -22 57q-29 29 -88 29q-92 0 -183.5 -54.5t-91.5 -121.5q0 -24 14 -41t35 -17q26 0 41 15q-6 -93 -66 -158.5t-149 -65.5q-66 0 -107.5 38.5t-41.5 101.5 q0 66 37.5 126.5t97 104.5t130.5 77.5t140 50t123 16.5q86 0 151.5 -37.5t65.5 -112.5q0 -54 -21.5 -115t-50.5 -111t-75.5 -109.5t-78 -94.5t-75.5 -82q-6 -6 -43.5 -44t-49.5 -52t-43.5 -50t-45 -59t-32 -56t-25.5 -64.5t-7 -63.5q0 -36 22.5 -61t55.5 -25t79.5 27.5 t90.5 69.5t73.5 73t49.5 55q119 138 354.5 436.5t309.5 386.5q40 -8 61 -8q77 0 215 49q-192 -188 -364 -436t-228 -377q-57 -135 -57 -196q0 -35 20.5 -57.5t51.5 -22.5q40 0 81 39t70 82h33l-50 -76q-50 -75 -113 -161t-148 -159t-150 -73q-86 0 -137 43t-51 121 q0 51 18 113t44 114.5t52 97.5t44 70l18 26q-27 -31 -85.5 -116t-116.5 -162t-129.5 -157t-150.5 -128.5t-153 -48.5q-134 0 -198 75.5t-64 192.5zM1186 1346l192 233l54 -5q13 -1 26 -1q64 0 88 6q-4 -2 -71.5 -61.5t-132.5 -117.5l-66 -59z" />
<glyph unicode="&#xdb;" horiz-adv-x="1353" d="M37 186q0 104 40 195.5t101.5 155.5t147 129.5t165.5 114t169.5 113t146.5 122.5q140 140 143 256q0 35 -22 57q-29 29 -88 29q-92 0 -183.5 -54.5t-91.5 -121.5q0 -24 14 -41t35 -17q26 0 41 15q-6 -93 -66 -158.5t-149 -65.5q-66 0 -107.5 38.5t-41.5 101.5 q0 66 37.5 126.5t97 104.5t130.5 77.5t140 50t123 16.5q86 0 151.5 -37.5t65.5 -112.5q0 -54 -21.5 -115t-50.5 -111t-75.5 -109.5t-78 -94.5t-75.5 -82q-6 -6 -43.5 -44t-49.5 -52t-43.5 -50t-45 -59t-32 -56t-25.5 -64.5t-7 -63.5q0 -36 22.5 -61t55.5 -25t79.5 27.5 t90.5 69.5t73.5 73t49.5 55q119 138 354.5 436.5t309.5 386.5q40 -8 61 -8q77 0 215 49q-192 -188 -364 -436t-228 -377q-57 -135 -57 -196q0 -35 20.5 -57.5t51.5 -22.5q40 0 81 39t70 82h33l-50 -76q-50 -75 -113 -161t-148 -159t-150 -73q-86 0 -137 43t-51 121 q0 51 18 113t44 114.5t52 97.5t44 70l18 26q-27 -31 -85.5 -116t-116.5 -162t-129.5 -157t-150.5 -128.5t-153 -48.5q-134 0 -198 75.5t-64 192.5zM1087 1458l414 242l62 -244h-62l-41 172l-295 -170h-78z" />
<glyph unicode="&#xdc;" horiz-adv-x="1353" d="M37 186q0 104 40 195.5t101.5 155.5t147 129.5t165.5 114t169.5 113t146.5 122.5q140 140 143 256q0 35 -22 57q-29 29 -88 29q-92 0 -183.5 -54.5t-91.5 -121.5q0 -24 14 -41t35 -17q26 0 41 15q-6 -93 -66 -158.5t-149 -65.5q-66 0 -107.5 38.5t-41.5 101.5 q0 66 37.5 126.5t97 104.5t130.5 77.5t140 50t123 16.5q86 0 151.5 -37.5t65.5 -112.5q0 -54 -21.5 -115t-50.5 -111t-75.5 -109.5t-78 -94.5t-75.5 -82q-6 -6 -43.5 -44t-49.5 -52t-43.5 -50t-45 -59t-32 -56t-25.5 -64.5t-7 -63.5q0 -36 22.5 -61t55.5 -25t79.5 27.5 t90.5 69.5t73.5 73t49.5 55q119 138 354.5 436.5t309.5 386.5q40 -8 61 -8q77 0 215 49q-192 -188 -364 -436t-228 -377q-57 -135 -57 -196q0 -35 20.5 -57.5t51.5 -22.5q40 0 81 39t70 82h33l-50 -76q-50 -75 -113 -161t-148 -159t-150 -73q-86 0 -137 43t-51 121 q0 51 18 113t44 114.5t52 97.5t44 70l18 26q-27 -31 -85.5 -116t-116.5 -162t-129.5 -157t-150.5 -128.5t-153 -48.5q-134 0 -198 75.5t-64 192.5zM1092 1487q0 46 41 84q35 39 77 39q22 0 41 -19q15 -15 15 -39q0 -48 -45 -90q-34 -37 -74 -37q-22 0 -37 15q-18 18 -18 47z M1317 1487q0 46 41 84q35 39 78 39q22 0 41 -19q14 -14 14 -39q0 -48 -45 -90q-34 -37 -74 -37q-22 0 -37 15q-18 18 -18 47z" />
<glyph unicode="&#xdd;" horiz-adv-x="1159" d="M-256 -586q0 69 38 135.5t98.5 118t137 97t154 78t148 56t120.5 35t70 11.5q123 171 259 378l136 207q-25 -27 -69.5 -86t-86 -115.5t-99.5 -122t-112 -113.5t-120.5 -80.5t-128.5 -32.5q-134 0 -198 69.5t-64 179.5q0 84 28.5 157.5t79 131t113 107.5t138 96.5t144.5 88 t143 91.5t124 98q140 132 143 238q0 33 -22 55q-31 27 -89 27t-121.5 -22.5t-108 -61.5t-44.5 -80q0 -22 14 -37.5t35 -15.5q29 0 41 12q-6 -87 -66 -147t-149 -60q-66 0 -107.5 35.5t-41.5 93.5q0 61 37.5 117.5t97 97.5t130.5 71.5t140 46t123 15.5q87 0 152 -34.5 t65 -104.5q0 -62 -29.5 -130t-85.5 -138t-102.5 -119.5t-114.5 -114.5q-43 -42 -60 -59t-54.5 -59.5t-54 -71t-31.5 -68.5t-15 -77q0 -34 23 -57t55 -23q33 0 77 23.5t86 59.5t68.5 62t47.5 49q373 438 645 783q31 -7 61 -7q48 0 109.5 11t98.5 21l38 11 q-126 -143 -237 -282t-186.5 -240t-164.5 -233.5t-135.5 -206t-137 -219.5t-134.5 -215q139 -17 212.5 -66t73.5 -112q0 -83 -75.5 -139t-169.5 -56q-52 0 -68 20q1 0 11 5t24.5 16.5t28.5 26.5t24 38.5t10 49.5q0 46 -27.5 86t-78.5 61q-146 -231 -352 -418 q-94 -86 -215 -143t-240 -57q-81 0 -144 39.5t-63 117.5zM-162 -565q0 -62 82 -66q58 0 125 39q114 64 202 161.5t220 305.5q-224 -59 -356 -135q-35 -21 -76 -51t-88 -72.5t-78 -91t-31 -90.5zM1190 1329l192 234l48 -6q16 -1 32 -1q60 0 88 7q-4 -2 -71.5 -61.5 t-132.5 -117.5l-66 -59z" />
<glyph unicode="&#xdf;" horiz-adv-x="1497" d="M35 317q0 97 40.5 192t108 168.5t164.5 119t203 45.5q141 0 218 -72t77 -178q0 -114 -78.5 -196.5t-183.5 -82.5q-83 0 -140 47q32 15 53 51.5t21 77.5q0 51 -33.5 86t-101.5 35q-108 0 -181 -97t-73 -212q0 -128 89.5 -218.5t221.5 -90.5q63 0 120.5 18.5t101 43.5 t89.5 74t74 84t67 103t56 101.5t53 105.5q3 7 5 10q68 143 147 265q-23 -2 -70 -2q-112 0 -209.5 18t-180.5 56t-131 105.5t-48 158.5q0 107 89.5 176t199.5 69q115 0 158 -69q-85 0 -141 -56.5t-56 -126.5q0 -75 43 -129.5t111.5 -82t136 -40t135.5 -12.5q55 72 120 145 t153 153t176 140.5t188.5 100t189.5 39.5q47 0 82 -21t35 -61t-25 -88t-51 -78q-27 -32 -41.5 -48t-68 -64.5t-105 -82t-138.5 -75t-183 -68.5q-91 -161 -174 -319q-80 -152 -191.5 -273.5t-230 -195t-235.5 -112t-220 -38.5q-113 0 -211.5 47t-161.5 140.5t-63 213.5z M1556 913q147 46 259 129q106 76 183 166t77 138q0 28 -35 28q-54 0 -167.5 -88.5t-162.5 -157.5q-12 -16 -39 -50.5t-54 -72.5t-61 -92z" />
<glyph unicode="&#xe0;" horiz-adv-x="901" d="M-63 145q0 82 42.5 182t115 193.5t159.5 172.5t185 127t182 48q38 0 69 -22q29 -23 29 -68q0 -22 -6 -43l55 82q33 -4 90 -4q72 0 148 8q-218 -341 -266 -423t-48 -115q0 -13 8.5 -24t22.5 -11q26 0 52.5 13.5t54.5 42.5t45.5 50.5t46.5 59.5h34q-70 -104 -112.5 -164 t-93.5 -122.5t-88.5 -93t-80 -50t-87.5 -19.5q-65 4 -96 43t-31 96q0 62 36 144q-9 -10 -46 -55.5t-62.5 -73t-64.5 -63.5t-78.5 -54t-77.5 -18q-64 0 -100.5 46t-36.5 115zM268 313q0 -45 41 -45q17 0 58 27q82 58 194.5 216t112.5 243q0 34 -33 34q-36 -1 -99 -52 t-123 -122t-105 -156t-46 -145zM545 1145q24 -6 88 -6t80 6l151 -234l-90 -4q-219 234 -229 238z" />
<glyph unicode="&#xe1;" horiz-adv-x="901" d="M-63 145q0 82 42.5 182t115 193.5t159.5 172.5t185 127t182 48q40 0 69 -24.5t29 -65.5q0 -22 -6 -43l55 82q33 -4 90 -4q72 0 148 8q-218 -341 -266 -423t-48 -115q0 -13 8.5 -24t22.5 -11q26 0 52.5 13.5t54.5 42.5t45.5 50.5t46.5 59.5h34q-70 -104 -112.5 -164 t-93.5 -122.5t-88.5 -93t-80 -50t-87.5 -19.5q-65 4 -96 43t-31 96q0 62 36 144q-9 -10 -46 -55.5t-62.5 -73t-64.5 -63.5t-78.5 -54t-77.5 -18q-64 0 -100.5 46t-36.5 115zM268 313q0 -45 41 -45q17 0 58 27q82 58 194.5 216t112.5 243q0 34 -33 34q-36 -1 -99 -52 t-123 -122t-105 -156t-46 -145zM598 936l193 238l47 -6q16 -1 32 -1q60 0 88 7q-4 -2 -71.5 -61.5t-132.5 -118.5l-66 -58h-90z" />
<glyph unicode="&#xe2;" horiz-adv-x="901" d="M-63 145q0 82 42.5 182t115 193.5t159.5 172.5t185 127t182 48q40 0 69 -24.5t29 -65.5q0 -22 -6 -43l55 82q33 -4 90 -4q72 0 148 8q-218 -341 -266 -423t-48 -115q0 -13 8.5 -24t22.5 -11q26 0 52.5 13.5t54.5 42.5t45.5 50.5t46.5 59.5h34q-70 -104 -112.5 -164 t-93.5 -122.5t-88.5 -93t-80 -50t-87.5 -19.5q-65 4 -96 43t-31 96q0 62 36 144q-9 -10 -46 -55.5t-62.5 -73t-64.5 -63.5t-78.5 -54t-77.5 -18q-64 0 -100.5 46t-36.5 115zM268 313q0 -45 41 -45q17 0 58 27q82 58 194.5 216t112.5 243q0 34 -33 34q-36 -1 -99 -52 t-123 -122t-105 -156t-46 -145zM365 918l413 241l62 -244h-62l-41 172l-295 -169h-77z" />
<glyph unicode="&#xe3;" horiz-adv-x="901" d="M-63 145q0 82 42.5 182t115 193.5t159.5 172.5t185 127t182 48q40 0 69 -24.5t29 -65.5q0 -22 -6 -43l55 82q33 -4 90 -4q72 0 148 8q-218 -341 -266 -423t-48 -115q0 -13 8.5 -24t22.5 -11q26 0 52.5 13.5t54.5 42.5t45.5 50.5t46.5 59.5h34q-70 -104 -112.5 -164 t-93.5 -122.5t-88.5 -93t-80 -50t-87.5 -19.5q-65 4 -96 43t-31 96q0 62 36 144q-9 -10 -46 -55.5t-62.5 -73t-64.5 -63.5t-78.5 -54t-77.5 -18q-64 0 -100.5 46t-36.5 115zM268 313q0 -45 41 -45q17 0 58 27q82 58 194.5 216t112.5 243q0 34 -33 34q-36 -1 -99 -52 t-123 -122t-105 -156t-46 -145zM506 1014q0 36 32.5 65t82.5 29q46 0 98.5 -25.5t104.5 -51t98 -25.5q11 0 18.5 6.5t7.5 15.5t-10 14q4 2 14 2q20 0 30.5 -12.5t10.5 -32.5q0 -39 -30.5 -63.5t-73.5 -24.5q-53 0 -143.5 38.5t-135.5 39.5q-17 0 -28 -8t-11 -16 q0 -16 13 -21q-39 6 -58.5 25t-19.5 45z" />
<glyph unicode="&#xe4;" horiz-adv-x="901" d="M-63 145q0 82 42.5 182t115 193.5t159.5 172.5t185 127t182 48q40 0 69 -24.5t29 -65.5q0 -22 -6 -43l55 82q33 -4 90 -4q72 0 148 8q-218 -341 -266 -423t-48 -115q0 -13 8.5 -24t22.5 -11q26 0 52.5 13.5t54.5 42.5t45.5 50.5t46.5 59.5h34q-70 -104 -112.5 -164 t-93.5 -122.5t-88.5 -93t-80 -50t-87.5 -19.5q-65 4 -96 43t-31 96q0 62 36 144q-9 -10 -46 -55.5t-62.5 -73t-64.5 -63.5t-78.5 -54t-77.5 -18q-64 0 -100.5 46t-36.5 115zM268 313q0 -45 41 -45q17 0 58 27q82 58 194.5 216t112.5 243q0 34 -33 34q-36 -1 -99 -52 t-123 -122t-105 -156t-46 -145zM600 1016q0 46 41 84q35 39 78 39q22 0 41 -19q14 -14 14 -39q0 -48 -45 -90q-34 -37 -74 -37q-22 0 -37 15q-18 18 -18 47zM825 1016q0 46 41 84q35 39 78 39q22 0 41 -19q14 -14 14 -39q0 -48 -45 -90q-34 -37 -73 -37q-22 0 -37 15 q-19 19 -19 47z" />
<glyph unicode="&#xe5;" horiz-adv-x="901" d="M-63 145q0 82 42.5 182t115 193.5t159.5 172.5t185 127t182 48q40 0 69 -24.5t29 -65.5q0 -22 -6 -43l55 82q33 -4 90 -4q72 0 148 8q-218 -341 -266 -423t-48 -115q0 -13 8.5 -24t22.5 -11q26 0 52.5 13.5t54.5 42.5t45.5 50.5t46.5 59.5h34q-70 -104 -112.5 -164 t-93.5 -122.5t-88.5 -93t-80 -50t-87.5 -19.5q-65 4 -96 43t-31 96q0 62 36 144q-9 -10 -46 -55.5t-62.5 -73t-64.5 -63.5t-78.5 -54t-77.5 -18q-64 0 -100.5 46t-36.5 115zM268 313q0 -45 41 -45q17 0 58 27q82 58 194.5 216t112.5 243q0 34 -33 34q-36 -1 -99 -52 t-123 -122t-105 -156t-46 -145zM614 995q0 56 52 105q53 53 122 53q40 0 70 -23q35 -25 35 -71q0 -54 -51 -105q-56 -53 -123 -53q-37 0 -70 23q-35 27 -35 71zM637 997q0 -31 27 -55q29 -18 57 -18q56 0 104 45q43 40 43 88q0 38 -26 55q-24 18 -58 18q-38 0 -75 -22 t-54.5 -53.5t-17.5 -57.5z" />
<glyph unicode="&#xe6;" horiz-adv-x="942" d="M-369 1221q0 55 35 97t90 64t110.5 32.5t108.5 10.5q94 -1 194 -27t169.5 -57.5t169 -78.5t160.5 -70q558 651 1106 651q99 0 155 -39.5t56 -109.5q0 -114 -140 -250q-173 -168 -416 -261t-485 -93q-76 0 -127 10q-168 -222 -346 -547q50 62 116 122t153.5 109.5 t158.5 49.5q10 0 22.5 -2t31 -8.5t30.5 -23.5t12 -42q0 -24 -15.5 -60t-51 -82t-86 -89t-129.5 -80.5t-172 -55.5q3 -58 55 -104.5t127 -46.5q68 0 123.5 43.5t122.5 130.5h32q-31 -47 -50 -75.5t-58 -81.5t-68 -87t-72 -77t-79.5 -68t-80 -42.5t-83.5 -17.5q-74 0 -123 60 t-49 141q0 61 39 209l-246 -387q-39 10 -113 10q-36 0 -77 -2.5t-63 -5.5l-23 -2q109 149 216.5 329t209.5 334q-53 -20 -103.5 -80t-154.5 -211h-35q14 20 50.5 73t53.5 76.5t50 64.5t56 62t54 41.5t61 27.5q167 258 322 446q-78 28 -204.5 85t-211 83.5t-168.5 26.5 q-47 0 -90.5 -13t-75 -42.5t-32.5 -69.5q0 -34 31.5 -68.5t92.5 -44.5q-52 -41 -124 -41q-48 0 -96.5 15t-87 51.5t-38.5 87.5zM399 414q16 4 42 11t84.5 33t90.5 56q33 31 54 62t26.5 46t5.5 23q0 19 -20 19q-45 0 -168 -117q-16 -15 -44.5 -48t-49.5 -59zM852 1143 q54 -4 82 -4q227 0 467 99.5t391 250.5q104 104 104 186q0 42 -28 62t-68 20q-130 0 -264.5 -51.5t-256 -142t-225.5 -193.5t-202 -227z" />
<glyph unicode="&#xe7;" horiz-adv-x="622" d="M-90 -287q0 27 22 46.5t50 19.5q43 0 43 -35q0 -14 -7.5 -23t-15.5 -11l-8 -3q0 14 -14 14q-13 0 -21 -8.5t-8 -19.5q0 -19 16.5 -28t38.5 -9q65 0 130 58.5t65 127.5q0 16 -6.5 27t-13.5 15l-7 3q-14 7 -41 7q-33 0 -55 -11q-23 -6 -33 -14q-2 -1 -4.5 -3.5t-3.5 -2.5 q-6 0 -6 8q0 4 2 10l73 96q-68 15 -109.5 66.5t-41.5 126.5q0 112 62 237.5t155.5 225t210.5 166.5t221 69q29 0 48.5 -4t37 -22t17.5 -51q0 -42 -27.5 -103t-75 -110.5t-94.5 -49.5q-22 0 -38.5 12.5t-16.5 37.5q0 70 65 135q37 37 86 65q23 13 23 25q0 8 -11 8 q-6 0 -14 -4q-65 -29 -142.5 -111t-132.5 -184t-55 -178q0 -102 91 -115q83 0 151 54t131 141h33q-294 -445 -516 -445q-17 0 -25 2l-45 -57q44 33 105 33q40 0 71 -21.5t31 -62.5q0 -52 -45 -105q-44 -54 -111 -88.5t-137 -34.5q-53 0 -82 29q-16 18 -16 49z" />
<glyph unicode="&#xe8;" horiz-adv-x="634" d="M-47 178q0 84 41 182t110 186t153 161.5t178.5 117.5t176.5 45q43 0 74 -18t31 -57q0 -51 -47 -113q-30 -38 -81 -86t-135.5 -100.5t-162.5 -67.5q-11 -24 -17.5 -50.5t-7.5 -41.5v-14q0 -45 28.5 -76t70.5 -31q146 0 286 191h33q-43 -66 -81 -118.5t-93 -116.5 t-106 -106.5t-114 -72t-122 -29.5q-100 0 -157.5 58.5t-57.5 156.5zM315 481q60 23 191 140q14 14 35 36.5t56.5 69.5t35.5 68q0 14 -12 14q-24 0 -68.5 -34.5t-89.5 -84.5q-49 -56 -90.5 -115.5t-57.5 -93.5zM545 1145q24 -6 88 -6t80 6l151 -234l-90 -4q-219 234 -229 238 z" />
<glyph unicode="&#xe9;" horiz-adv-x="634" d="M-47 178q0 84 41 182t110 186t153 161.5t178.5 117.5t176.5 45q43 0 74 -18t31 -57q0 -51 -47 -113q-30 -38 -81 -86t-135.5 -100.5t-162.5 -67.5q-11 -24 -17.5 -50.5t-7.5 -41.5v-14q0 -45 28.5 -76t70.5 -31q146 0 286 191h33q-43 -66 -81 -118.5t-93 -116.5 t-106 -106.5t-114 -72t-122 -29.5q-100 0 -157.5 58.5t-57.5 156.5zM315 481q60 23 191 140q14 14 35 36.5t56.5 69.5t35.5 68q0 14 -12 14q-24 0 -68.5 -34.5t-89.5 -84.5q-49 -56 -90.5 -115.5t-57.5 -93.5zM598 936l193 238l47 -6q16 -1 32 -1q60 0 88 7 q-4 -2 -71.5 -61.5t-132.5 -118.5l-66 -58h-90z" />
<glyph unicode="&#xea;" horiz-adv-x="634" d="M-47 178q0 84 41 182t110 186t153 161.5t178.5 117.5t176.5 45q43 0 74 -18t31 -57q0 -51 -47 -113q-30 -38 -81 -86t-135.5 -100.5t-162.5 -67.5q-11 -24 -17.5 -50.5t-7.5 -41.5v-14q0 -45 28.5 -76t70.5 -31q146 0 286 191h33q-43 -66 -81 -118.5t-93 -116.5 t-106 -106.5t-114 -72t-122 -29.5q-100 0 -157.5 58.5t-57.5 156.5zM315 481q60 23 191 140q14 14 35 36.5t56.5 69.5t35.5 68q0 14 -12 14q-24 0 -68.5 -34.5t-89.5 -84.5q-49 -56 -90.5 -115.5t-57.5 -93.5zM365 918l413 241l62 -244h-62l-41 172l-295 -169h-77z" />
<glyph unicode="&#xeb;" horiz-adv-x="634" d="M-47 178q0 84 41 182t110 186t153 161.5t178.5 117.5t176.5 45q43 0 74 -18t31 -57q0 -51 -47 -113q-30 -38 -81 -86t-135.5 -100.5t-162.5 -67.5q-11 -24 -17.5 -50.5t-7.5 -41.5v-14q0 -45 28.5 -76t70.5 -31q146 0 286 191h33q-43 -66 -81 -118.5t-93 -116.5 t-106 -106.5t-114 -72t-122 -29.5q-100 0 -157.5 58.5t-57.5 156.5zM315 481q60 23 191 140q14 14 35 36.5t56.5 69.5t35.5 68q0 14 -12 14q-24 0 -68.5 -34.5t-89.5 -84.5q-49 -56 -90.5 -115.5t-57.5 -93.5zM457 1016q0 46 41 84q35 39 77 39q22 0 41 -19q15 -15 15 -39 q0 -48 -45 -90q-34 -37 -74 -37q-22 0 -37 15q-18 18 -18 47zM682 1016q0 46 41 84q35 39 78 39q22 0 41 -19q14 -14 14 -39q0 -48 -45 -90q-34 -37 -74 -37q-22 0 -37 15q-18 18 -18 47z" />
<glyph unicode="&#xec;" horiz-adv-x="587" d="M-20 360q207 284 296 371.5t187 87.5q54 0 92.5 -24.5t38.5 -75.5q0 -49 -32 -111.5t-70.5 -113t-70.5 -108.5t-32 -99q0 -15 13 -25t32 -10q25 0 53 19.5t46 40.5t44.5 56.5t34.5 45.5h31q-27 -45 -61.5 -95t-87 -115.5t-103 -116t-108.5 -85.5t-105 -35 q-65 0 -109 41.5t-44 108.5q0 122 178 348q18 23 52 65t50 63t36 48.5t28 45.5t8 32q0 22 -19 22q-21 0 -46 -19t-99 -106t-199 -256h-34zM422 1104q24 -6 88 -6t80 6l151 -234l-90 -4q-219 234 -229 238z" />
<glyph unicode="&#xed;" horiz-adv-x="587" d="M-20 360q207 284 296 371.5t187 87.5q54 0 92.5 -24.5t38.5 -75.5q0 -49 -32 -111.5t-70.5 -113t-70.5 -108.5t-32 -99q0 -15 13 -25t32 -10q25 0 53 19.5t46 40.5t44.5 56.5t34.5 45.5h31q-27 -45 -61.5 -95t-87 -115.5t-103 -116t-108.5 -85.5t-105 -35 q-65 0 -109 41.5t-44 108.5q0 122 178 348q18 23 52 65t50 63t36 48.5t28 45.5t8 32q0 22 -19 22q-21 0 -46 -19t-99 -106t-199 -256h-34zM516 895l193 238l47 -6q16 -1 32 -1q61 0 89 7q-4 -2 -72 -61.5t-133 -117.5l-66 -59h-90z" />
<glyph unicode="&#xee;" horiz-adv-x="587" d="M-20 360q207 284 296 371.5t187 87.5q54 0 92.5 -24.5t38.5 -75.5q0 -49 -32 -111.5t-70.5 -113t-70.5 -108.5t-32 -99q0 -15 13 -25t32 -10q25 0 53 19.5t46 40.5t44.5 56.5t34.5 45.5h31q-27 -45 -61.5 -95t-87 -115.5t-103 -116t-108.5 -85.5t-105 -35 q-65 0 -109 41.5t-44 108.5q0 122 178 348q18 23 52 65t50 63t36 48.5t28 45.5t8 32q0 22 -19 22q-21 0 -46 -19t-99 -106t-199 -256h-34zM324 897l413 242l62 -244h-62l-41 172l-295 -170h-77z" />
<glyph unicode="&#xef;" horiz-adv-x="587" d="M-20 360q207 284 296 371.5t187 87.5q54 0 92.5 -24.5t38.5 -75.5q0 -49 -32 -111.5t-70.5 -113t-70.5 -108.5t-32 -99q0 -15 13 -25t32 -10q25 0 53 19.5t46 40.5t44.5 56.5t34.5 45.5h31q-27 -45 -61.5 -95t-87 -115.5t-103 -116t-108.5 -85.5t-105 -35 q-65 0 -109 41.5t-44 108.5q0 122 178 348q18 23 52 65t50 63t36 48.5t28 45.5t8 32q0 22 -19 22q-21 0 -46 -19t-99 -106t-199 -256h-34zM395 954q0 46 41 84q35 39 78 39q23 0 41 -18q14 -14 14 -39q0 -48 -45 -90q-34 -37 -73 -37q-23 0 -37 14q-19 19 -19 47zM621 954 q0 46 41 84q35 39 77 39q23 0 41 -18q15 -15 15 -39q0 -48 -45 -90q-34 -37 -74 -37q-23 0 -37 14q-18 18 -18 47z" />
<glyph unicode="&#xf0;" horiz-adv-x="866" d="M-201 877q0 7 8 10q46 28 136 28q174 0 381 -114l225 61l6 -47l-174 -47l6 -4q206 -130 324 -309t118 -316q0 -43 -16 -76t-39 -50.5t-52 -28.5t-49.5 -14t-37.5 -3q-137 0 -264.5 64t-214.5 190q-76 110 -76 195q0 56 32.5 94.5t90.5 52.5q30 6 59 6q48 0 100 -16.5 t80 -32.5l27 -16q-118 139 -229 227l-250 -67l-4 47l207 55q-166 111 -310 111q-12 0 -35.5 -3.5t-37.5 -3.5q-11 0 -11 7zM250 469q7 -81 110 -227q69 -96 155.5 -164.5t148.5 -69.5q41 0 41 58q0 74 -103 217q-63 89 -156.5 164t-146.5 75q-24 0 -36.5 -15t-12.5 -38z" />
<glyph unicode="&#xf1;" horiz-adv-x="1021" d="M-72 -16q86 12 146 12q36 0 67.5 -3t45.5 -6l14 -3q8 14 39 65.5t43 70.5t39 63.5t44.5 71t42.5 64t48.5 70t48.5 64.5q37 47 48 61.5t50 63t60 70t52 53t53.5 44.5t39.5 13q16 0 16 -23q0 -14 -9 -33.5t-31 -50t-39.5 -52.5t-53.5 -67t-53 -67q-178 -226 -178 -348 q0 -67 44 -108.5t109 -41.5q47 0 105 35t108.5 85.5t103 116t87 115.5t61.5 95h-30q-8 -10 -35 -45.5t-44.5 -56.5t-46 -40.5t-53.5 -19.5q-19 0 -32 10t-13 25q0 41 35 102t77 114.5t77 119t35 114.5q0 52 -37.5 79.5t-89.5 27.5q-50 0 -96 -18.5t-96 -61.5t-83 -77.5 t-92 -102.5q27 61 27 108q0 57 -36.5 93t-109.5 36q-107 0 -217 -137q-75 -93 -235 -324h34q182 248 254 328q54 60 90 60q21 0 21 -27q0 -24 -37 -85.5t-209 -327.5q-125 -194 -209 -324zM504 1008q0 36 32 65t82 29q56 0 151 -51.5t151 -51.5q10 0 18 7t8 16t-10 14 q4 2 14 2q20 0 30.5 -12.5t10.5 -32.5q0 -39 -30.5 -63.5t-73.5 -24.5q-53 0 -143.5 38.5t-135.5 39.5q-17 0 -28 -8t-11 -17q0 -15 13 -20q-39 6 -58.5 25t-19.5 45z" />
<glyph unicode="&#xf2;" horiz-adv-x="694" d="M-49 160q0 111 63.5 237.5t160.5 228.5t220 170t234 68q57 0 88 -33.5t31 -95.5q0 -177 -144 -395q2 0 8 -1t9 -1q21 0 41.5 14t30.5 26.5t28 37.5h35q-69 -119 -150 -119q-8 0 -28 4q-35 -50 -65 -88.5t-76.5 -88t-90 -81.5t-100 -55t-111.5 -23q-82 0 -133 54.5 t-51 140.5zM295 358q0 -41 22.5 -65.5t65.5 -24.5q24 0 64 20.5t61 51.5q-39 33 -39 84q0 47 28.5 107.5t75.5 105.5t91 45q21 0 34 -16q9 31 9 53q0 67 -50 67q-55 0 -120.5 -45t-118 -109.5t-88 -140t-35.5 -133.5zM551 1145q24 -6 88 -6t80 6l151 -238h-90 q-219 234 -229 238z" />
<glyph unicode="&#xf3;" horiz-adv-x="694" d="M-49 160q0 111 63.5 237.5t160.5 228.5t220 170t234 68q57 0 88 -33.5t31 -95.5q0 -177 -144 -395q2 0 8 -1t9 -1q21 0 41.5 14t30.5 26.5t28 37.5h35q-69 -119 -150 -119q-8 0 -28 4q-35 -50 -65 -88.5t-76.5 -88t-90 -81.5t-100 -55t-111.5 -23q-82 0 -133 54.5 t-51 140.5zM295 358q0 -41 22.5 -65.5t65.5 -24.5q24 0 64 20.5t61 51.5q-39 33 -39 84q0 47 28.5 107.5t75.5 105.5t91 45q21 0 34 -16q9 31 9 53q0 67 -50 67q-55 0 -120.5 -45t-118 -109.5t-88 -140t-35.5 -133.5zM598 936l193 238l47 -6q16 -1 32 -1q60 0 88 7 q-4 -2 -71.5 -61.5t-132.5 -118.5l-66 -58h-90z" />
<glyph unicode="&#xf4;" horiz-adv-x="694" d="M-49 160q0 111 63.5 237.5t160.5 228.5t220 170t234 68q57 0 88 -33.5t31 -95.5q0 -177 -144 -395q2 0 8 -1t9 -1q21 0 41.5 14t30.5 26.5t28 37.5h35q-69 -119 -150 -119q-8 0 -28 4q-35 -50 -65 -88.5t-76.5 -88t-90 -81.5t-100 -55t-111.5 -23q-82 0 -133 54.5 t-51 140.5zM295 358q0 -41 22.5 -65.5t65.5 -24.5q24 0 64 20.5t61 51.5q-39 33 -39 84q0 47 28.5 107.5t75.5 105.5t91 45q21 0 34 -16q9 31 9 53q0 67 -50 67q-55 0 -120.5 -45t-118 -109.5t-88 -140t-35.5 -133.5zM365 897l413 242l62 -244h-62l-41 172l-295 -170h-77z " />
<glyph unicode="&#xf5;" horiz-adv-x="694" d="M-49 160q0 111 63.5 237.5t160.5 228.5t220 170t234 68q57 0 88 -33.5t31 -95.5q0 -177 -144 -395q2 0 8 -1t9 -1q21 0 41.5 14t30.5 26.5t28 37.5h35q-69 -119 -150 -119q-8 0 -28 4q-35 -50 -65 -88.5t-76.5 -88t-90 -81.5t-100 -55t-111.5 -23q-82 0 -133 54.5 t-51 140.5zM295 358q0 -41 22.5 -65.5t65.5 -24.5q24 0 64 20.5t61 51.5q-39 33 -39 84q0 47 28.5 107.5t75.5 105.5t91 45q21 0 34 -16q9 31 9 53q0 67 -50 67q-55 0 -120.5 -45t-118 -109.5t-88 -140t-35.5 -133.5zM444 1008q0 36 32.5 65t82.5 29q46 0 98.5 -26 t104.5 -51.5t98 -25.5q11 0 19 7t8 16t-10 14q4 2 14 2q20 0 30.5 -12.5t10.5 -32.5q0 -39 -31 -63.5t-74 -24.5q-53 0 -143 38.5t-135 39.5q-17 0 -28 -8t-11 -17q0 -15 12 -20q-39 6 -58.5 25t-19.5 45z" />
<glyph unicode="&#xf6;" horiz-adv-x="694" d="M-49 160q0 111 63.5 237.5t160.5 228.5t220 170t234 68q57 0 88 -33.5t31 -95.5q0 -177 -144 -395q2 0 8 -1t9 -1q21 0 41.5 14t30.5 26.5t28 37.5h35q-69 -119 -150 -119q-8 0 -28 4q-35 -50 -65 -88.5t-76.5 -88t-90 -81.5t-100 -55t-111.5 -23q-82 0 -133 54.5 t-51 140.5zM295 358q0 -41 22.5 -65.5t65.5 -24.5q24 0 64 20.5t61 51.5q-39 33 -39 84q0 47 28.5 107.5t75.5 105.5t91 45q21 0 34 -16q9 31 9 53q0 67 -50 67q-55 0 -120.5 -45t-118 -109.5t-88 -140t-35.5 -133.5zM518 995q0 46 41 84q35 39 78 39q23 0 41 -18 q14 -14 14 -39q0 -48 -45 -90q-34 -37 -74 -37q-22 0 -36 14q-19 19 -19 47zM743 995q0 46 41 84q35 39 78 39q23 0 41 -18q15 -15 15 -39q0 -47 -46 -90q-34 -37 -73 -37q-23 0 -37 14q-19 19 -19 47z" />
<glyph unicode="&#xf7;" horiz-adv-x="665" d="M25 545l59 61h559l-63 -61h-555zM143 352q0 45 41 86q44 39 82 39q23 0 41 -18q15 -15 15 -39q0 -47 -46 -96q-35 -35 -75 -35q-18 0 -39 14q-19 19 -19 49zM336 737q0 46 43 86q35 39 80 39q22 0 39.5 -16.5t17.5 -40.5q0 -47 -45 -92q-46 -39 -78 -39q-23 0 -40 19 t-17 44z" />
<glyph unicode="&#xf8;" horiz-adv-x="694" d="M-51 -129l86 121q-39 25 -61.5 69t-22.5 99q0 111 63.5 237.5t160.5 228.5t220 170t234 68q10 0 30 -4l78 109h43l-86 -121q54 -31 54 -113q0 -177 -144 -395q2 0 8 -1t9 -1q21 0 41.5 14t30.5 26.5t28 37.5h35q-69 -119 -150 -119q-8 0 -28 4q-35 -50 -65 -88.5 t-76.5 -88t-90 -81.5t-100 -55t-111.5 -23q-39 0 -69 12l-76 -106h-41zM295 358l303 416q-69 -27 -140.5 -100t-117 -161t-45.5 -155zM305 309q18 -41 78 -41q24 0 64 20.5t61 51.5q-39 33 -39 84q0 47 28.5 107.5t75.5 105.5t91 45q21 0 34 -16q9 31 9 53q0 67 -50 67h-8z " />
<glyph unicode="&#xf9;" horiz-adv-x="1028" d="M-20 360q207 284 296 371.5t187 87.5q54 0 92.5 -24.5t38.5 -75.5q0 -49 -32 -111.5t-70.5 -113t-70.5 -108.5t-32 -99q0 -15 13 -25t32 -10q86 0 266 268l189 283q33 -4 90 -4q71 0 147 8q-211 -330 -257 -410t-46 -114q0 -13 8.5 -24t22.5 -11q26 0 52.5 13.5 t54.5 42.5t45.5 50.5t46.5 59.5h34q-70 -104 -112.5 -164t-93.5 -122.5t-88.5 -93t-80 -50t-87.5 -19.5q-64 0 -95.5 40t-31.5 99q0 51 41 144q-86 -110 -188 -195.5t-173 -85.5q-65 0 -109 41.5t-44 108.5q0 122 178 348q18 23 52 65t50 63t36 48.5t28 45.5t8 32 q0 22 -19 22q-21 0 -46 -19t-99 -106t-199 -256h-34zM551 1145q24 -6 88 -6t80 6l151 -238h-90q-219 234 -229 238z" />
<glyph unicode="&#xfa;" horiz-adv-x="1028" d="M-20 360q207 284 296 371.5t187 87.5q54 0 92.5 -24.5t38.5 -75.5q0 -49 -32 -111.5t-70.5 -113t-70.5 -108.5t-32 -99q0 -15 13 -25t32 -10q86 0 266 268l189 283q33 -4 90 -4q71 0 147 8q-211 -330 -257 -410t-46 -114q0 -13 8.5 -24t22.5 -11q26 0 52.5 13.5 t54.5 42.5t45.5 50.5t46.5 59.5h34q-70 -104 -112.5 -164t-93.5 -122.5t-88.5 -93t-80 -50t-87.5 -19.5q-64 0 -95.5 40t-31.5 99q0 51 41 144q-86 -110 -188 -195.5t-173 -85.5q-65 0 -109 41.5t-44 108.5q0 122 178 348q18 23 52 65t50 63t36 48.5t28 45.5t8 32 q0 22 -19 22q-21 0 -46 -19t-99 -106t-199 -256h-34zM680 874l192 238l54 -5q13 -1 26 -1q64 0 88 6q-4 -2 -71.5 -61.5t-132.5 -118.5l-66 -58h-90z" />
<glyph unicode="&#xfb;" horiz-adv-x="1028" d="M-20 360q207 284 296 371.5t187 87.5q54 0 92.5 -24.5t38.5 -75.5q0 -49 -32 -111.5t-70.5 -113t-70.5 -108.5t-32 -99q0 -15 13 -25t32 -10q86 0 266 268l189 283q33 -4 90 -4q71 0 147 8q-211 -330 -257 -410t-46 -114q0 -13 8.5 -24t22.5 -11q26 0 52.5 13.5 t54.5 42.5t45.5 50.5t46.5 59.5h34q-70 -104 -112.5 -164t-93.5 -122.5t-88.5 -93t-80 -50t-87.5 -19.5q-64 0 -95.5 40t-31.5 99q0 51 41 144q-86 -110 -188 -195.5t-173 -85.5q-65 0 -109 41.5t-44 108.5q0 122 178 348q18 23 52 65t50 63t36 48.5t28 45.5t8 32 q0 22 -19 22q-21 0 -46 -19t-99 -106t-199 -256h-34zM528 897l414 242l62 -244h-62l-41 172l-295 -170h-78z" />
<glyph unicode="&#xfc;" horiz-adv-x="1028" d="M-20 360q207 284 296 371.5t187 87.5q54 0 92.5 -24.5t38.5 -75.5q0 -49 -32 -111.5t-70.5 -113t-70.5 -108.5t-32 -99q0 -15 13 -25t32 -10q86 0 266 268l189 283q33 -4 90 -4q71 0 147 8q-211 -330 -257 -410t-46 -114q0 -13 8.5 -24t22.5 -11q26 0 52.5 13.5 t54.5 42.5t45.5 50.5t46.5 59.5h34q-70 -104 -112.5 -164t-93.5 -122.5t-88.5 -93t-80 -50t-87.5 -19.5q-64 0 -95.5 40t-31.5 99q0 51 41 144q-86 -110 -188 -195.5t-173 -85.5q-65 0 -109 41.5t-44 108.5q0 122 178 348q18 23 52 65t50 63t36 48.5t28 45.5t8 32 q0 22 -19 22q-21 0 -46 -19t-99 -106t-199 -256h-34zM600 954q0 46 41 84q35 39 78 39q23 0 41 -18q14 -14 14 -39q0 -48 -45 -90q-34 -37 -74 -37q-23 0 -37 14q-18 18 -18 47zM825 954q0 46 41 84q35 39 78 39q23 0 41 -18q14 -14 14 -39q0 -48 -45 -90q-34 -37 -73 -37 q-23 0 -37 14q-19 19 -19 47z" />
<glyph unicode="&#xfd;" horiz-adv-x="948" d="M-256 -573q0 74 55 149t144 158q82 79 205 149t243 103l178 278q-44 -56 -75.5 -92.5t-75 -79t-80.5 -67.5t-82.5 -41.5t-91.5 -16.5q-59 0 -99 43t-40 107q0 122 178 348q14 18 52 65.5t52 66t36 49.5t30 49t8 32q0 23 -19 23q-20 0 -47 -21.5t-101 -110t-200 -258.5 h-34q88 121 140 189t105 130t89.5 89.5t74 43t78.5 15.5q54 0 92.5 -24.5t38.5 -75.5q0 -40 -21.5 -89t-52 -94t-61.5 -89.5t-52.5 -89t-21.5 -78.5q0 -15 13 -25t32 -10q86 0 266 268l189 283q33 -4 90 -4q71 0 147 8q0 2 -39 -62.5t-100.5 -166.5t-127 -210.5t-128 -211 t-94.5 -152.5q199 -17 199 -108q0 -44 -45 -79.5t-89 -35.5q35 16 35 61q0 87 -139 105q-34 -53 -67.5 -101t-84.5 -114t-99.5 -120.5t-109.5 -110.5t-119 -95t-123 -63.5t-126 -24.5q-55 0 -90 27t-35 82zM-172 -541q0 -22 25 -22q52 0 153 86.5t195.5 197t148.5 197.5 q-59 -18 -117 -47t-99 -57t-73.5 -53t-48.5 -41l-16 -15q-13 -12 -33 -31.5t-62.5 -72.5t-60.5 -97q-12 -30 -12 -45zM698 895l193 238l48 -6q16 -1 32 -1q60 0 88 7q-4 -2 -72 -61.5t-133 -117.5l-66 -59h-90z" />
<glyph unicode="&#xff;" horiz-adv-x="948" d="M-256 -573q0 74 55 149t144 158q82 79 205 149t243 103l178 278q-44 -56 -75.5 -92.5t-75 -79t-80.5 -67.5t-82.5 -41.5t-91.5 -16.5q-59 0 -99 43t-40 107q0 122 178 348q14 18 52 65.5t52 66t36 49.5t30 49t8 32q0 23 -19 23q-20 0 -47 -21.5t-101 -110t-200 -258.5 h-34q88 121 140 189t105 130t89.5 89.5t74 43t78.5 15.5q54 0 92.5 -24.5t38.5 -75.5q0 -40 -21.5 -89t-52 -94t-61.5 -89.5t-52.5 -89t-21.5 -78.5q0 -15 13 -25t32 -10q86 0 266 268l189 283q33 -4 90 -4q71 0 147 8q0 2 -39 -62.5t-100.5 -166.5t-127 -210.5t-128 -211 t-94.5 -152.5q199 -17 199 -108q0 -44 -45 -79.5t-89 -35.5q35 16 35 61q0 87 -139 105q-34 -53 -67.5 -101t-84.5 -114t-99.5 -120.5t-109.5 -110.5t-119 -95t-123 -63.5t-126 -24.5q-55 0 -90 27t-35 82zM-172 -541q0 -22 25 -22q52 0 153 86.5t195.5 197t148.5 197.5 q-59 -18 -117 -47t-99 -57t-73.5 -53t-48.5 -41l-16 -15q-13 -12 -33 -31.5t-62.5 -72.5t-60.5 -97q-12 -30 -12 -45zM600 954q0 46 41 84q35 39 78 39q23 0 41 -18q14 -14 14 -39q0 -48 -45 -90q-34 -37 -74 -37q-23 0 -37 14q-18 18 -18 47zM825 954q0 46 41 84 q35 39 78 39q23 0 41 -18q14 -14 14 -39q0 -48 -45 -90q-34 -37 -73 -37q-23 0 -37 14q-19 19 -19 47z" />
<glyph unicode="&#x152;" horiz-adv-x="1794" d="M-68 289q0 126 49.5 264.5t133.5 264.5t199.5 241t242.5 199t268 134t271 50q58 0 106.5 -13t63 -21.5t39.5 -25.5q20 -14 20 -28q0 -7 -6 -15t-14 -8q-10 0 -19 6q-53 35 -125 35q-137 0 -283.5 -89t-257.5 -222t-183 -294t-72 -300q0 -99 47 -154t125 -55q82 0 178 49 q17 52 47.5 104t63 89t62.5 66.5t49 43.5l19 15q73 54 148 94q135 232 135 411q0 45 -26 77t-74 32q-100 0 -183.5 -83t-83.5 -175q0 -68 62 -68q11 0 23 2.5t18 4.5l6 2q-14 -50 -47.5 -100.5t-86 -88t-106.5 -37.5q-63 0 -98 43t-35 105q0 74 50.5 160.5t125.5 155.5 t166.5 115t169.5 46q195 0 195 -203q0 -123 -101 -348q164 67 367 100q-215 23 -215 150q6 65 46 119.5t103 91.5t138 65t156.5 43.5t152 23t131.5 7.5q197 0 197 -84q0 -54 -58 -108q-79 -68 -249.5 -124t-321.5 -75q10 -23 39 -45t61 -33q17 -6 34 -9.5t25 -3.5l9 -1 q16 -1 16 -17q0 -7 -4 -11t-12 -6t-15 -3t-20 -2t-20 -2q-76 -10 -159 -34.5t-169.5 -69t-154.5 -100.5t-111 -135t-43 -167q0 -70 50.5 -108.5t119.5 -38.5q71 0 158 41t159.5 103t122 140.5t49.5 147.5q0 27 -19 44t-53 17q-75 0 -165.5 -62.5t-90.5 -131.5q0 -13 8 -22 t19 -9t21 10q-3 -37 -26 -64.5t-65 -27.5q-30 0 -50.5 19.5t-20.5 52.5q0 54 38 107t94.5 90.5t121 61t118.5 23.5t89.5 -29.5t35.5 -97.5q0 -44 -18.5 -97.5t-36.5 -85.5l-18 -32q-62 -98 -134.5 -178t-136.5 -130t-133 -87t-119 -54.5t-99.5 -28t-69.5 -12t-35 -1.5 q-133 0 -228.5 54.5t-120.5 166.5q-231 -187 -426 -187q-161 0 -252.5 94t-91.5 261zM1655 1020q83 8 178 32t149 44l54 20q75 31 122 63t59.5 50.5t12.5 32.5q0 34 -71 34q-102 0 -254 -61q-40 -17 -91 -45.5t-105 -78t-54 -91.5z" />
<glyph unicode="&#x153;" horiz-adv-x="2654" d="M37 317q0 111 54.5 213t152.5 166t213 64q83 0 145 -42.5t62 -125.5q0 -61 -38.5 -107.5t-86.5 -46.5q-22 0 -38 6.5t-23.5 16t-11.5 19t-4 16.5l-1 6q0 22 14 43.5t37 21.5q0 -16 27 -16q14 0 24 17t10 34q0 35 -26.5 55.5t-71.5 20.5q-68 0 -113 -48.5t-45 -121.5 t53.5 -116.5t129.5 -43.5q45 0 99 25.5t97 57.5t100.5 89.5t88.5 92t82 94.5q8 9 12 14q117 135 247 258.5t211 189t191 148.5q-84 -41 -159 -58t-156.5 -24t-124.5 -16q-29 -6 -55.5 -14t-60 -23.5t-57.5 -33.5t-40.5 -45t-16.5 -59q1 -27 21.5 -43t46.5 -16q25 0 47 19 q-9 -55 -31.5 -95.5t-46.5 -61.5t-53.5 -33.5t-47 -15.5t-32.5 -3q-84 0 -139 54t-55 136q0 73 37.5 132.5t96 95.5t135 60.5t148 34t140.5 9.5q403 0 538 96q12 12 25 12q8 0 13 -5.5t5 -12.5q0 -9 -16 -25q-145 -110 -319.5 -328.5t-335.5 -469.5q-153 -239 -240 -345 q-213 -261 -423 -285q-23 -3 -46 -3q-159 0 -274 102.5t-115 263.5zM1087 133q0 74 31.5 141t76 117.5t89 96.5t76 97t31.5 101q0 55 -60 55q-10 0 -21 -1t-14 -1q-16 0 -16 21q0 6 4.5 11t7.5 5q72 9 148.5 51.5t145 102t138 130t137 139.5t132.5 125t134 91t132 35 q48 0 85.5 -27t37.5 -92q0 -75 -77.5 -134.5t-160.5 -59.5q-33 2 -49 8q14 14 14 35q-1 12 -12.5 19t-25.5 7q-49 0 -168 -96q-42 -34 -97 -79.5t-81 -66.5t-63 -51t-53.5 -42t-42 -30t-38.5 -25.5t-33 -17.5t-36.5 -16t-37.5 -12q27 6 52 6q55 0 100 -33.5t45 -89.5 q0 -41 -19 -88t-42.5 -83t-42.5 -83t-19 -88q0 -59 55 -59q56 0 103 43h10q-15 -42 -54 -97.5t-93 -110t-126 -91.5t-141 -37q-74 0 -118 50t-44 124zM1544 -12q85 118 137 203t119.5 200t163.5 260q-17 -7 -33 -16.5t-34 -27.5t-31 -32t-35 -44.5t-34 -47.5t-41 -59.5 t-44 -63.5h-35q17 25 50.5 73.5t52.5 75.5t49.5 65.5t54 61t53.5 42.5t60 27q192 304 389 557q82 104 158 181.5t127 116t96.5 61.5t66.5 27.5t37 4.5q33 0 52.5 -19.5t19.5 -54.5q0 -66 -41 -137q-110 -187 -265.5 -358.5t-336.5 -297.5l-139 -233q139 177 256 250 q64 39 133 39q54 0 92.5 -25t38.5 -76q0 -49 -35.5 -115t-78 -120.5t-78 -116t-35.5 -102.5q0 -15 13 -25t32 -10q25 0 53 19.5t46 40.5t44.5 56.5t34.5 45.5h30q-27 -45 -61.5 -95t-87 -115.5t-102.5 -116t-108 -85.5t-105 -35q-65 0 -109.5 41.5t-44.5 108.5 q0 122 178 348q22 27 54.5 67t53 65.5t42 53.5t31.5 48.5t10 33.5q0 23 -19 23q-30 0 -76 -40t-86 -87q-8 -9 -65 -73t-80 -91.5t-62.5 -78.5t-64.5 -93l-184 -305q-39 10 -113 10q-36 0 -77 -2.5t-64 -5.5zM2345 860q249 212 424 459q119 169 119 227q0 21 -15 21 q-28 0 -89 -66.5t-139.5 -178.5t-151 -224.5t-148.5 -237.5z" />
<glyph unicode="&#x178;" horiz-adv-x="1159" d="M-256 -586q0 69 38 135.5t98.5 118t137 97t154 78t148 56t120.5 35t70 11.5q123 171 259 378l136 207q-25 -27 -69.5 -86t-86 -115.5t-99.5 -122t-112 -113.5t-120.5 -80.5t-128.5 -32.5q-134 0 -198 69.5t-64 179.5q0 84 28.5 157.5t79 131t113 107.5t138 96.5t144.5 88 t143 91.5t124 98q140 132 143 238q0 33 -22 55q-31 27 -89 27t-121.5 -22.5t-108 -61.5t-44.5 -80q0 -22 14 -37.5t35 -15.5q29 0 41 12q-6 -87 -66 -147t-149 -60q-66 0 -107.5 35.5t-41.5 93.5q0 61 37.5 117.5t97 97.5t130.5 71.5t140 46t123 15.5q87 0 152 -34.5 t65 -104.5q0 -62 -29.5 -130t-85.5 -138t-102.5 -119.5t-114.5 -114.5q-43 -42 -60 -59t-54.5 -59.5t-54 -71t-31.5 -68.5t-15 -77q0 -34 23 -57t55 -23q33 0 77 23.5t86 59.5t68.5 62t47.5 49q373 438 645 783q31 -7 61 -7q48 0 109.5 11t98.5 21l38 11 q-126 -143 -237 -282t-186.5 -240t-164.5 -233.5t-135.5 -206t-137 -219.5t-134.5 -215q139 -17 212.5 -66t73.5 -112q0 -83 -75.5 -139t-169.5 -56q-52 0 -68 20q1 0 11 5t24.5 16.5t28.5 26.5t24 38.5t10 49.5q0 46 -27.5 86t-78.5 61q-146 -231 -352 -418 q-94 -86 -215 -143t-240 -57q-81 0 -144 39.5t-63 117.5zM-162 -565q0 -62 82 -66q58 0 125 39q114 64 202 161.5t220 305.5q-224 -59 -356 -135q-35 -21 -76 -51t-88 -72.5t-78 -91t-31 -90.5zM1038 1542q0 68 60 125q57 57 116 57q36 0 62 -26q20 -20 20 -58 q0 -70 -65 -135q-53 -53 -111 -53q-32 0 -55 23q-27 27 -27 67zM1366 1542q0 69 59 125q57 57 117 57q36 0 62 -26q20 -20 20 -58q0 -70 -65 -135q-53 -53 -111 -53q-32 0 -55 23q-27 27 -27 67z" />
<glyph unicode="&#x2c6;" horiz-adv-x="458" d="M-100 104q0 37 6 71t26.5 78.5t37 76.5t60.5 96t72.5 104t97 134.5t111.5 154.5q35 -6 92 -6q86 0 162 8q-187 -271 -254 -385.5t-67 -150.5q0 -13 8 -24t22 -11q86 0 209 164h35q-164 -243 -268 -346t-211 -103q-65 0 -102 41t-37 98zM455 967q0 69 51 157 q37 64 83.5 104t84.5 40q55 0 55 -64q0 -39 -18 -88.5t-35 -81.5q-26 -46 -73.5 -94.5t-90.5 -48.5q-28 0 -42.5 22t-14.5 54z" />
<glyph unicode="&#x2dc;" horiz-adv-x="563" d="M39 1044q0 36 32.5 65.5t82.5 29.5q46 0 98 -25.5t104.5 -51.5t98.5 -26q10 0 18 7t8 16t-10 14q4 2 14 2q20 0 30.5 -12.5t10.5 -32.5q0 -39 -30.5 -63.5t-73.5 -24.5q-53 0 -143.5 38.5t-135.5 39.5q-17 0 -28 -8t-11 -17q0 -15 13 -20q-39 6 -58.5 24.5t-19.5 44.5z " />
<glyph unicode="&#x2000;" horiz-adv-x="921" />
<glyph unicode="&#x2001;" horiz-adv-x="1843" />
<glyph unicode="&#x2002;" horiz-adv-x="921" />
<glyph unicode="&#x2003;" horiz-adv-x="1843" />
<glyph unicode="&#x2004;" horiz-adv-x="614" />
<glyph unicode="&#x2005;" horiz-adv-x="460" />
<glyph unicode="&#x2006;" horiz-adv-x="307" />
<glyph unicode="&#x2007;" horiz-adv-x="307" />
<glyph unicode="&#x2008;" horiz-adv-x="230" />
<glyph unicode="&#x2009;" horiz-adv-x="368" />
<glyph unicode="&#x200a;" horiz-adv-x="102" />
<glyph unicode="&#x2010;" horiz-adv-x="778" d="M90 479l92 115h535l-92 -115h-535z" />
<glyph unicode="&#x2011;" horiz-adv-x="778" d="M90 479l92 115h535l-92 -115h-535z" />
<glyph unicode="&#x2012;" horiz-adv-x="778" d="M90 479l92 115h535l-92 -115h-535z" />
<glyph unicode="&#x2013;" horiz-adv-x="587" d="M-102 162q0 69 30 132t78.5 109t112 84.5t127 62.5t127.5 38q-29 7 -49.5 13.5t-45.5 19t-38 31.5t-13 44q0 46 42 81.5t104.5 54t118.5 27.5t98 9q67 0 117.5 -16.5t50.5 -52.5q0 -29 -23.5 -51.5t-59 -35t-70.5 -18.5t-66 -6q-62 0 -117 17q-4 -20 -4 -29 q0 -14 7 -24.5t16 -16.5t24.5 -10.5t25.5 -6t27.5 -3.5t22.5 -3q14 -4 14 -20q0 -21 -31 -29q-57 -17 -106 -39.5t-97 -54t-76 -74.5t-28 -92q0 -42 32.5 -65t74.5 -23q78 4 154.5 63t133.5 136h35q-302 -453 -528 -453q-92 0 -156.5 53t-64.5 148zM442 743q21 -12 78 -12 q60 0 111 14t51 37q0 2 -1.5 5t-13 7.5t-32.5 4.5q-127 0 -193 -56z" />
<glyph unicode="&#x2014;" horiz-adv-x="2199" d="M90 479l301 115h1747l-301 -115h-1747z" />
<glyph unicode="&#x2018;" horiz-adv-x="251" d="M37 1047q3 45 12 88.5t26.5 93t49.5 87t74 52.5q15 6 30 6q22 0 39 -11t23 -32q6 -18 6 -41q0 -52 -35.5 -102.5t-85.5 -69.5q-12 -4 -18 -4q-4 0 -11.5 1t-11.5 1q-6 0 -22 -4q-38 -12 -68 -84z" />
<glyph unicode="&#x2019;" horiz-adv-x="577" d="M279 997q57 50 57 93q0 14 -8.5 31.5t-8.5 29.5q0 63 51 121.5t111 58.5q30 0 48 -22t18 -54q0 -45 -24.5 -87.5t-65 -75.5t-79 -56t-79.5 -41z" />
<glyph unicode="&#x201a;" horiz-adv-x="329" d="M31 -23q57 50 57 93q0 14 -8 31.5t-8 29.5q0 63 50.5 121.5t110.5 58.5q30 0 48 -21.5t18 -53.5q0 -36 -17 -72t-43 -63t-60.5 -52.5t-65 -42.5t-62.5 -31z" />
<glyph unicode="&#x201c;" horiz-adv-x="157" d="M37 1057q3 45 12 88.5t26.5 93t49.5 87t74 52.5q15 6 30 6q22 0 39 -11t23 -32q6 -18 6 -41q0 -52 -35.5 -102.5t-85.5 -69.5q-10 -4 -31 -4q-22 0 -32 -2q-38 -12 -68 -84zM276 985q4 45 12.5 88.5t26 93t49.5 87.5t74 53q15 6 31 6q49 0 61 -43q7 -21 7 -41 q0 -52 -35.5 -102.5t-85.5 -69.5q-10 -4 -31 -4q-23 0 -33 -2q-37 -11 -67 -84z" />
<glyph unicode="&#x201d;" horiz-adv-x="880" d="M319 965q29 26 43.5 46.5t14.5 45.5q0 14 -8.5 31.5t-8.5 29.5q0 63 51 121.5t111 58.5q30 0 48 -21.5t18 -53.5q0 -45 -24.5 -87.5t-65 -75.5t-79 -56t-79.5 -41zM578 997q57 50 57 93q0 14 -8.5 31.5t-8.5 29.5q0 63 51 121.5t111 58.5q30 0 48 -22t18 -54 q0 -45 -24.5 -87.5t-65 -75.5t-79 -56t-79.5 -41z" />
<glyph unicode="&#x201e;" horiz-adv-x="612" d="M37 -23q57 50 57 93q0 14 -8 31.5t-8 29.5q0 63 51 121.5t111 58.5q30 0 47.5 -21.5t17.5 -53.5q0 -36 -17 -72t-43 -63t-60.5 -52.5t-65 -42.5t-62.5 -31zM307 8q29 26 43.5 46.5t14.5 45.5q0 14 -8.5 32t-8.5 30q0 63 51 121.5t111 58.5q30 0 47.5 -22t17.5 -54 q0 -45 -24.5 -87.5t-64.5 -75.5t-78.5 -56t-79.5 -41z" />
<glyph unicode="&#x2022;" horiz-adv-x="1370" d="M35 176q0 103 43.5 215t112 209.5t158 192t176.5 166t173 128.5q198 132 409 211.5t409 79.5q229 0 229 -164q0 -105 -92 -195.5t-197 -90.5q-51 0 -90 25t-39 75q0 47 37 80t88 33q9 0 29 -4q-8 -3 -13.5 -13.5t-5.5 -19.5q0 -15 16 -26t40 -11q51 2 97 50t46 100 q0 41 -32.5 59t-76.5 18q-98 0 -216.5 -46.5t-229.5 -121t-217 -171t-184.5 -194t-126.5 -192t-48 -163.5q0 -51 21 -76t53 -25q49 1 150.5 76.5t196.5 166.5t191 183.5t124 112.5q42 -15 143 -15q45 0 102 11q-253 -327 -294 -386q-72 -103 -72 -149q0 -41 43 -41 q88 0 219 174l35 2q-35 -52 -53 -78.5t-54.5 -78t-61 -81t-61 -71.5t-67 -66.5t-66 -49t-70.5 -35.5t-69 -11q-64 0 -101.5 39t-37.5 101q0 106 90 262t178 233q-38 -31 -98 -94q-44 -45 -106 -117.5t-110.5 -131t-112.5 -124t-121 -110t-127 -74t-138 -29.5 q-100 0 -160.5 73t-60.5 179z" />
<glyph unicode="&#x2026;" horiz-adv-x="958" d="M-369 1223q0 45 25 81.5t63 58t86 36.5t90.5 20.5t79.5 5.5q94 -1 194 -27t169.5 -57.5t169 -78.5t160.5 -70q558 651 1106 651q99 0 155 -39.5t56 -109.5q0 -114 -140 -250q-173 -168 -416 -261t-485 -93q-76 0 -127 10q-168 -222 -346 -547q139 177 256 250 q64 39 133 39q54 0 92.5 -25t38.5 -76q0 -49 -35.5 -115t-78 -120.5t-78 -116t-35.5 -102.5q0 -15 13 -25t32 -10q25 0 53 19.5t46 40.5t44.5 56.5t34.5 45.5h31q-27 -45 -61.5 -95t-87 -115.5t-103 -116t-108.5 -85.5t-105 -35q-65 0 -109.5 41.5t-44.5 108.5 q0 120 179 348q21 27 54 67t53.5 65.5t41.5 53.5t31 48.5t10 33.5q0 23 -18 23q-30 0 -76 -40t-86 -87q-12 -14 -65.5 -74t-79 -89.5t-64.5 -80t-64 -92.5l-184 -305q-39 10 -113 10q-36 0 -77 -2.5t-63 -5.5l-23 -2q109 149 216.5 329t209.5 334q-53 -20 -103.5 -80 t-154.5 -211h-35q14 20 50.5 73t53.5 76.5t50 64.5t56 62t54 41.5t61 27.5q167 258 322 446q-78 28 -204.5 85t-211 83.5t-168.5 26.5q-47 0 -90.5 -13t-75 -42.5t-32.5 -69.5q0 -34 31.5 -68.5t92.5 -44.5q-52 -41 -124 -41q-50 0 -99.5 16.5t-86 53.5t-36.5 86zM852 1143 q54 -4 82 -4q227 0 467 99.5t391 250.5q104 104 104 186q0 42 -28 62t-68 20q-130 0 -264.5 -51.5t-256 -142t-225.5 -193.5t-202 -227z" />
<glyph unicode="&#x202f;" horiz-adv-x="368" />
<glyph unicode="&#x205f;" horiz-adv-x="460" />
<glyph unicode="&#x20ac;" horiz-adv-x="772" d="M35 952l65 62h185l45 47h-195l68 63h190q79 66 103 84q109 82 256 143.5t266 61.5q42 0 70 -11t38 -24t20 -24t19 -11q27 0 45 29l23 -16l-141 -185l-23 17l6 8q29 52 29 94q0 30 -14.5 50t-45.5 20q-73 0 -184 -75.5t-198 -160.5h292l-67 -63h-285q-23 -23 -41 -47h291 l-64 -62h-274q-127 -184 -127 -336q0 -56 36.5 -98.5t100.5 -42.5q68 0 136.5 52.5t111.5 121.5q51 82 51 139q0 29 -15 48.5t-48 19.5q-62 0 -124.5 -59.5t-62.5 -124.5q0 -31 21 -31q7 0 16 6q-1 -2 -2 -6.5t-6 -15t-11 -18.5t-16.5 -14.5t-23.5 -6.5q-31 0 -45 16.5 t-14 40.5q0 54 43.5 114.5t107.5 101t119 40.5q43 0 72.5 -28.5t29.5 -79.5q0 -81 -49 -171.5t-124 -163t-171 -120t-184 -47.5q-112 0 -182 79.5t-70 198.5q0 181 149 385h-198z" />
<glyph unicode="&#x2122;" horiz-adv-x="552" d="M-946 1208q0 92 48 165.5t125.5 116.5t165.5 65t177 22q153 0 298.5 -49.5t307.5 -138.5q59 -33 189.5 -107.5t189.5 -105.5q85 88 162 155q259 232 399 234q55 0 55 -56q0 -114 -292 -460q78 -17 182 -17q88 0 159 16.5t109.5 40.5t64.5 48t34 41l8 16q10 -27 10 -55 q0 -57 -28 -99.5t-74.5 -66.5t-99 -35.5t-107.5 -11.5q-145 0 -308 67q-255 -282 -473 -426q-26 -42 -50.5 -119.5t-24.5 -125.5q0 -37 18.5 -65t50.5 -28q35 0 67.5 14.5t62.5 44.5t49 53t46 60h31q-36 -56 -56 -86t-58.5 -82.5t-66.5 -83t-69.5 -69t-78.5 -59t-83.5 -35.5 t-93.5 -15q-69 0 -113 38t-44 118q0 189 153 457q145 259 424 555q-68 33 -173 88.5t-175.5 91t-159 73t-171.5 56t-163 18.5q-67 0 -130.5 -20.5t-110.5 -69t-47 -114.5q0 -44 40.5 -73t90.5 -36q-34 -81 -97.5 -122.5t-136.5 -41.5q-94 0 -163.5 62t-69.5 157zM391 641 q194 153 385 373q-48 19 -106 49q-157 -206 -279 -422zM702 1104q71 -29 117 -41q100 120 192.5 246t92.5 161q0 11 -10 11q-39 -3 -152.5 -115t-239.5 -262z" />
<glyph unicode="&#x25fc;" horiz-adv-x="849" d="M0 0v850h850v-850h-850z" />
<glyph unicode="&#xfb01;" horiz-adv-x="1245" d="M-184 -322q0 76 36.5 173.5t106 210t128 197.5t145.5 202.5t116 159.5q-46 6 -77.5 17t-39.5 18l-8 8q-26 -43 -78.5 -119t-91.5 -131l-39 -54h-37q116 154 218 338q-7 18 -7 37q0 49 24 97.5t58 48.5q9 0 13 -2q32 -8 32 -37q0 -24 -28.5 -72.5t-28.5 -58.5 q0 -7 11.5 -15.5t39.5 -17t68 -14.5q78 114 187 279t179 271.5t74 110.5q99 5 181 48.5t171 117.5l15 -8l-617 -826q94 3 254 25l-43 -70h-239q-10 -12 -29 -43q16 -91 16 -163q0 -111 -27.5 -226t-73 -211.5t-105 -182.5t-122 -146t-124.5 -94.5t-113 -34.5 q-70 0 -107.5 47.5t-37.5 119.5zM180 -96q0 -56 35 -56q32 0 76 52.5t83 131t66 179t27 186.5q0 44 -10 92q-273 -419 -277 -585zM637 360q207 284 296 371.5t187 87.5q54 0 92.5 -24.5t38.5 -75.5q0 -49 -32 -111.5t-70 -113t-70 -108.5t-32 -99q0 -15 13 -25t32 -10 q25 0 53 19.5t46 40.5t44.5 56.5t34.5 45.5h30q-27 -45 -61.5 -95t-87 -115.5t-102.5 -116t-108 -85.5t-105 -35q-65 0 -109.5 41.5t-44.5 108.5q0 122 178 348q18 23 52 65t50 63t36 48.5t28 45.5t8 32q0 22 -18 22q-21 0 -46 -19t-99 -106t-199 -256h-35zM1178 967 q0 69 51 157q37 64 83.5 104t84.5 40q55 0 55 -64q0 -39 -18 -88.5t-35 -81.5q-26 -46 -73.5 -94.5t-90.5 -48.5q-28 0 -42.5 22t-14.5 54z" />
<glyph unicode="&#xfb02;" horiz-adv-x="1249" d="M-184 -322q0 76 36.5 173.5t106 210t128 197.5t145.5 202.5t116 159.5q-46 6 -77.5 17t-39.5 18l-8 8q-26 -43 -78.5 -119t-91.5 -131l-39 -54h-37q116 154 218 338q-7 18 -7 37q0 49 24 97.5t58 48.5q9 0 13 -2q32 -8 32 -37q0 -24 -28.5 -72.5t-28.5 -58.5 q0 -7 11.5 -15.5t39.5 -17t68 -14.5q78 114 187 279t179 271.5t74 110.5q99 5 181 48.5t171 117.5l15 -8l-617 -826q94 3 254 25l-43 -70h-239q-10 -12 -29 -43q16 -91 16 -163q0 -111 -27.5 -226t-73 -211.5t-105 -182.5t-122 -146t-124.5 -94.5t-113 -34.5 q-70 0 -107.5 47.5t-37.5 119.5zM180 -96q0 -56 35 -56q32 0 76 52.5t83 131t66 179t27 186.5q0 44 -10 92q-273 -419 -277 -585zM641 129q0 186 156 453q83 138 202 290.5t225.5 265t190.5 191t115 96.5q196 136 280 136q58 0 58 -58q0 -114 -254 -416q-290 -343 -557 -522 q-26 -45 -51 -122t-25 -121q0 -36 18.5 -63.5t49.5 -27.5q34 0 66 14.5t62 44.5t49 53t46 60h35q-37 -57 -57 -86.5t-59 -83t-66.5 -83.5t-69.5 -69t-79 -59.5t-83.5 -35.5t-93.5 -15q-69 0 -113.5 38.5t-44.5 119.5zM1096 647q115 92 235 216.5t207 230.5q76 88 167 212.5 t91 157.5q0 5 -8 9q-39 -5 -147.5 -112.5t-215.5 -234.5q-71 -83 -163.5 -215.5t-165.5 -263.5z" />
</font>
</defs>
</svg>
